/* XPM */
static char *_4394e9e751e4c2cd2a2f98266569016RRe6e7cAKAJessIn[] = {
/* columns rows colors chars-per-pixel */
"64 64 117 2 ",
"   c None",
".  c #000000",
"X  c #050B06",
"o  c #070F08",
"O  c #071009",
"+  c #08130A",
"@  c #0D1C0F",
"#  c #0E1E10",
"$  c #0F2011",
"%  c #112614",
"&  c #132A16",
"*  c #152E18",
"=  c #16311A",
"-  c #19361C",
";  c #1A381E",
":  c #1C3E21",
">  c #1F4324",
",  c #204625",
"<  c #224927",
"1  c #234C28",
"2  c #26532C",
"3  c #28572E",
"4  c #28592F",
"5  c #2A5C30",
"6  c #2E6535",
"7  c #2F6837",
"8  c #306737",
"9  c #306937",
"0  c #316C39",
"q  c #36753E",
"w  c #37783F",
"e  c #377940",
"r  c #397B41",
"t  c #3C8445",
"y  c #3D8847",
"u  c #3F8648",
"i  c #3E8948",
"p  c #41874A",
"a  c #408D4A",
"s  c #418C4B",
"d  c #408C4A",
"f  c #408E4A",
"g  c #408E4B",
"h  c #428C4C",
"j  c #428E4C",
"k  c #448C4E",
"l  c #458C4E",
"z  c #448E4E",
"x  c #458F4E",
"c  c #468E4F",
"v  c #438A4C",
"b  c #44914E",
"n  c #478F50",
"m  c #488F51",
"M  c #479050",
"N  c #469250",
"B  c #469350",
"V  c #479551",
"C  c #479552",
"Z  c #489552",
"A  c #499453",
"S  c #489652",
"D  c #499653",
"F  c #499753",
"G  c #4B9454",
"H  c #499754",
"J  c #4A9654",
"K  c #4B9654",
"L  c #4C9655",
"P  c #499252",
"I  c #4B9855",
"U  c #4A9955",
"Y  c #4B9A55",
"T  c #4C9A56",
"R  c #4D9C57",
"E  c #4F9B59",
"W  c #4F9C59",
"Q  c #4E9E58",
"!  c #4F9F5A",
"~  c #4E9A58",
"^  c #519E5A",
"/  c #509D5A",
"(  c #51A05B",
")  c #50A15B",
"_  c #53A15D",
"`  c #51A25C",
"'  c #52A25C",
"]  c #55A35F",
"[  c #53A45E",
"{  c #53A55E",
"}  c #54A25E",
"|  c #55A560",
" . c #56A560",
".. c #57A762",
"X. c #56A861",
"o. c #57A962",
"O. c #58A962",
"+. c #59AB63",
"@. c #59AC63",
"#. c #59AB64",
"$. c #5BAC65",
"%. c #5BAC66",
"&. c #5CAE67",
"*. c #5DAF67",
"=. c #5DB068",
"-. c #5EB169",
";. c #5DB268",
":. c #5EB269",
">. c #60B36B",
",. c #60B46B",
"<. c #61B56C",
"1. c #61B66C",
"2. c #61B76C",
"3. c #62B66D",
"4. c #62B76D",
"5. c #62B86D",
"6. c #63B96E",
/* pixels */
"                                                                                                                                ",
"                                                                                                                                ",
"                                                                                                                                ",
"                                                                                                                                ",
"                                                                                                                                ",
"                                                                                                                                ",
"                                                                                                                                ",
"                                                                                                                                ",
"                                                                                                                                ",
"                                                                                                                                ",
"                                                                                                                                ",
"                                                                                                                                ",
"                                                                                                                                ",
"                                                                                                                                ",
"                                                                                                                                ",
"                                                                                                                                ",
"                                                                                                                                ",
"                                                                                                                                ",
"                                                                                                                                ",
"                                                                                                                                ",
"                                          . . . . . . . . . . . . . . . . . . . . . .                                           ",
"                                        . . . . . . . . . . . . . . . . . . . . . . . .                                         ",
"                                        o o O O O O + + + + + + O O + + O O + + O O O O                                         ",
"                                      + @ % & & & = = = - - * * - * = - = = = & & & % $ +                                       ",
"                          . . . . . X @ * : > 1 2 2 2 2 4 3 2 2 2 2 2 2 3 2 2 1 > > > = @ X . . . . .                           ",
"                        . . . . . . o & > 2 6 9 0 q w w w t w w w w w t w w w 0 7 6 3 > % o . . . . . .                         ",
"                        o o o o o o @ = 1 6 q t y i y y i i i i y i i i i i y t r w 6 1 = @ O o o o o o                         ",
"                      + @ % % % $ % = > 3 q r t i i i i i i i V i i i i i i i y y r q 5 > - % $ % % % # +                       ",
"                  . X @ * : , > > > < 4 7 w t y i i i i b i i i i S i i i i i i i t r 7 3 1 > > > > : = @ X .                   ",
"                . . o % > 2 5 6 6 6 7 0 w t t i i i i i i i i i i i i i i i i i y y t w q 7 5 6 6 5 3 : % O . .                 ",
"                X o @ = 1 6 q e q e e t i j j j i i i i i i i i i i i i i i i i i i t t w q q q q q 7 1 - @ o X                 ",
"              O @ % = , 4 q e t p h P G G T Y S B i i i i i i i i i i i i i i i i y y t t t r t t t q 5 > = % @ +               ",
"          . X @ * ; 1 5 9 w t x S E } [ [ +.[ ^ b f i y y y i y i i y i y i i i d y y d y y y d d y w q 5 1 : = @ X .           ",
"        . . O $ : 3 8 0 w t d S ^ +.*.>.>.=.+.} Y b i y y d y y i i y y i i i i t p d t y t y t t t t w 0 6 4 : $ X . .         ",
"        X o @ = 1 7 w t p f Z ^ +.-.,.4.,.*.+.^ S f y t y y p y i i y y t y y y p p p t w w w q w w q w w q 6 2 - # O X         ",
"      O @ % - > 4 q r d b Y ' ] -.4.4.>.*.[ ^ L x d p t t t t p i y y t t t t y t t r 0 9 4 4 4 2 4 4 6 q w 0 5 > = % # +       ",
". . o # = ; 1 3 9 w i b ~ ] +.>.4.6.4.$.} L m v p t t r p r t r t r t r e t r t t r q 6 1 : - = * = > 2 7 q q 7 5 1 : * $ o . . ",
". . o % : 3 7 q w t d Y ^ $.-.3.4.,.-.} G v r r w w e e e q w w e w w e e e w w r r 8 3 ; $ o o X + % ; 4 q t t q 7 2 : % o . . ",
". . o % > 6 q r t t d G ^ $.*.>.-.*...E l r w 0 0 8 9 8 8 8 8 0 q q w w w w w r r q 8 < * o . . . . + = 3 q t t t q 6 > & O . . ",
". . O & 1 0 r t t t u x L ^ ^ ] } ( E M p r 0 8 3 2 1 < < 1 2 4 7 0 q w w w w w r q 8 < % X . . . . o & 2 q t t i r 0 1 & O . . ",
". . O = 2 0 t t p r p p p m m m P n m p t e 8 4 < - & % % & - < 5 9 e e r q q r r q 8 < % X . . . . X & 1 0 r d i t q 1 & O . . ",
". . O = 2 q t t r r r r r r r p t r t r r e 8 2 - # o X X o @ - 1 9 e e r q q r r q 8 < * o . . . . o * 1 9 r y i t q 2 = O . . ",
". . + = 2 q t t r r q r q q r q e w w e e e 8 1 & o . . . . + & < 8 e r r q q r r r 8 2 - # o X X o # - 2 9 e t i t q 2 = + . . ",
". . + * 1 q t t r r r q q q q q q q q e e e 8 < & X . . . . X & < 8 e r r r q r r q 0 5 < - * % & & - < 5 0 e t t t q 1 & + . . ",
". . + & 1 7 w t r r q q q q q q q q e r r q 8 , & X . . . . X % < 8 e r r e q q r q 0 8 5 2 < < < < 2 4 7 0 w r t w 0 1 & + . . ",
". . O & > 6 q w q q r q q r q q q q q r r e 8 < & o . . . . o & < 8 e r e q r q q q q q 0 8 8 8 8 8 9 0 q q w w w q 6 < & O . . ",
". . O $ : 3 6 7 0 q q q q r q r q q q r r q 8 2 - $ o X o o $ - 2 8 e e r q e q r r q q r q q q w w w e w q q q 7 6 4 : % O . . ",
". . O # * : 1 3 8 q q r r q q q r q q r r q 0 5 , - & & % * - < 4 0 e e e e q q q q q r r r r r r r r e w w 0 6 3 1 ; = @ O . . ",
"      + @ % = > 3 9 q e e q q q w w w w e q 0 8 5 2 1 < < < 2 5 8 q q r r q q q q e w e e e r e e r r e w q 0 3 > = % @ O       ",
"        X o @ = 1 6 0 q q q 0 q q q w w w w q q 0 8 8 8 8 8 8 0 q q q w q q r q e q w w w w w q q 0 q q q 0 6 1 = @ o X         ",
"        . . O & : 3 5 6 6 6 7 7 9 q w w w e e e e e e q q q q q q q q q r q q r q e e w w w q 0 8 6 5 8 6 6 3 : % o . .         ",
"          . X $ * : , , > > 1 2 6 q w e e e e r r t r r t r t r r r r r r r r r r e e r e w 0 7 3 , , , > > : = @ X .           ",
"              + # % % % % % = > 4 0 q e r r r r r r r t r r t r r r r r r r w r r r r r e w 0 4 , * % % % % % @ +               ",
"                o o o o X o @ - < 6 q q w q w q e r q q e e q q q q r q q q q q q e q q q 0 7 < = @ o o o o o o                 ",
"                . . . . . . o % > 2 5 7 8 8 8 8 8 8 8 8 8 8 8 8 8 8 8 8 8 8 8 8 8 8 8 8 7 6 2 > % o . . . . . .                 ",
"                  . . . . . X # = : , < < < < < < < < < < < < < < < < < < < < < < < < < < > : = # X . . . . .                   ",
"                              + # % & & & & & & & & & & & & & & & & & & & & & & * & & & & & % @ +                               ",
"                                o O o o o o O O O O O O O O O O o o o + o o O o O O O O o o o o                                 ",
"                                . . . . . . . . . . . . . . . . . . . . . . . . . . . . . . . .                                 ",
"                                  . . . . . . . . . . . . . . . . . . . . . . . . . . . . . .                                   ",
"                                                                                                                                ",
"                                                                                                                                ",
"                                                                                                                                ",
"                                                                                                                                "
};
