/* XPM */
static char *_b00526049654f22e562c7b88e61bb52G923gJjiHkcZqPtB[] = {
/* columns rows colors chars-per-pixel */
"64 64 50 1 ",
"  c None",
". c #000000",
"X c #050B06",
"o c #070F08",
"O c #071009",
"+ c #08130A",
"@ c #0D1C0F",
"# c #0E1E10",
"$ c #0F2011",
"% c #112614",
"& c #132A16",
"* c #152E18",
"= c #16311A",
"- c #19361C",
"; c #1A391E",
": c #1C3E21",
"> c #1F4324",
", c #204625",
"< c #224927",
"1 c #234C28",
"2 c #26542C",
"3 c #28572E",
"4 c #28582F",
"5 c #2A5C30",
"6 c #2E6435",
"7 c #306737",
"8 c #306937",
"9 c #316B39",
"0 c #36763E",
"q c #37783F",
"w c #377940",
"e c #397B41",
"r c #3C8446",
"t c #3D8847",
"y c #3F8648",
"u c #3E8948",
"i c #418D4B",
"p c #42914D",
"a c #479451",
"s c #499653",
"d c #4B9A55",
"f c #4E9D59",
"g c #52A35D",
"h c #56A760",
"j c #57A962",
"k c #59AB64",
"l c #5CB067",
"z c #5EB169",
"x c #61B66C",
"c c #63B86E",
/* pixels */
"                                                                ",
"                                                                ",
"                                                                ",
"                                                                ",
"                                                                ",
"                                                                ",
"                                                                ",
"                                                                ",
"                                                                ",
"                                                                ",
"                                                                ",
"                                                                ",
"                     ......................                     ",
"                    .........X..............                    ",
"                    oooo++++++++++++++++++oo                    ",
"                   +#%%**==============*&%%@+                   ",
"             .....X@=:,122222242223322221>:=#X.....             ",
"            ......O%:3680w0000ee000rq009862:%+......            ",
"            oooooo@=160euuuutuuuttuutttree61=#OXoo+o            ",
"           +#%%%%%=,50etuuuauuuuuuuuuuaute05>=&%%%%@+           ",
"         .X@=;>>>>159qrtuuuuauuuuuuuuuuuure95>>>>>:=@X.         ",
"        ..o%>2566689qrttuuuuuuuuuuuuutuuutew9666652:%o..        ",
"        Xo#=160090qerruuuuuuuuuuuuuuuututttrww9w0061=@+.        ",
"       O@%=>40qrrweerttuuuuuuuuuuuuuuuuuuttrrerrre95,=%@+       ",
"     .X@&:159errrrrruuuuuuuuuuuuuuuuuuuuuuutrrttrre951:&@X.     ",
"    ..o%:260qrrrrrrruuuuuuuuuuuuuuuuuuuuuuuuttuurrre062:%o..    ",
"    Xo$=<60erruuuuuuuuuuuuuuuuuuuuuuuuuuuuuutuuuuttre06<=@oX    ",
"   +@%=>40ertuupdddgfgguuuuuuuuuuuuuuuuuuuuuuuuuuuutte05,=%@+   ",
"..X@*:149qrrttuadhjkjjgfduuuuuuuuuuuuuuuuuuuuuuupupuure951:=#o..",
"..o%:360qruutupdgkzzzzjgfuuuuuuuuuuuuuuuututuuutuuuuurrq062:%o..",
"..O&,60erruuupafjzcczzkgduuuuuuuuuuuuuuuttrrreq00qerrrtre06>%o..",
"..O*18ettuupadfjlzczzlhfduuuuuuuuuuuuuuuttrw862223590ruuue91&+..",
"..o*29ruiyisfgjzxcxlhgdappiiiiiiuuutuuuuii072:=**=:29ruuur91*+..",
"..+*20tuyiisgkzxxxlkfaiiuuutiriiuuttuuuuii05:$+ooo$:4quppu02*+..",
"..+*20tuiiisgkzzxlkfsireqq0000qerrrrttuuie03=+....+=20ippu02=+..",
"..+=20tiiyisfghjhgfsiye0843212570rrrrrrtiy92&X....X*20tppu02=+..",
"..+=20iiiiiissdsaaiiie051;-**=:<60errerry071&X.X..X*20tiutq2=+..",
"..+=30tiiriiiiiiieeeee82;$+Xo+$;29eewwwwy071&+.X..+=30iiptq2=+..",
"..+=20eiiirryyyyeeeee061*+....o%>90ewwwwe072-$oXXo$:40tiuu02=+..",
"..+=29iiirreyeeee000q07,%X....o%>60ew0wwe094<-*%%*;<70ripuq4=+..",
"..+=2qruyeeeeeee0000e07,%X....X%170ee00ee00752<<<1258wetuu02=+..",
"..+=2quuye0eee0ee00ee07<*o....o*16wee0q000009777777900eruu02=+..",
"..O=29rtyee000000e0e0072-#oXoo#-27wwqq0q00000000w00000erur02=+..",
"..O=20eree000ee0000e00w5<-*%%*-<58wwe0q00000eeeeeeeew0eerr92*O..",
"..+*<8eree00000e000ee00752<<<13579www00q0e0ee0eeeewwqqqeeq91*o..",
"..o&>60000000e00ee000009997777790w000wq000e000e0w0ww0q0eq06,&o..",
"..o$:26800000ee000000000qq000000w00w0w000000ee000q00q000962:%o..",
"..o#=:12790ee0000e0e00eeqeeeeqeewww0w000e0e0000eqqqqq09641:=@o..",
"   +@%*,380ee00q0000000weeeeeeeewww0e0e0000qq000000wq093,=%@O   ",
"    Xo#=16900900000e0ww000w00w00000w0000w0e0q0000090097<=@oX    ",
"    ..+%:35666588000q0e00w00w000w0000q0q0q00q0087766653:%o..    ",
"     .X#*:,,>>1260qqeeeweeeeeeeeeeeeeeeeeeeeeq063<,:,,:=@X.     ",
"       +#%%%$%=>48qeeeeeeeeeeeeeeeeeeeeeeeeeeq94,=%%%%%$+       ",
"        ooooo+#=1600q000w00000000w0000000w000961=@+Xoooo        ",
"        ......+%:367777777777777777777777777762>%o......        ",
"         .....X#*:,,<<<<<<<<<<<<<<<<<<<<<<<<<,;=#X.....         ",
"               +$%&&&&&&&&&&&&&&%**%**%*=&&&&%%$+               ",
"                oOooooOOOOOOOOOOooo+ooooOOoOOooo                ",
"                ................................                ",
"                 ..............................                 ",
"                                                                ",
"                                                                ",
"                                                                ",
"                                                                "
};
