/* XPM */
static char *_0243805105946c594c93937017b1ac2y5N1v89v6gEzQvtV[] = {
/* columns rows colors chars-per-pixel */
"64 64 114 2 ",
"   c None",
".  c #000000",
"X  c #050B06",
"o  c #070F08",
"O  c #071009",
"+  c #08130A",
"@  c #0D1C0F",
"#  c #0E1E10",
"$  c #0F2011",
"%  c #112614",
"&  c #132A16",
"*  c #152E18",
"=  c #16311A",
"-  c #19361C",
";  c #1A381E",
":  c #1C3E21",
">  c #1F4324",
",  c #204625",
"<  c #224927",
"1  c #234C28",
"2  c #26542C",
"3  c #28572E",
"4  c #29592F",
"5  c #2A5C30",
"6  c #2E6535",
"7  c #306737",
"8  c #306937",
"9  c #316B39",
"0  c #36753E",
"q  c #37783F",
"w  c #377940",
"e  c #397B41",
"r  c #3C8446",
"t  c #3D8847",
"y  c #3F8748",
"u  c #3E8948",
"i  c #41874A",
"p  c #468E4F",
"a  c #458D4E",
"s  c #418D4B",
"d  c #41904B",
"f  c #41904C",
"g  c #41914C",
"h  c #42914C",
"j  c #43904D",
"k  c #43904E",
"l  c #478F50",
"z  c #488F51",
"x  c #469350",
"c  c #469451",
"v  c #479551",
"b  c #489151",
"n  c #489552",
"m  c #4B9454",
"M  c #499754",
"N  c #4B9654",
"B  c #4C9555",
"V  c #489051",
"C  c #4A9854",
"Z  c #4A9955",
"A  c #4B9955",
"S  c #4C9B56",
"D  c #4C9B57",
"F  c #4C9C57",
"G  c #4D9C57",
"H  c #4E9A58",
"J  c #4F9B59",
"K  c #4D9D58",
"L  c #4E9D58",
"P  c #4F9E59",
"I  c #509D5A",
"U  c #519E5A",
"Y  c #50A05A",
"T  c #51A05B",
"R  c #52A05C",
"E  c #53A05D",
"W  c #53A15D",
"Q  c #51A25C",
"!  c #52A25C",
"~  c #52A35C",
"^  c #54A25E",
"/  c #55A35F",
"(  c #53A45E",
")  c #56A560",
"_  c #55A760",
"`  c #57A762",
"'  c #56A861",
"]  c #57A962",
"[  c #57AA62",
"{  c #58A962",
"}  c #58AB63",
"|  c #59AB63",
" . c #59AB64",
".. c #59AC64",
"X. c #5BAC65",
"o. c #5BAC66",
"O. c #5CAE67",
"+. c #5DAF67",
"@. c #5DAF68",
"#. c #5DB067",
"$. c #5DB068",
"%. c #5DB168",
"&. c #5EB168",
"*. c #5EB169",
"=. c #5EB269",
"-. c #5FB36A",
";. c #60B36A",
":. c #60B46B",
">. c #61B56B",
",. c #61B66C",
"<. c #62B66D",
"1. c #62B76D",
"2. c #62B86D",
"3. c #63B86E",
/* pixels */
"                                                                                                                                ",
"                                                                                                                                ",
"                                                                                                                                ",
"                                                                                                                                ",
"                                                                                                                                ",
"                                                                                                                                ",
"                                                                                                                                ",
"                                                                                                                                ",
"                                                                                                                                ",
"                                                                                                                                ",
"                                                                                                                                ",
"                                                                                                                                ",
"                                                                                                                                ",
"                                                                                                                                ",
"                                                                                                                                ",
"                                                                                                                                ",
"                                          . . . . . . . . . . . . . . . . . . . . . . . . . . . . . .                           ",
"                                        . . . . . . . . . . . . . . . . . . . . . . . . . . . . . . . .                         ",
"                                        o o + O O O + + + + + + + + + + + + + + + + + + + + + O O O O o                         ",
"                                      + @ % & & = = = = = = = = = = = = = = = = = = = = = = = & & & % @ +                       ",
"                          . . . . . X @ = ; < 1 2 2 2 2 2 2 2 2 3 2 2 2 2 2 2 2 3 2 2 2 4 3 2 2 1 > ; = @ X .                   ",
"                        . . . . . . O % > 2 6 9 9 0 0 0 q q q q q 0 0 q q r 0 q q q q q e r 0 9 9 6 4 ; $ O . .                 ",
"                        O O O X o o @ = > 6 0 e t t u u t t u u u u t t u u u u u u t t u u u u e 0 6 1 = # O X                 ",
"                      + @ % & $ % % = > 6 0 r r c u u u u u g g u u u u u u v u u u u u u u u u u e 0 5 > - % @ +               ",
"                  . X @ * ; > > > > 1 5 8 w r u u u u u u u g u g u g u g g u g u u u v u u u u t r e 9 4 1 : * @ X .           ",
"                . . o % > 2 6 6 6 5 6 0 0 r r t u u u u u u u u u u u u u u u u u u u u u u u u t r r w 0 6 2 : % o . .         ",
"                X O @ = 1 6 0 q 0 0 0 q r r u u u u u u u u u u u u u u u u u u u u u u u u u u t t t r e 0 6 < * @ o X         ",
"              o @ % = , 4 0 q e q e q r r t t u u u u u u u u u u u u u u u u u u u u u u u u u u u t t r e 0 5 , = % @ +       ",
"          . X @ & : < 5 9 q r r r r r r r r u u u u u u u u u u u u u u u u u u u u u u u u u u u u u u u r q 9 5 1 : * # o . . ",
"        . . o % : 3 6 0 q r u u t t t u u t u u u u u u u u u u u u u u u u u u u u u u u u u u u u u u u u r q 0 6 2 : % o . . ",
"        X o @ = 1 6 0 e r r u u u u g g g a g u u u u u u u u u t u u u u u u u u u u u u u u u u u u u u u r r e 0 6 , & O . . ",
"      + # % = , 5 0 w r r t u g c Z K K F D D x v u u u u u u u u u u u u u u u u u u u u u u c u u u u u u u u t e 8 1 & O . . ",
". . O # * : > 5 8 q r t r u s x F ~ ( ] { { ( I k s u u u u i t u u u u u u u u i t u s u d d d u d u s u u u u u t 9 2 * O . . ",
". . O % : 4 8 9 q r r u u u a N ~ ..-.-.-.#.{ ^ A s u u t u u t u u t t u u u u r i u u t t t u u u u u u u u u u t 0 2 * + . . ",
". . O % > 6 q r r u u i u d n I ] -.<.<.>.+.{ U n s t r r t t t t r t r t r t t i i i e q q q 0 0 0 q e r t u u u u e 2 = + . . ",
". . O * 1 8 q t u u s d n S U ) #.>.<.;.+.( U B j i r t r r i r r r r r r r r r i e e 0 8 4 4 2 2 4 5 9 q u u c u u q 4 = + . . ",
". . + & 1 0 r t u u d k J / X.@.>.2.>.X.U B z a i t r r e i e r r e r e e r e r e e 0 6 1 : - = * = > 2 8 e u u u t q 4 = + . . ",
". . + = 2 0 r t u u d A U X.@.<.2.<.@.( m a e e q q q q q q q w q q q w q q q q e e 9 3 ; $ o o X + $ ; 6 q u g g t 0 2 = + . . ",
". . + = 2 q u u u u s n U X.@.;.-.+.` J p e q 9 9 9 7 7 7 7 9 9 0 0 q q q q q w e 0 7 1 & o . . . . + = 2 0 r u g u 0 2 = + . . ",
". . + = 2 q u u u r i a B U U / R R J b i w 9 7 4 1 1 , < 1 2 4 7 9 0 q q q q q e 0 7 < % X . . . . o & 1 0 r u u u q 4 = + . . ",
". . + = 4 0 u u i e e i i z z z z l z i r w 7 4 , - & % % * - < 5 9 w w e 0 0 e e 0 7 , % X X . . . X & 1 9 e y g u 0 2 = + . . ",
". . + = 2 q t u i e e e e e e i e r r e w w 7 2 - $ o X X o # - 1 8 w e e 0 e e e 0 7 < & o . . . . o & 1 8 e t u u 0 2 = + . . ",
". . + = 2 0 r t e q 0 0 q q q 0 w q q w w w 7 < = o . . . . o & < 7 w w e 0 0 e e 0 7 2 - # o X X o # ; 2 8 q t u r 0 2 = + . . ",
". . + & 2 9 e r i e 0 0 0 0 0 0 0 q 0 w e w 7 < % X . . . . X & < 7 w w e q 0 q e 0 9 4 < ; * % & & ; , 5 9 q r u r 0 1 & + . . ",
". . O * < 8 e r e e 0 0 0 0 0 0 0 0 q q e 0 6 < % X . . . . X % < 7 w q q q q e e 0 9 7 4 2 < < < 1 1 5 6 0 0 e r q 9 1 & O . . ",
". . O & > 6 0 0 0 0 0 e 0 e 0 0 0 q q q e w 7 < % o . . . . o & < 7 w e e q 0 q e 0 0 0 9 7 7 7 7 7 9 9 0 0 0 q 0 0 6 , * O . . ",
". . o $ > 2 6 8 9 0 0 0 0 e e 0 q 0 q e e q 7 2 - $ o o o o $ - 2 7 w e q q q 0 0 0 0 0 e 0 0 0 q q q q q 0 0 0 9 6 2 : % O . . ",
". . o @ * : 1 2 7 0 0 e e 0 0 0 0 e q q q q 9 4 < - & % % * - < 4 9 w w q q q q 0 e e e e e e e w e e w q q 9 6 4 < : = @ o . . ",
"      + @ % * , 3 8 0 w w 0 0 0 q q q q w q 9 7 5 2 1 < , < 2 5 7 9 0 e 0 0 e 0 w 0 q w w w w q w q q w q 0 9 4 > = % @ +       ",
"        X o # = 1 6 9 0 0 0 9 0 0 q q q q 0 w 9 9 9 7 7 7 7 7 9 0 0 0 e e e 0 w 0 w 0 w q q 0 0 0 0 9 0 0 9 6 1 = @ o X         ",
"        . . o & : 3 5 6 6 6 6 8 9 0 q q q w w w q e w w 0 0 q e 0 e 0 0 0 e 0 0 w 0 w w q q 0 9 7 6 7 6 6 6 3 : % o . .         ",
"          . X # * : , , > > 1 2 7 9 q w w w w e e e e e i e e e e e e e 0 e e e w w w w w q 0 6 3 , , , > > : = @ X .           ",
"              + # % % % % & = > 3 8 q w e w w e e r e e e r e e e e e e w e e e e e e e q 0 8 4 , = % % % % % @ +               ",
"                o o o o X o # = 1 6 0 0 q q q 0 q q 0 w w w 0 w 0 0 q 0 0 0 0 0 w w 0 0 0 0 6 1 = @ o o o o o o                 ",
"                . . . . . . o % > 2 6 7 7 7 7 7 7 7 7 7 7 7 7 7 7 7 7 7 7 7 7 7 7 7 7 7 6 6 2 > % o . . . . . .                 ",
"                  . . . . . X # = ; , , < < 1 < < < < < < < , < < < < < < < < < < < < < < > : = # X . . . . .                   ",
"                              + # % % & & & & & & & & & & & & & & & & & & & & & & & & & & % % @ +                               ",
"                                o + o o o o o + o o o + + o o + o o o + o o + o + + o O O o O o                                 ",
"                                . . . . . . . . . . . . . . . . . . . . . . . . . . . . . . . .                                 ",
"                                  . . . . . . . . . . . . . . . . . . . . . . . . . . . . . .                                   ",
"                                                                                                                                ",
"                                                                                                                                ",
"                                                                                                                                ",
"                                                                                                                                "
};
