/* XPM */
static char *_23ac996ca864040ed39ba198e947af5kyxMHQSkPG3Hzntw[] = {
/* columns rows colors chars-per-pixel */
"64 64 55 1 ",
"  c None",
". c #000000",
"X c #050B06",
"o c #070F08",
"O c #071009",
"+ c #08130A",
"@ c #0D1C0F",
"# c #0E1E10",
"$ c #0F2011",
"% c #112614",
"& c #132A16",
"* c #152E18",
"= c #16311A",
"- c #19361C",
"; c #1A381E",
": c #1C3E21",
"> c #1F4324",
", c #204625",
"< c #224927",
"1 c #234C28",
"2 c #26542C",
"3 c #28572E",
"4 c #29592F",
"5 c #2A5C30",
"6 c #2E6535",
"7 c #306737",
"8 c #306937",
"9 c #316B39",
"0 c #36753E",
"q c #37783F",
"w c #377940",
"e c #397B41",
"r c #3C8446",
"t c #3D8847",
"y c #3F8748",
"u c #3E8948",
"i c #41874A",
"p c #418D4B",
"a c #42904C",
"s c #478F50",
"d c #488F51",
"f c #479551",
"g c #499453",
"h c #4B9A56",
"j c #4E9C58",
"k c #519E5A",
"l c #52A25D",
"z c #56A661",
"x c #57A962",
"c c #5AAC65",
"v c #5DAF68",
"b c #5DB067",
"n c #5EB169",
"m c #61B66C",
"M c #63B86E",
/* pixels */
"                                                                ",
"                                                                ",
"                                                                ",
"                                                                ",
"                                                                ",
"                                                                ",
"                                                                ",
"                                                                ",
"                                                                ",
"                                                                ",
"                                                                ",
"                                                                ",
"                                                                ",
"                                                                ",
"                                                                ",
"                                                                ",
"                     ..............................             ",
"                    ................................            ",
"                    oo+O++++++++++++@++++@++@++OOOOO            ",
"                   +@%&&**========*==*===**==**&&&%@+           ",
"             .....X@=;<12222222222222222222244221>;=@X.         ",
"            ......X&>2690w00q00rq000qrq00000er09964;$O..        ",
"            OOOXoO@=>60euuuuttuuuuutuuuuuuuuuuuue061=#O.        ",
"           +@%&$%%=>60rruuuuuuufauuuuuufuuuuuuuuue05>-&@+       ",
"         .X@*;>>>>148wrtuuuuuuuuuauufuuuuuufuuuutrw951:*@X.     ",
"        ..o%>46665600rtuuuuuuuuuuuuuuuuuuuuuuuuutrrw062:%O..    ",
"        XO@=>80q000qrruuuuuuuuuuuuuuuuuuuuuuuuuuuutre06<=@OX    ",
"       o@%=,40qerqerrtuuuuuuuuuuuuuuuuuuuuuuuuuuuuttre04,=%@+   ",
"     .X@&:<59qrrrrrrrtuuuuuuuuuuuuuuuuuuuuuuuuuuuuuuurw951:=#o..",
"    ..o%:360qruurrttttuuuuuuuuuuuuuuuuuuuuuuuuuuuutuuurq062:%o..",
"    Xo@=160erruuuuaauaauuuuuuuuuuuuuuuuuuuuuuuuuuuuuuurre06>&O..",
"   +#%=,50wrrtuaahjjjjhffuuuuuuuuuuuuuuuuuuuuuufuuuuuuuute81&O..",
"..X@=:>58qrttipdjkzxxxlkfputuuuuuuuuuuuutuuiupuuauauuuuuut92*OX.",
"..O%:280qrrttiphlcnmmnclfptttuuiuuutuuuuiruuuuuuuuuuuuuuuu02*O..",
"..+&>6qetttipagkxmmmmvzkfptrttttuutrtrrtiiriqqqq00errtufuue2=+..",
"..X*19qtttpafhkzvmMmclkjaitrrrrrurrrrrrrrre985222458qruuuuq4=+..",
"..+=10rttppfkkvvmMmckjdiirreeierrrqrereeiq061:-*&=>28ruuauq2=+..",
"..O=10tuttafkcvMmmmlgieeeeeeqqeq0qqqqqeeeq92;$ooX+$;50ufat02=+..",
"..+=2qtuutpfkcvvnnlkse099977779900qqqqqeeq7<*o....+=20tuuuq2=+..",
"..+=3qtptiipgkkzkkhgie97511,<124690qqqqqq07<%X....o&29ruauq2=+..",
"..+=4quuieeiiddddddiiw93<-&%%&-<580wqqqee07,%XX...X&19eiuu02=+..",
"..+=2qruiqeeeeierreeqw72-#oXXo#=280eqqqeeq7<&o....o*18etuu02=+..",
"..+=10rti000ee00ww0eqw7<&o....+&170eqq0ee072-$oXXo#-28qrut02=+..",
"..+&10ere0e000009e0eqw7<&X....X&<7qeqw0weq95,;&%&&-,59erur92=+..",
"..O&19eree00000000qqe07,%X....X%<7wee00eqq9752<<<<24600erq81&O..",
"..O&>60q000e00e0eqqeeq7<*o....o&170eeqw0qq0097777789000qq06<&O..",
"..O$:26800e00ee000qqe092-#oXoo$-18wew0w000qqqee00qqwq000862:%o..",
"..o@=:127900e0000eqqqq95<-&&%*-,59wee00wqqqqqeeeeeeewq964<:*@o..",
"   +@%=,380ew0w000qeqq97521<,<24990ew0w00qqweewqeeqew094>=%@+   ",
"    Xo@=1690090000qqqqw99977779990000e0qqqq00q0009900961=@oX    ",
"    ..O$:2666666800qqq0wweww0we0ee0ww0qqqq0e0q097666662:%o..    ",
"     .o@*:>>>>1260qqweeeeeeereereeeeeewewweee0063<,>>,:=@X.     ",
"       @#%%%$&=>490eeeeeeeeereeeqqqqeeweeeeeq084>=%%%%%@+       ",
"        oooooo#=<600q0q0we0wwe00ewqq000qww000061=@oooooo        ",
"        ......o%>267776977777777777777777777662>&o......        ",
"         .....X#*:>,<<<<<<<<,<<<<<<<<<<<<<<,<>:=#X.....         ",
"               +#%%&&&&&&&&&&&&&&&*&&*&&&&&&&%%@+               ",
"                o+ooOoOOooo++oo+ooo+oooo++oOOoOo                ",
"                ................................                ",
"                 ..............................                 ",
"                                                                ",
"                                                                ",
"                                                                ",
"                                                                "
};
