/* XPM */
static char *_375c3a0a2eb444aab55039900c03f6dBhvtQFHQaZJ0Wo0I[] = {
/* columns rows colors chars-per-pixel */
"64 64 119 2 ",
"   c None",
".  c #000000",
"X  c #050B06",
"o  c #070F08",
"O  c #071009",
"+  c #08130A",
"@  c #0D1C0F",
"#  c #0E1E10",
"$  c #0F2011",
"%  c #112614",
"&  c #132A16",
"*  c #152E18",
"=  c #16311A",
"-  c #19361C",
";  c #1A381E",
":  c #1C3E21",
">  c #1F4324",
",  c #204625",
"<  c #224927",
"1  c #234C28",
"2  c #26542C",
"3  c #28572E",
"4  c #28582F",
"5  c #2A5C30",
"6  c #2E6535",
"7  c #306737",
"8  c #306937",
"9  c #316B39",
"0  c #36763E",
"q  c #37783F",
"w  c #377940",
"e  c #397B41",
"r  c #3C8446",
"t  c #3D8847",
"y  c #3F8648",
"u  c #3E8948",
"i  c #41874A",
"p  c #408B4A",
"a  c #408C4A",
"s  c #408D4A",
"d  c #418C4B",
"f  c #418D4B",
"g  c #408E4A",
"h  c #408E4B",
"j  c #418E4B",
"k  c #418F4B",
"l  c #438C4C",
"z  c #428D4C",
"x  c #418E4C",
"c  c #428E4C",
"v  c #428F4C",
"b  c #428F4D",
"n  c #438F4D",
"m  c #458C4E",
"M  c #408E4B",
"N  c #41904B",
"B  c #41904C",
"V  c #41914C",
"C  c #42914C",
"Z  c #43904D",
"A  c #44914E",
"S  c #479051",
"D  c #469350",
"F  c #469451",
"G  c #479451",
"H  c #479551",
"J  c #479652",
"K  c #499453",
"L  c #499553",
"P  c #4A9453",
"I  c #499754",
"U  c #499854",
"Y  c #4A9854",
"T  c #4B9855",
"R  c #4A9955",
"E  c #4B9955",
"W  c #4C9A56",
"Q  c #4C9B56",
"!  c #4C9C57",
"~  c #4D9C57",
"^  c #4F9B59",
"/  c #4D9D58",
"(  c #4E9D58",
")  c #4F9E59",
"_  c #4F9F5A",
"`  c #50A05A",
"'  c #51A05B",
"]  c #53A15D",
"[  c #51A25C",
"{  c #52A25C",
"}  c #52A35C",
"|  c #53A45D",
" . c #53A45E",
".. c #55A55F",
"X. c #55A760",
"o. c #56A760",
"O. c #56A761",
"+. c #56A861",
"@. c #57A962",
"#. c #58A963",
"$. c #58AA63",
"%. c #58AB63",
"&. c #59AB64",
"*. c #59AC64",
"=. c #5CAF67",
"-. c #5CB067",
";. c #5DB067",
":. c #5DB068",
">. c #5DB168",
",. c #5EB168",
"<. c #5EB169",
"1. c #5EB269",
"2. c #5FB269",
"3. c #5FB36A",
"4. c #61B56C",
"5. c #61B66C",
"6. c #62B76D",
"7. c #62B86E",
"8. c #63B86E",
/* pixels */
"                                                                                                                                ",
"                                                                                                                                ",
"                                                                                                                                ",
"                                                                                                                                ",
"                                                                                                                                ",
"                                                                                                                                ",
"                                                                                                                                ",
"                                                                                                                                ",
"                                                                                                                                ",
"                                                                                                                                ",
"                                                                                                                                ",
"                                                                                                                                ",
"                                          . . . . . . . . . . . . . . . . . . . . . .                                           ",
"                                        . . . . . . . . . . . . . . . . . . . . . . . .                                         ",
"                                        O O O O O O + + + + + + + + + + + + O O O O O O                                         ",
"                                      + # % % & = * = - = = = = = = = = = = = * * % % @ +                                       ",
"                          . . . . . X @ = : , 1 2 2 2 3 2 2 2 2 2 2 2 2 2 2 2 2 > > > & @ o . . . . .                           ",
"                        . . . . . . o % : 3 6 8 9 0 0 0 0 0 0 r q q q r 0 0 0 0 0 6 2 > % O . . . . . .                         ",
"                        O O o o o o @ = 1 6 0 e r u u u t u u u t t u u t t u u e 0 6 1 - @ O X o o O o                         ",
"                      + @ % % % % % = , 5 0 e t a u u C u u u u u u u u u u u u t e 0 5 > = % $ % % % # +                       ",
"                  . X @ = ; > > > > 1 5 9 q r t u u a a a a x x u u u u u u u u t r w 9 5 1 > > > > ; = # X .                   ",
"                . . o % > 3 5 6 6 6 8 9 q r t t u u u u u u u u u u u u u u u u t t r q 9 8 6 6 6 6 2 > $ O . .                 ",
"                X O @ - 1 6 0 0 9 0 0 e r t u u t u u u u u t u u u u u u u u u u t r r q 0 9 0 0 0 6 1 - @ O X                 ",
"              O @ $ = > 4 0 e e r w e e r t t t u u u u u u u u u u u u u u u u u t r r r q r r e e 9 5 > - $ @ +               ",
"          . X @ & : < 5 9 w r r r r r r r t t t u t u u u t u u u u u u u u u u u u u u u t r r r r w 9 5 < : * @ X .           ",
"        . . o % : 3 6 0 w e t t r t r r u u u u u u u u u u u t u u u u u u u u u u u u t u t t r r r w 0 6 3 : % o . .         ",
"        X O @ - > 6 0 e r t u a u u u u C C u u u u u u u t u u u u u u u u u u u u u u u u u u t t t r e 0 6 < = @ o X         ",
"      + @ $ - > 5 0 e r t u u C R R ! _ ! ! _ F D u t u u u t u u u u u u u u u u u u u u u u u u u t t r e 0 4 , = % @ +       ",
". . o @ * : < 4 9 e r r t t a D _ } %.%.%.X. .! J x u t t t u t u u u u u u u u u u u u u u u u u u u u u r q 9 5 < : = # o . . ",
". . o % : 3 6 0 q r u u t t x I } *.3.3.1.-.%. .L x u t t u u u u u u u u u u u u u u u u u u u u u u u u u r q 0 6 3 : % o . . ",
". . O % , 6 0 e r t t u u C J _ %.3.3.7.3.1.*. .L x u t t t u t u u u u u u u u u u u u u u u u u u u u u u t r e 0 6 > % O . . ",
". . O * 1 8 e t t u u C J R _ +.-.3.7.3.1.%. .! J x u u u u u u u u u u u u u u u u u u u u u V u u u u u u u u r e 8 1 * O . . ",
". . O * > 0 t u u u a H ( ....=.4.8.4.4.+.) E A a g u u u u u i u u t u u u u u r t a a a a N N g g g g u u u u u t 9 2 % O . . ",
". . + = 2 0 t u u i N Y } ..4.4.4.4.;.#.) I n p i i u u u u u t u u t t t u u u i i t t t t t t u t t u t t u u u u 0 2 = O . . ",
". . + = 2 q u u u u l Y } &.4.4.4.=.O.) I p t t t t t t r t t t t t t r t r t t i i i e q q q 0 0 0 q q r t u C u u w 3 = + . . ",
". . + = 2 q u V u g l H ( | ......' ^ P l t r r r r t r t r i i t r r r r r r r i e e 0 8 5 4 2 2 2 6 8 q r u u V u q 3 = + . . ",
". . + - 3 0 t u u u N A H Y Q Y I m m i i e e e e r r r i e e e e r e e w r e r e e 0 6 1 : - * & - : 2 8 e u C u u 0 2 = + . . ",
". . + = 2 0 u u N u u a a a a l i r r e e w w e q q q q w 0 e e w w w w w w 0 w e e 9 3 ; $ o o o O % : 5 q u V V t 0 2 = + . . ",
". . + = 2 q u u u r u u i i i e e w 0 0 q 0 0 0 9 8 8 7 7 7 9 9 0 0 w q q q 0 e e 0 7 < * o . . . . O = 3 0 r C V u 0 3 = + . . ",
". . + = 2 q u u u r r r i e e e e 0 0 0 0 0 9 8 4 2 < , < < 2 4 6 9 0 q q q 0 e e 0 7 < % X . . . . o % 2 9 r u V u q 3 = + . . ",
". . + = 3 0 r u i e e e e e e e 0 0 0 0 e 0 9 5 < - & % % & - < 5 8 w w e 0 e e e 0 7 , % X X . . . X & 1 9 e u u u 0 2 = + . . ",
". . + = 3 0 r u i e 0 e e e e e e 0 0 e e 0 7 2 - # o X X o @ - 2 8 w e e 0 0 e e 0 7 < & o . . . . o * 1 8 w t u u 0 2 = + . . ",
". . O = 2 0 r t i 0 0 0 0 0 e 0 0 e 0 e e 0 7 1 & o . . . . + & < 7 w w e 0 0 e e 0 7 2 - $ o X X o # - 2 8 q t u r 0 2 = + . . ",
". . O = 1 0 e r e 0 e 0 0 0 0 0 0 0 q e e 0 7 < & X . . . . X & < 7 w w e 0 e 0 e e 9 5 < - * % % * - < 5 9 0 r u r 0 1 * + . . ",
". . + & < 9 e r e e 0 e 0 e 0 0 e 0 e 0 e 0 7 < & X . . . . X % < 7 w 0 0 0 0 e 0 0 0 7 5 2 1 < < < 2 4 6 0 0 e r q 9 1 * O . . ",
". . O & > 6 0 0 e e 0 0 0 0 e e 0 0 0 e e 0 7 < & o . . . . o * < 7 w e e e 0 e 0 e 0 9 9 7 7 7 7 7 9 9 0 0 0 q 0 0 6 < % O . . ",
". . O $ : 2 6 8 9 0 e 0 0 e 0 0 0 0 e e e 0 7 2 - $ X X X o $ - 2 9 w e e 0 0 0 0 0 0 0 0 0 0 0 0 0 0 0 q q 0 0 8 6 3 ; % O . . ",
". . X @ = > > 4 7 9 0 0 e 0 e 0 0 e 0 0 e e 9 5 < - & & & * - < 4 9 w w 0 0 e 0 e 0 e e e e e e e e e e q 0 9 6 4 1 : = @ o . . ",
"      + @ % = , 3 8 0 w w 0 0 0 0 0 0 w w 0 9 9 5 2 < < < < 2 5 7 0 0 e e 0 0 w 0 w 0 w w w q q e q q w q 0 9 4 > = % @ O       ",
"        X o @ = 1 6 9 0 0 0 0 0 0 0 q q w 0 0 0 9 9 7 7 7 7 7 9 9 0 0 e 0 0 e 0 w 0 w w q 0 q 0 0 0 0 0 0 9 6 1 = @ o X         ",
"        . . O % : 3 5 6 6 6 5 8 9 0 0 q q 0 w 0 0 w 0 w w 0 w e e 0 0 0 e 0 0 w 0 w w w q q 0 8 7 6 5 6 6 6 3 : % o . .         ",
"          . o $ * : , > > > 1 3 6 0 q w e e e e e r e e e r e e e e w e e e e e e w w w w q 0 6 3 < , , > > : = @ X .           ",
"              + # % % % $ % = > 4 8 q q e e e e e e e r e r e e e e e e e e q e e e e e q 0 9 4 , = % % % % % @ +               ",
"                o o o o o o @ - < 6 0 0 q 0 q 0 w e 0 0 0 0 0 0 0 0 0 0 0 0 0 0 0 w 0 0 0 0 6 1 = @ o o o o o o                 ",
"                . . . . . . o % > 3 5 7 7 7 7 7 7 7 7 7 7 7 7 7 7 7 7 7 7 7 7 7 7 7 7 7 6 6 3 > % o . . . . . .                 ",
"                  . . . . . X # = : , < < < < < < < < < < < < < < < < < < < < < < < < < < , ; = @ X . . . . .                   ",
"                              + # % & & & & & & & & & & & & & & & & * & & & & & * & & & & % % @ +                               ",
"                                o O o o o o O O o o o + + o o + o o o + o o o o O O O O O O O o                                 ",
"                                . . . . . . . . . . . . . . . . . . . . . . . . . . . . . . . .                                 ",
"                                  . . . . . . . . . . . . . . . . . . . . . . . . . . . . . .                                   ",
"                                                                                                                                ",
"                                                                                                                                ",
"                                                                                                                                ",
"                                                                                                                                "
};
