/* XPM */
static char *b79d2d90b0e04ebeee61baa06505f75aWPKZblmkSWvjc0an[] = {
/* columns rows colors chars-per-pixel */
"64 64 113 2 ",
"   c None",
".  c #000000",
"X  c #050B06",
"o  c #070F08",
"O  c #071009",
"+  c #08130A",
"@  c #0D1C0F",
"#  c #0E1E10",
"$  c #0F2011",
"%  c #112614",
"&  c #132A16",
"*  c #152E18",
"=  c #16311A",
"-  c #19361C",
";  c #1A381E",
":  c #1C3E21",
">  c #1F4324",
",  c #204625",
"<  c #224927",
"1  c #234C28",
"2  c #26542C",
"3  c #28572E",
"4  c #28582F",
"5  c #2A5C30",
"6  c #2E6435",
"7  c #306737",
"8  c #306937",
"9  c #316B39",
"0  c #36753E",
"q  c #37783F",
"w  c #377940",
"e  c #397C41",
"r  c #3C8446",
"t  c #3D8847",
"y  c #3F8748",
"u  c #3E8948",
"i  c #418E4B",
"p  c #408F4B",
"a  c #418F4B",
"s  c #408E4B",
"d  c #408D4A",
"f  c #428A4C",
"g  c #428E4C",
"h  c #428F4C",
"j  c #428F4D",
"k  c #438F4D",
"l  c #448D4D",
"z  c #458C4E",
"x  c #448D4E",
"c  c #468D4F",
"v  c #418B4A",
"b  c #41904C",
"n  c #42904C",
"m  c #43904D",
"M  c #44924E",
"N  c #478F50",
"B  c #488F51",
"V  c #469350",
"C  c #469451",
"Z  c #479451",
"A  c #479551",
"S  c #479651",
"D  c #489051",
"F  c #489552",
"G  c #489652",
"H  c #499653",
"J  c #4A9554",
"K  c #499754",
"L  c #4B9654",
"P  c #499854",
"I  c #4A9854",
"U  c #4A9955",
"Y  c #4B9955",
"T  c #4B9A55",
"R  c #4C9B56",
"E  c #4C9C57",
"W  c #4D9C57",
"Q  c #4D9D58",
"!  c #4F9C59",
"~  c #4F9E59",
"^  c #509D5A",
"/  c #50A05A",
"(  c #51A05B",
")  c #52A05C",
"_  c #53A15D",
"`  c #51A25C",
"'  c #52A25C",
"]  c #52A35C",
"[  c #54A25E",
"{  c #55A25F",
"}  c #53A45D",
"|  c #53A45E",
" . c #53A55E",
".. c #55A760",
"X. c #56A861",
"o. c #57A962",
"O. c #58A962",
"+. c #58A963",
"@. c #58AB63",
"#. c #59AB64",
"$. c #59AC64",
"%. c #5CAE67",
"&. c #5CB067",
"*. c #5DB168",
"=. c #5EB168",
"-. c #5EB169",
";. c #5EB269",
":. c #5FB36A",
">. c #61B56C",
",. c #61B66C",
"<. c #62B76D",
"1. c #62B86E",
"2. c #63B86E",
/* pixels */
"                                                                                                                                ",
"                                                                                                                                ",
"                                                                                                                                ",
"                                                                                                                                ",
"                                                                                                                                ",
"                                                                                                                                ",
"                                                                                                                                ",
"                                                                                                                                ",
"                                                                                                                                ",
"                                                                                                                                ",
"                                                                                                                                ",
"                                                                                                                                ",
"                                                                                                                                ",
"                                                                                                                                ",
"                                                                                                                                ",
"                                                                                                                                ",
"                                          . . . . . . . . . . . . . . . . . . . . . .                                           ",
"                                        . . . . . . . . . . . . . . . . . . . . . . . .                                         ",
"                                        o o O O O + + + + + + + + + + + + + + O O O o o                                         ",
"                                      + @ % & * * = = = = = = = = = = = = = = = & & % $ +                                       ",
"                          . . . . . X @ = ; < 1 1 2 2 2 2 2 2 2 2 2 2 2 2 2 2 > 1 > : = @ o . . . . .                           ",
"                        . . . . . . o & > 2 6 8 0 0 0 0 q 0 q q 0 q 0 0 w e 0 0 9 6 2 > % O . . . . . .                         ",
"                        o O O o o o @ = > 6 0 e u u u u u u u u u u u u u u t r e 0 6 1 - @ X o o O O o                         ",
"                      + @ % % $ % % = > 6 0 r r u u M u u u u b M u u u u u u u r e 0 5 > = % $ % % % @ +                       ",
"                  . X @ * : > > > > 1 5 8 q r t u u u u u u b u u u u M u u u u u r w 8 5 1 > > > > : * @ X .                   ",
"                . . o % > 2 6 6 6 5 8 9 0 r t t u u u u u u u u u u u u u u u u t t r q 9 6 6 6 6 6 2 : % o . .                 ",
"                X O @ = 1 6 0 0 0 0 0 w r r u u u u u u u u u u u u u u u u u u u u r r e 0 9 0 0 0 6 1 = # O X                 ",
"              o @ % = , 4 0 q e q e e r r r t u u u u u u u u u u u u u u u u u u t t t r r r e e w 0 5 , = $ @ +               ",
"          . X @ & : < 5 9 q r r r r r r r r u u u u u u u u u u u u u u u u u u u u u t r r r r t r 0 9 4 1 > * @ X .           ",
"        . . o % : 2 6 0 q r t u t t t t t t u u u u u u u u u u u u u u u u u u u u u u t t t u t t r w 0 6 2 : % o . .         ",
"        X o @ = 1 6 0 e r r u u u u M M M j j s u u u u u u u u u u u u u u u u u u u u t u u u u u r r e 0 6 1 * @ o X         ",
"      + # % = , 5 0 e r r t u M C P E E E E P C C u u u u u u u u u u u u u u u u u u u u u b u M u u u t e 0 4 , = % # +       ",
". . o @ * : 1 4 8 q r r r t l D E  .X.X.X.X. .Q M d u t u u u u u u u u u u u u u u t d d d u b b d d u t r w 8 5 1 > * # o . . ",
". . O % : 2 6 0 q r r t t v l L / $.=.:.>.=.@.' I b u t r u u u u u u u u u u u u u u u u t u u u u u u t t r w 0 6 2 > $ O . . ",
". . O % > 6 q e r t v v d n L ^ X.:.>.>.>.=.#.' I b u u u u u u u u u u u u u u t t v r q q q q q q q r r r u u e w 6 > & O . . ",
". . O * 1 9 e t t u d n A T ^ { &.1.1.>.=.@. .W G m b u u u d u u u u u u u u u v t r q 8 5 4 2 2 2 4 8 w r u u u e 8 > & O . . ",
". . + * 1 0 r u u d d A ! ^ %.=.>.1.,.&.../ T G m b s s d d d v u u u t u u u u v v q 9 2 : - * * = : 2 8 e u u u r 9 2 * + . . ",
". . O = 1 0 r u u u s I { +.=.>.1.>.:.X.^ G j v s u t u v v t u u u t t u u u u v v q 4 : $ + o o + $ : 5 w u u M r 0 2 * + . . ",
". . + = 2 q t d t v d A { +.%.>.=.=.@./ G s r e q q 0 0 0 0 q e r r r t t t u u v e 0 3 = + . . . . + = 2 0 r M u u 0 2 = + . . ",
". . + = 2 q t d r r v l B ^ { { { ^ ^ G s u q 0 8 4 3 2 2 4 5 7 0 e r r r t t u v v 9 1 & X . . . . X & 2 0 r u M u w 2 = + . . ",
". . + = 2 q u u y e e y z c B B B N z z e e w 6 1 : = & * = : 1 6 0 e r y e e y y e 9 1 % X X . . . X & 1 9 e v u u 0 2 = + . . ",
". . + = 2 q r u y e e e e e e y e r v e e e 7 2 ; $ + o o + $ - 2 8 0 e e q q e q q 9 1 * o . . . . o & 1 9 w t u u 0 2 = + . . ",
". . + = 1 0 r t e e 0 0 0 0 e 0 w w 0 e w w 7 1 & o . . . . o & 1 8 0 e q q q q q q 9 2 - $ o X X o # - 2 7 w t u r 0 2 = + . . ",
". . + * 2 0 e r y e 0 0 0 0 0 0 0 0 0 w w w 7 , % o . . . . X & > 6 0 e q q q q q q 9 4 , - * % % * - , 5 9 w r t r 9 2 * + . . ",
". . O & < 9 e r e e 0 0 0 0 0 0 0 0 0 e w w 6 , % X . . . . X % 1 6 0 e w w 0 w q q 9 7 5 2 < < < 1 2 4 6 0 0 e r q 9 1 * o . . ",
". . O * > 6 0 0 0 0 0 e e 0 0 e 0 q q e w w 7 < & o . . . . o & 1 8 w w w w w 0 q q 0 0 9 7 7 7 7 7 9 9 0 0 0 q 0 0 6 > & o . . ",
". . O $ > 2 6 8 9 0 0 0 0 0 0 0 0 q q q q w 9 2 - # o X o + # - 2 7 w w w w 0 w q q 0 0 e 0 0 0 0 0 0 0 q 0 0 0 9 6 2 > % o . . ",
". . o @ * > > 2 7 0 0 e e q 0 e 0 q q q q w 9 4 < - & & % & - < 5 9 0 w w w w 0 q q q e e e e e e e e e q q 9 8 2 < : * @ o . . ",
"      + @ % * , 3 9 0 w w 0 0 0 0 0 q w w 0 9 7 5 2 1 < < < 2 5 6 w 0 e q q q q w 0 w w w w w q e 0 q e w 0 9 2 > = % @ +       ",
"        X o # = 1 6 9 0 0 0 0 0 0 0 q q 0 w 0 0 9 9 7 7 6 7 7 9 9 0 0 q q q q q 0 q q 0 w q 0 0 0 0 9 0 0 9 6 1 = # o X         ",
"        . . o & : 2 5 6 6 6 6 6 9 0 0 q e 0 0 0 w w w w w w q q 0 e 0 q q q q q w q w w q 0 0 8 7 7 7 7 6 6 2 : % O . .         ",
"          . X $ * : , , > > 1 2 6 0 0 w e e e e e e e e y e e e e e q e e e e e w w w e w w 0 6 3 < , : > , : = @ X .           ",
"              + # % % % $ % = > 4 9 q w e e e e e e e e e e e e e e e e q e q q e q e e q 0 9 4 , * % % % % % @ +               ",
"                o o o o o o @ - < 6 0 0 q 0 w 0 q q w w q q w w 0 0 0 0 0 0 q q w 0 w q 0 0 6 1 = @ o o o + o o                 ",
"                . . . . . . o % : 3 6 7 7 7 7 6 9 7 7 7 9 7 7 7 7 7 7 7 7 7 7 7 7 7 7 7 6 6 2 > % o . . . . . .                 ",
"                  . . . . . X # * : , , < < < < < < < < < < < < < < < < < < < < < < < < < > : = # X . . . . .                   ",
"                              + # % % & & & & & & & & & & & & & & & & & & & & & & & & & & % % @ +                               ",
"                                o + o o + o o + + o o + + o o + o o + + o o o + O + + O O o O o                                 ",
"                                . . . . . . . . . . . . . . . . X . . . . . . . . . . . . . . .                                 ",
"                                  . . . . . . . . . . . . . . . . . . . . . . . . . . . . . .                                   ",
"                                                                                                                                ",
"                                                                                                                                ",
"                                                                                                                                ",
"                                                                                                                                "
};
