/* XPM */
static char *f12709a1af0d43e596bef1e8791e358bkUS7Nk1Jvhx8WDs3[] = {
/* columns rows colors chars-per-pixel */
"64 64 120 2 ",
"   c None",
".  c #000000",
"X  c #050B06",
"o  c #070F08",
"O  c #071009",
"+  c #08130A",
"@  c #0D1C0F",
"#  c #0E1E10",
"$  c #0F2011",
"%  c #112614",
"&  c #132A16",
"*  c #152E18",
"=  c #16311A",
"-  c #19361C",
";  c #1A391E",
":  c #1C3E21",
">  c #1F4324",
",  c #204625",
"<  c #224927",
"1  c #234C28",
"2  c #26542C",
"3  c #28572E",
"4  c #28582F",
"5  c #2A5C30",
"6  c #2E6435",
"7  c #306737",
"8  c #306937",
"9  c #316B39",
"0  c #36763E",
"q  c #37783F",
"w  c #377940",
"e  c #397B41",
"r  c #3C8446",
"t  c #3D8847",
"y  c #3F8648",
"u  c #3E8948",
"i  c #408D4A",
"p  c #418C4B",
"a  c #418D4B",
"s  c #408C4A",
"d  c #408E4A",
"f  c #408E4B",
"g  c #418E4B",
"h  c #408F4B",
"j  c #418F4B",
"k  c #428D4C",
"l  c #418E4C",
"z  c #428E4C",
"x  c #428F4C",
"c  c #428F4D",
"v  c #438F4D",
"b  c #448D4D",
"n  c #458C4E",
"m  c #408B4A",
"M  c #41904C",
"N  c #42904C",
"B  c #42914C",
"V  c #43904D",
"C  c #42924D",
"Z  c #44914E",
"A  c #44924E",
"S  c #479051",
"D  c #469350",
"F  c #469451",
"G  c #479451",
"H  c #479551",
"J  c #479651",
"K  c #479652",
"L  c #4A9453",
"P  c #4A9553",
"I  c #489652",
"U  c #499653",
"Y  c #499754",
"T  c #499854",
"R  c #4A9854",
"E  c #4B9855",
"W  c #4A9955",
"Q  c #4B9A55",
"!  c #4C9A56",
"~  c #4C9B56",
"^  c #4C9C57",
"/  c #4D9C57",
"(  c #4D9D58",
")  c #4E9D58",
"_  c #4F9C59",
"`  c #4F9E59",
"'  c #4F9F5A",
"]  c #50A05A",
"[  c #51A05B",
"{  c #53A15D",
"}  c #52A25C",
"|  c #52A35C",
" . c #53A45D",
".. c #53A45E",
"X. c #53A55E",
"o. c #55A55F",
"O. c #55A760",
"+. c #56A760",
"@. c #56A761",
"#. c #56A861",
"$. c #57A962",
"%. c #58A963",
"&. c #58AA63",
"*. c #58AB63",
"=. c #59AB64",
"-. c #59AC64",
";. c #5CAF67",
":. c #5CB067",
">. c #5DB068",
",. c #5DB168",
"<. c #5EB168",
"1. c #5EB169",
"2. c #5EB269",
"3. c #5FB269",
"4. c #5FB36A",
"5. c #61B56C",
"6. c #61B66C",
"7. c #62B76D",
"8. c #62B86E",
"9. c #63B86E",
/* pixels */
"                                                                                                                                ",
"                                                                                                                                ",
"                                                                                                                                ",
"                                                                                                                                ",
"                                                                                                                                ",
"                                                                                                                                ",
"                                                                                                                                ",
"                                                                                                                                ",
"                                                                                                                                ",
"                                                                                                                                ",
"                                                                                                                                ",
"                                                                                                                                ",
"                                          . . . . . . . . . . . . . . . . . . . . . .                                           ",
"                                        . . . . . . . . . . . . . . . . . . . . . . . .                                         ",
"                                        O O O O + + + + + + + + + + + + + + O O O o o o                                         ",
"                                      + @ % % * * = = = = = = = = = = = = = = * * & % @ +                                       ",
"                          . . . . . X @ = : , 1 > 2 2 2 2 2 2 2 2 2 2 2 2 2 2 2 1 > : * # X . . . . .                           ",
"                        . . . . . . O % : 3 6 8 0 0 q q q q w e 0 w w r q 0 0 9 8 6 2 > % O . . . . . .                         ",
"                        o o o o o o @ = 1 6 0 e t u u u t u u u t t u u t t t r e e 6 1 = # O X o o O o                         ",
"                      + # % % % % % = , 5 0 e t u u C u u u u u u u u u u u F u t e 0 5 > = & % % % % # +                       ",
"                  . X @ = ; > > > > 1 5 9 q r t u u u C u C u u u u u u u u u u u r e 9 5 > > > > > ; = # X .                   ",
"                . . o % > 2 5 6 6 6 8 9 q r t t u u u u u u u u u u u u u u u u u t e w 9 6 6 6 6 6 2 : $ O . .                 ",
"                X o # = 1 6 0 0 9 0 q e r r u u u u u u u u u u u u u u u u u u t t t r w w 9 0 0 0 6 < = # O X                 ",
"              O @ % = > 4 0 e e r w e e r t t u u u u u u u u u u u u u u t u u u t t r r e r r e e 0 4 < = % @ O               ",
"          . X @ & : 1 5 9 e r r r r r r r t t t u u u u u u u u u u u u u u u u u u u t t r t t r r e 9 5 1 : & @ X .           ",
"        . . o % : 2 6 0 q e t t r r r r u u u u t u t u u u u u u u u u u u u u u u u t t t u u r r r e 0 6 2 : % o . .         ",
"        X o $ = < 6 0 e r t u m u u u u C C u u u u u u u u u u u u u u u u u u u u u u t u u u u t t r e 0 6 1 = @ o X         ",
"      + @ % = > 4 0 e r t u u C W W ( ] ( ( ( K D u u u u u u u u u u u u u u u u u u u u u u u u u u u t e 0 5 > = % @ +       ",
". . X @ * : 1 4 9 q r r t t s D ' X.#.*.#.#.| ( F x u t t u u u u u u u u u u u u u u u u u u u C u C u u r e 9 5 1 : * # o . . ",
". . o % : 3 6 0 q r u u t u x W X.-.4.4.4.,.*.| U x u u t u u u u u u u u u u u u t u u u u u t u u u u t t e e 0 6 2 : % o . . ",
". . O & , 6 0 e r r u u u C F ` #.4.4.8.4.,.-.X.U x u u t u u u u u u u u u u u u t r r t e q 0 0 w e r r r t r e 0 6 , & O . . ",
". . O * 1 8 e t t u u C F W ' #.:.4.4.8.4.*.X.( U C u u u u u u u u u u u u u u t t r w 9 5 2 2 2 2 5 9 0 r u u u e 8 1 & O . . ",
". . + * 2 9 t u t m s G ` o.o.;.6.9.6.>.#.] W I N j d i m m m m u u t t u u u u m m q 8 2 : = * * = : 2 9 r u u u t 9 2 * O . . ",
". . + * 2 0 t u u m N P | o.5.5.9.6.>.#.` I x m d t t t m m m m u u t t u u u u m y 0 5 : $ + o X + $ : 4 q u B s t 0 2 * O . . ",
". . + * 2 0 u u m u z R | =.5.5.>.>.%.[ I x r e q q q 0 9 q e e r r r r t t u u m y 0 2 = + . . . . + = 2 q u B B u 0 2 = + . . ",
". . + * 2 0 u B u u z G `  .o.o.O.{ _ L n r e 0 8 4 3 2 2 3 5 7 0 r r r r r r t m y 9 2 & X . . . . X * 2 0 u B C u q 2 = + . . ",
". . + = 2 q u u d d d N S P ! P I S n n m e 0 5 1 ; - * = = : 1 5 0 e r r e r r y e 9 1 & X . . . . X * 2 0 t B C t q 2 = + . . ",
". . + = 2 q u u u u m s m m b m m e r e e e 8 2 ; $ + X o + $ - 2 9 e e w w w w e e 7 1 * + . X . . + = 3 0 m N C t q 2 = + . . ",
". . + = 2 0 u s u r t t m m y y e w w w e 0 7 1 * O . . . . o & 1 7 0 e e w w w e 0 7 2 - $ o X X o $ : 4 0 t s u u 0 2 = + . . ",
". . + = 2 0 u u u r r r y e e e w 0 w w q 0 7 , % X . . . . X % 1 6 0 e w 0 w w e 0 9 5 , - * % % * ; < 7 0 r m u u q 2 = + . . ",
". . + = 4 q r u y e e e e e e e w 0 0 w e 0 7 , % X . . . . X % > 6 w e e 0 0 0 e 0 0 7 5 2 < < < 1 2 5 8 0 e t u u 0 2 = + . . ",
". . + = 2 0 r u y e e 0 e e 0 e q 0 q w e 0 7 < & o . . . . o * 1 7 w e e 0 0 e 0 0 0 9 9 7 7 7 7 7 7 9 0 w e r u u 0 2 = O . . ",
". . + = 2 0 r r y 0 e 0 0 0 0 0 q 0 w w e 0 7 2 - # o X o o $ - 2 7 0 e e 0 0 e 0 e 0 e 0 0 0 0 0 w 0 w 0 0 e r u r 0 2 = + . . ",
". . + * 2 9 r r e e 0 0 0 e 0 e 0 w 0 w e e 9 5 < - & % & & - , 5 9 w w e 0 0 0 0 0 0 e e e e e e w e e w 0 e e r r 9 2 = O . . ",
". . o * < 8 e r e e 0 0 0 e 0 e 0 0 0 e e 0 0 7 5 2 < < < < 2 5 7 9 w w w 0 0 0 e 0 0 e 0 e e e e e w w q q q e e q 9 1 & O . . ",
". . o * > 6 0 0 0 0 0 0 0 0 0 0 e e 0 0 0 0 0 9 9 7 7 7 7 7 7 9 0 w 0 0 0 w e 0 e 0 e 0 0 0 0 e w 0 0 w 0 q 0 e q 0 6 > & O . . ",
". . O $ ; 4 6 8 0 0 0 0 0 e 0 0 0 0 0 0 0 0 0 0 0 e 0 e 0 0 0 0 0 0 0 w 0 w 0 0 0 0 e 0 0 0 0 0 0 e w 0 q 0 0 0 9 6 2 > % o . . ",
". . o # = > > 2 7 9 0 e e 0 e 0 0 e 0 e 0 0 e e e e e e e e e 0 w w w 0 w 0 0 0 0 0 0 0 e 0 e 0 0 0 0 e q 0 9 6 4 1 : * @ o . . ",
"      + @ % = , 3 8 0 e e 0 0 0 0 0 0 0 e 0 0 e w e w e e e w e w w w 0 q q q q 0 0 0 q q 0 0 0 0 0 0 0 q 0 9 3 , = % @ O       ",
"        X o @ = 1 6 9 0 0 9 0 0 0 0 0 q 0 0 0 w 0 w q q q q 0 w 0 0 0 w q q q 0 w 0 e 0 q 0 0 0 0 0 9 0 0 9 7 < = @ o X         ",
"        . . O % : 3 5 6 6 6 6 6 8 0 0 0 e 0 0 0 q w q q w q q w w 0 w w q q 0 0 0 q 0 0 q 0 0 8 7 6 6 6 6 5 3 : % o . .         ",
"          . X $ * : , , > > 1 2 6 0 q e e e e e w w e w e w e w e e w e w w e e e e e e e q 0 6 3 < > > , , : = @ X .           ",
"              + # % % % $ % = > 4 9 q q e e e e e e e e e e e e e e e e e e e e e e e e e q 9 4 , = % % % % % $ +               ",
"                o o o o o o @ - < 6 0 0 q 0 0 0 0 w 0 q 0 0 0 0 0 0 0 0 0 0 0 0 0 w 0 q 0 9 6 1 = @ o o o o o o                 ",
"                . . . . . . o $ > 2 6 7 7 7 8 7 7 7 7 7 7 7 7 7 7 7 7 7 7 7 7 7 7 7 7 7 7 6 2 > % o . . . . . .                 ",
"                  . . . . . X $ = ; , , < < < < < < < < < < < < < < < < < < < < < < < < < , ; = $ X . . . . .                   ",
"                              + $ % % & & & & & & & & & & & % * & & * % * * % * = & & & & % % $ +                               ",
"                                o O o O o o O O O O O O o + o + o o o + o o o o O O o O O o o o                                 ",
"                                . . . . . . . . . . . . . . . . . . . . . . . . . . . . . . . .                                 ",
"                                  . . . . . . . . . . . . . . . . . . . . . . . . . . . . . .                                   ",
"                                                                                                                                ",
"                                                                                                                                ",
"                                                                                                                                ",
"                                                                                                                                "
};
