/* XPM */
static char *b96ce1b61e0648729985ff00a1e947c3xVgEuKVeXoC7iB1Z[] = {
/* columns rows colors chars-per-pixel */
"64 64 53 1 ",
"  c None",
". c #000000",
"X c #050B06",
"o c #070F08",
"O c #071009",
"+ c #08130A",
"@ c #0D1C0F",
"# c #0E1E10",
"$ c #0F2011",
"% c #112614",
"& c #132A16",
"* c #152E18",
"= c #16311A",
"- c #19361C",
"; c #1A381E",
": c #1C3E21",
"> c #1F4324",
", c #204625",
"< c #224927",
"1 c #234C28",
"2 c #26542C",
"3 c #28572E",
"4 c #28582F",
"5 c #2A5C30",
"6 c #2E6435",
"7 c #306737",
"8 c #306937",
"9 c #316B39",
"0 c #36753E",
"q c #37783F",
"w c #377940",
"e c #397C41",
"r c #3C8446",
"t c #3D8847",
"y c #3F8748",
"u c #3E8948",
"i c #418D4B",
"p c #42904D",
"a c #478F50",
"s c #488F51",
"d c #479551",
"f c #499553",
"g c #4B9A55",
"h c #4E9D59",
"j c #509D5A",
"k c #52A25C",
"l c #55A760",
"z c #57A962",
"x c #59AB64",
"c c #5CB067",
"v c #5EB269",
"b c #61B66C",
"n c #63B86E",
/* pixels */
"                                                                ",
"                                                                ",
"                                                                ",
"                                                                ",
"                                                                ",
"                                                                ",
"                                                                ",
"                                                                ",
"                                                                ",
"                                                                ",
"                                                                ",
"                                                                ",
"                                                                ",
"                                                                ",
"                                                                ",
"                                                                ",
"                     ......................                     ",
"                    ........................                    ",
"                    ooOO+++++++++++++++OOOOO                    ",
"                   +@%&*&==============&&&%$+                   ",
"             .....X@=;<122222234222232221>>*@X.....             ",
"            ......o&>2680w00q0qq0q00qe09962>%O......            ",
"            ooOOoo#=160euuuuttuuuutuuutre061-@OXoooo            ",
"           +@%&$%%=>50etuuuuuudupuuuuuuure05>=%%%&%@+           ",
"         .X@*;>>>>158qruuuuuuuuuupuuduuuurq941>>>>:*@X.         ",
"        ..o%>26665890rruuuuuuuuuuuuuuuuuutr09646662:%o..        ",
"        XO@=>800000erruuuuuutuuuuuuuuuuuuurrr0000061=#oX        ",
"       o@%=,30qreqerruuuuuuuuuuuuuuuuuuuuuttrewrew05,=%@+       ",
"     .X@&:<59qrrrrrrrtuuuuuuuuuuuuuuuuuuuuutrrrttr0941>&@X.     ",
"    ..o%:260qrtutruuutuuuuuuuuuuuuuuuuuuuuuutttuttrw062:%o..    ",
"    Xo@=160erruuuupuupuuuuuuuuuuuuuuuuuuuuuuuuuuuurre061*@oX    ",
"   +#%=,50errtupdghhhhhdduuuuuuuuuuuuuuuuuuuuuuupiutte04,=%#+   ",
"..X#*:1490rreissglzxzzkhdittttituuuuuuuuririiiiiiiiuurw941>=@X..",
"..O%:260qrrriiaskxvvvvxkfputttttuuuuuuuuirirtrttuuuuuurq063>$O..",
"..O%>60qrtiiiisjzvnnvvxkgpttttttuuuuuuuuireiqqq000qrrruue06>&O..",
"..+&19rtriiisfjzvvnvvxkhdpitiiituuuuuuuuriiq85422358eruute9>&+..",
"..+*19rtiiidjzxvvnnczjhgppiuiiiiuuuuuuuuiiq72:=**=>28euuur92*O..",
"..O=20tuttidjxvbnncxjduuiuuttittuuuuuuuuii05:%+oX+$:5qupur02=O..",
"..+=20rriiifkxvvvcxkdireeqq0000errrttruuie02*+....+=20tupu02=+..",
"..+=20iirriisjjzkkjdire0653234570errrrruir92&X....o&29rupuq3=+..",
"..+=2qtuyeeyssssdpsiie961:***=:160qreeriee91%XX...X&19eiuu03=+..",
"..+=2qtuyeeeeeeyerreew92;#+Xo+$;28qqewweeq91*o....o&17etuu03=+..",
"..+=20rtyq000000ew0www7<&+....+&>80rwwqweq92-#oXXo#-27qtur03=+..",
"..+*29eree000000000eww7<&X....X%160qwqqwe094<-*%%*-,59qrur0>*+..",
"..O&<9eree00000000qqww6>%X....X%>80ee00wq007321<<124600erq91&O..",
"..O&>600q00eqqqqq0qeew7<*X....o*180eeww0qqq997777799000q006,&O..",
"..o$:2680000q0qq0eqqeq72-#oXX+#-290eew0wq0qqq0000000qq00962:%O..",
"..o@=:1279qeqqqq00qqqq94<-&&%*-<590e00w0qqqqeeeeeeeeqq963<:=@O..",
"   +@%=,390eqq0q00qee007521<,<24700eww0q0w0eeewqe0qew093>=%@+   ",
"    XO@=<6900900000qq0w997777799900000wqw0w00q0000900961=@oX    ",
"    ..O$:266666690q0q00w0w0w0ww0eqwww00w0w0qq0097676662:%o..    ",
"     .X@=:>>>>12600eeeeeereereereeweeweweeeee0063,,,>,:=@X.     ",
"       @#%%%$&=>490qeeeeeeereeeeeeeeeeeeeeeeq093,*%%%%%@+       ",
"        oooooo#=1600q0q0www0ww00q0q00000000q0061=@ooo+oo        ",
"        ......o%>266777777777777777777777777662>%o......        ",
"         .....X#=;,<<<<<<<<<<<<<<<<,<<<<<<<<<>:=#X.....         ",
"               +@%%&&&&&&&&&&&&&&&&&&&&&&&&&&%%@+               ",
"                o+ooooO++oo+oo++oo++++ooO++OOoOo                ",
"                ................................                ",
"                 ..............................                 ",
"                                                                ",
"                                                                ",
"                                                                ",
"                                                                "
};
