/* XPM */
static char *_e6211addcd44bf2acf6c82126339a05AURjvWVUye0qRksy[] = {
/* columns rows colors chars-per-pixel */
"64 64 256 2 ",
"   c black",
".  c #010101",
"X  c #020202",
"o  c gray1",
"O  c #040404",
"+  c gray2",
"@  c #060606",
"#  c #070707",
"$  c gray3",
"%  c #090909",
"&  c gray4",
"*  c #0B0B0B",
"=  c #0C0C0C",
"-  c gray5",
";  c #0E0E0E",
":  c gray6",
">  c #101010",
",  c #111111",
"<  c gray7",
"1  c #131313",
"2  c gray8",
"3  c #151515",
"4  c #161616",
"5  c gray9",
"6  c #181818",
"7  c #191919",
"8  c gray10",
"9  c #1B1B1B",
"0  c gray11",
"q  c #1D1D1D",
"w  c #1E1E1E",
"e  c gray12",
"r  c #202020",
"t  c gray13",
"y  c #222222",
"u  c #232323",
"i  c gray14",
"p  c #252525",
"a  c gray15",
"s  c #272727",
"d  c #282828",
"f  c gray16",
"g  c #2A2A2A",
"h  c gray17",
"j  c #2C2C2C",
"k  c #2D2D2D",
"l  c gray18",
"z  c #2F2F2F",
"x  c gray19",
"c  c #313131",
"v  c #323232",
"b  c gray20",
"n  c #343434",
"m  c #353535",
"M  c gray21",
"N  c #373737",
"B  c gray22",
"V  c #393939",
"C  c #3A3A3A",
"Z  c gray23",
"A  c #3C3C3C",
"S  c gray24",
"D  c #3E3E3E",
"F  c #3F3F3F",
"G  c gray25",
"H  c #414141",
"J  c gray26",
"K  c #434343",
"L  c #444444",
"P  c gray27",
"I  c #464646",
"U  c gray28",
"Y  c #484848",
"T  c #494949",
"R  c gray29",
"E  c #4B4B4B",
"W  c #4C4C4C",
"Q  c gray30",
"!  c #4E4E4E",
"~  c gray31",
"^  c #505050",
"/  c #515151",
"(  c gray32",
")  c #535353",
"_  c gray33",
"`  c #555555",
"'  c #565656",
"]  c gray34",
"[  c #585858",
"{  c gray35",
"}  c #5A5A5A",
"|  c #5B5B5B",
" . c gray36",
".. c #5D5D5D",
"X. c gray37",
"o. c #5F5F5F",
"O. c #606060",
"+. c gray38",
"@. c #626262",
"#. c gray39",
"$. c #646464",
"%. c #656565",
"&. c gray40",
"*. c #676767",
"=. c #686868",
"-. c DimGray",
";. c #6A6A6A",
":. c gray42",
">. c #6C6C6C",
",. c #6D6D6D",
"<. c gray43",
"1. c #6F6F6F",
"2. c gray44",
"3. c #717171",
"4. c #727272",
"5. c gray45",
"6. c #747474",
"7. c gray46",
"8. c #767676",
"9. c #777777",
"0. c gray47",
"q. c #797979",
"w. c gray48",
"e. c #7B7B7B",
"r. c #7C7C7C",
"t. c gray49",
"y. c #7E7E7E",
"u. c gray50",
"i. c #808080",
"p. c #818181",
"a. c gray51",
"s. c #838383",
"d. c #848484",
"f. c gray52",
"g. c #868686",
"h. c gray53",
"j. c #888888",
"k. c #898989",
"l. c gray54",
"z. c #8B8B8B",
"x. c gray55",
"c. c #8D8D8D",
"v. c #8E8E8E",
"b. c gray56",
"n. c #909090",
"m. c gray57",
"M. c #929292",
"N. c #939393",
"B. c gray58",
"V. c #959595",
"C. c gray59",
"Z. c #979797",
"A. c #989898",
"S. c gray60",
"D. c #9A9A9A",
"F. c #9B9B9B",
"G. c gray61",
"H. c #9D9D9D",
"J. c gray62",
"K. c #9F9F9F",
"L. c #A0A0A0",
"P. c gray63",
"I. c #A2A2A2",
"U. c gray64",
"Y. c #A4A4A4",
"T. c #A5A5A5",
"R. c gray65",
"E. c #A7A7A7",
"W. c gray66",
"Q. c #A9A9A9",
"!. c #AAAAAA",
"~. c gray67",
"^. c #ACACAC",
"/. c gray68",
"(. c #AEAEAE",
"). c #AFAFAF",
"_. c gray69",
"`. c #B1B1B1",
"'. c #B2B2B2",
"]. c gray70",
"[. c #B4B4B4",
"{. c gray71",
"}. c #B6B6B6",
"|. c #B7B7B7",
" X c gray72",
".X c #B9B9B9",
"XX c gray73",
"oX c #BBBBBB",
"OX c #BCBCBC",
"+X c gray74",
"@X c gray",
"#X c gray75",
"$X c #C0C0C0",
"%X c #C1C1C1",
"&X c gray76",
"*X c #C3C3C3",
"=X c gray77",
"-X c #C5C5C5",
";X c #C6C6C6",
":X c gray78",
">X c #C8C8C8",
",X c gray79",
"<X c #CACACA",
"1X c #CBCBCB",
"2X c gray80",
"3X c #CDCDCD",
"4X c #CECECE",
"5X c gray81",
"6X c #D0D0D0",
"7X c gray82",
"8X c #D2D2D2",
"9X c LightGray",
"0X c gray83",
"qX c #D5D5D5",
"wX c gray84",
"eX c #D7D7D7",
"rX c #D8D8D8",
"tX c gray85",
"yX c #DADADA",
"uX c gray86",
"iX c gainsboro",
"pX c #DDDDDD",
"aX c gray87",
"sX c #DFDFDF",
"dX c gray88",
"fX c #E1E1E1",
"gX c #E2E2E2",
"hX c gray89",
"jX c #E4E4E4",
"kX c gray90",
"lX c #E6E6E6",
"zX c #E7E7E7",
"xX c gray91",
"cX c #E9E9E9",
"vX c #EAEAEA",
"bX c gray92",
"nX c #ECECEC",
"mX c gray93",
"MX c #EEEEEE",
"NX c #EFEFEF",
"BX c gray94",
"VX c #F1F1F1",
"CX c gray95",
"ZX c #F3F3F3",
"AX c #F4F4F4",
"SX c gray96",
"DX c #F6F6F6",
"FX c gray97",
"GX c #F8F8F8",
"HX c #F9F9F9",
"JX c gray98",
"KX c #FBFBFB",
"LX c gray99",
"PX c #FDFDFD",
"IX c #FEFEFE",
"UX c white",
/* pixels */
".                                                                                                                             . ",
"        . . . . . . . . . . . . . . . . . . . . . . . . . . . . . . . . . . . . . . . . . . . . . . . . . . . . . . . .         ",
"    o $ ; 1 4 5 5 5 5 5 5 5 5 5 5 5 5 5 5 5 5 5 5 5 5 5 5 5 5 5 5 5 5 5 5 5 5 5 5 5 5 5 5 5 5 5 5 5 5 5 5 5 5 5 5 4 1 ; $ o     ",
"    $ 2 i v C S S A A S A A A A A A A A A A A A A A A A A A A A A A A A A A A A A A A A A A A A A A A A A A A S S C v i 2 $     ",
"  . ; i D ] %.;.;.=.=.-.-.=.=.=.=.=.=.=.=.=.=.=.=.=.=.=.=.=.=.=.=.=.=.=.=.=.=.=.=.=.=.=.=.=.=.=.=.=.=.=.=.=.=.-.-.%.] D i ; .   ",
"  . 1 v ] q.x.m.n.c.x.x.x.x.x.x.x.x.x.x.x.x.x.x.x.x.x.x.x.x.x.x.x.x.x.x.x.x.x.x.x.x.x.x.x.x.x.x.x.x.x.x.x.x.c.n.m.x.q.] v 1 .   ",
"  . 4 C %.x.K.I.H.C.B.N.N.N.N.N.N.N.N.N.N.N.B.B.V.V.V.C.C.V.V.V.V.V.V.V.V.V.V.V.V.V.V.V.V.V.V.V.V.V.V.V.V.C.A.J.U.L.x.%.C 4 .   ",
"  . 5 S ;.m.I.L.B.h.p.u.i.p.p.p.p.p.i.i.i.i.p.s.d.g.g.h.g.g.g.g.g.g.g.g.g.g.g.g.f.f.f.f.f.f.f.f.f.f.f.f.f.g.x.Z.I.U.m.-.S 5 .   ",
"  . 5 S ;.n.H.B.i.>.#.O.O.@.@.@.@.@.@.+.+.@.#.%.=.;.>.>.>.>.>.>.>.>.>.>.>.>.:.:.:.;.;.;.;.;.;.;.;.;.;.-.-.>.6.g.Z.J.n.-.S 5 .   ",
"  . 5 A =.c.C.h.>.) I J K P P P P P P P P I U R ! / ( ) ) ( ( ( ( ( ( ( ( ( ( ( ) ) ) ) ) ) ) ) ) ) ( ^ ^ ) X.6.x.A.c.=.A 5 .   ",
"  . 5 A =.x.B.p.#.I N b n M N N B B V B B V C S H L P I I I P P P P P P P I I Y R E W Q Q W W Q Q W E U P U ) >.g.C.x.=.A 5 .   ",
"  . 5 S -.x.N.u.O.J b l z c b n m N B B N B V Z D G J J J J J J J J J H H J L T ! ( _ ` ` _ _ ` ` _ / E P P ^ -.f.V.x.=.A 5 .   ",
"  . 5 A -.x.N.i.O.K n z z v n M V Z S S S S S F G J J K K K K K K K J J H K U ! ] X.#.$.$.#.#.$.$.#.X._ E U ^ -.f.V.x.=.A 5 .   ",
"  . 5 A =.x.N.p.@.P M c v m N C D H J K K K K K L L P P P P P P P P L K K P E ` +.:.2.4.4.3.3.4.4.2.;.X./ E ( ;.f.V.x.=.A 5 .   ",
"  . 5 A =.x.N.p.@.P N b n N C S G K P P P P P P P P P P P P P P P P P L K P W [ %.3.9.w.q.0.0.q.w.9.2.#._ W ) ;.f.V.x.=.A 5 .   ",
"  . 5 A =.x.N.p.@.P N n M C S F J L P I I I P P P L L L L L L L L L L K K P W [ &.5.w.r.e.w.w.e.r.w.4.$.` Q ) ;.f.V.x.=.A 5 .   ",
"  . 5 A =.x.N.p.@.P B m V D G J K P P I I P P P L L L L L L L L L L L K K P W [ &.4.q.e.e.w.w.e.e.q.4.$.` Q ) ;.f.V.x.=.A 5 .   ",
"  . 5 A =.x.N.p.@.P B N Z H K L P P P P P P P P P P P P P P P P P P P L K P W [ %.3.0.w.w.0.0.w.w.0.3.#._ W ) ;.f.V.x.=.A 5 .   ",
"  . 5 A =.x.N.i.@.P V B S J P P P P P P P P I U Y T R R R R R R R R T U P I W ] %.3.0.w.q.0.0.q.w.0.3.#._ W ) ;.f.V.x.=.A 5 .   ",
"  . 5 A =.x.N.i.@.P V B S K P I I P P P L P U R ! / ) ) ) ) ) ) ) ) / W Y U W ] %.3.0.w.q.0.0.q.w.0.3.#._ W ) ;.f.V.x.=.A 5 .   ",
"  . 5 A =.x.N.i.@.P V B S K P I I P P L L P Y ! _ } ..X.X.....X.X...} ) W T W ] %.3.0.w.q.0.0.q.w.0.3.#._ W ) ;.f.V.x.=.A 5 .   ",
"  . 5 A =.x.N.i.@.P V B S K P I P P P L L P T / } +.&.*.*.&.&.*.*.&.+.[ ~ R W ] $.3.0.w.q.0.0.q.w.0.3.#._ W ) ;.f.V.x.=.A 5 .   ",
"  . 5 A =.x.N.i.@.P B B S J P P P P P L L P R ) ..&.:.>.>.:.:.>.>.:.%. ./ R W ' $.3.0.w.q.0.0.q.w.0.3.#._ W ) ;.f.V.x.=.A 5 .   ",
"  . 5 A =.x.N.i.+.P B N A J L P P P L L K P R ) X.*.>.<.,.,.,.,.<.>.*...( E W ' $.3.0.w.q.0.0.q.w.0.3.#._ W ) ;.f.V.x.=.A 5 .   ",
"  . 5 A =.x.N.i.+.L N N A J L P P L L L K P R ) X.*.>.,.,.>.>.,.,.>.*. ./ E W ' $.3.0.w.q.0.0.q.w.0.3.#._ W ) ;.f.V.x.=.A 5 .   ",
"  . 5 A =.x.N.p.@.I V B S K P I I P P L L P R ) ..&.:.,.>.:.:.>.,.:.&. ./ R W ' $.3.0.w.q.0.0.q.w.0.3.#._ W ) ;.f.V.x.=.A 5 .   ",
"  . 5 A =.x.B.a.%.R S A G P Y Y Y Y U I P I R ) ..&.:.>.>.:.:.>.>.:.&. ./ R W ' $.3.0.w.q.0.0.q.w.0.3.#._ W ) ;.f.V.x.=.A 5 .   ",
"  . 5 A =.x.V.f.;./ P K I E W Q Q W E T I I R ) ..&.:.>.>.:.:.>.>.:.&. ./ R W ' $.3.0.w.q.0.0.q.w.0.3.#._ W ) ;.f.V.x.=.A 5 .   ",
"  . 4 A =.x.C.k.2.{ Q E Q / ( ( ( ( ^ W Y U R ( ..&.:.>.>.:.:.>.>.:.&. ./ R W ' $.3.0.w.q.0.0.q.w.0.3.#._ W ) ;.f.V.x.=.A 5 .   ",
"  . 4 A *.x.A.x.7.O.` ( ) ' ' ] ] ' _ ~ R Y R ( ..&.:.>.>.:.:.>.>.:.&. ./ R W ' $.3.0.w.q.0.0.q.w.0.3.#._ W ) ;.f.V.x.=.A 5 .   ",
"  . 4 A *.x.A.v.0.$.{ ' ] { { { } { ' / E Y R ( ..&.:.>.>.:.:.>.>.:.&. ./ R W ' $.3.0.w.q.0.0.q.w.0.3.#._ W ) ;.f.V.x.=.A 5 .   ",
"  . 4 Z *.x.A.v.q.%.| ] [ { } } } } ] / E Y R ( ..&.:.>.>.:.:.>.>.:.&. ./ R W ' $.3.0.w.q.0.0.q.w.0.3.#._ W ) ;.f.V.x.=.A 5 .   ",
"  . 4 A *.x.A.v.q.$.} ] [ { } } } { ] / E Y R ( ..&.:.>.>.:.:.>.>.:.&. ./ R W ' $.3.0.w.q.0.0.q.w.0.3.#._ W ) ;.f.V.x.=.A 5 .   ",
"  . 4 A *.x.A.v.0.$.} ] ] { { } } { ' / E Y R ( ..&.:.>.>.:.:.>.>.:.&. ./ R W ' $.3.0.w.q.0.0.q.w.0.3.#._ W ) ;.f.V.x.=.A 5 .   ",
"  . 4 A *.x.A.v.0.$.{ ' ] { { } } { ' / E Y R ( ..&.:.>.>.:.:.>.>.:.&. ./ R W ' $.3.0.w.q.0.0.q.w.0.3.#._ W ) ;.f.V.x.=.A 5 .   ",
"  . 4 A *.x.A.v.0.$.{ ' ] { { } } { ' / E Y R ( ..&.:.>.>.:.:.>.>.:.&. ./ R W ' $.3.0.w.q.0.0.q.w.0.3.#._ W ) ;.f.V.x.=.A 5 .   ",
"  . 4 A *.x.A.v.0.$.{ ' ] { { } } { ' / E Y R ( ..&.:.>.>.:.:.>.>.:.&. ./ R W ' $.3.0.w.q.0.0.q.w.0.3.#._ W ) ;.f.V.x.=.A 5 .   ",
"  . 4 A *.x.A.v.0.$.{ ' ] { { } } { ' / E Y R ( ..&.:.>.>.:.:.>.>.:.&. ./ R W ' $.3.0.w.q.0.0.q.w.0.3.#._ W ) ;.f.V.x.=.A 5 .   ",
"  . 4 A *.x.A.v.0.$.{ ' ] { { } } { ' / E Y R ( ..&.:.>.>.:.:.>.>.:.&. ./ R W ' $.3.0.w.q.0.0.q.w.0.3.#._ W ) ;.f.V.x.=.A 5 .   ",
"  . 4 A *.x.A.v.0.$.{ ' ] { { } } { ' / E Y R ( ..&.:.>.>.:.:.>.>.:.&. ./ R W ' $.3.0.w.q.0.0.q.w.0.3.#._ W ) ;.f.V.x.=.A 5 .   ",
"  . 4 A *.x.A.v.0.$.{ ' ] { { } } { ' / E Y R ( ..&.:.>.>.:.:.>.>.:.&. ./ R W ' $.3.0.w.q.0.0.q.w.0.3.#._ W ) ;.f.V.x.=.A 5 .   ",
"  . 4 A *.x.A.v.0.$.{ ' ] { { } } { ' / E Y R ( ..&.:.>.>.:.:.>.>.:.&. ./ R W ' $.3.0.w.q.0.0.q.w.0.3.#._ W ) ;.f.V.x.=.A 5 .   ",
"  . 4 A *.x.A.v.0.$.{ ' ] { { } } { ' / E Y R ( ..&.:.>.>.:.:.>.>.:.&. ./ R W ' $.3.0.w.q.0.0.q.w.0.3.#._ W ) ;.f.V.x.=.A 5 .   ",
"  . 4 A *.x.A.v.0.$.{ ' ] { { } } { ' / E Y R ( ..&.:.>.>.:.:.>.>.:.&. ./ R W ' $.3.0.w.q.0.0.q.w.0.3.#._ W ) ;.f.V.x.=.A 5 .   ",
"  . 4 A *.x.A.v.0.$.{ ' ] { { } } { ' / E Y R ( ..&.:.>.>.:.:.>.>.:.&. ./ R W ' $.3.0.w.q.0.0.q.w.0.3.#._ W ) ;.f.V.x.=.A 5 .   ",
"  . 4 A *.x.A.v.0.$.{ ' ] { { } } { ' / E Y R ( ..&.:.>.>.:.:.>.>.:.&. ./ R W ' $.3.0.w.q.0.0.q.w.0.3.#._ W ) ;.f.V.x.=.A 5 .   ",
"  . 4 A *.x.A.v.0.$.{ ' ] { { } } { ' / E Y R ( ..&.:.>.>.:.:.>.>.:.&. ./ R W ' $.3.0.w.q.0.0.q.w.0.3.#._ W ) ;.f.V.x.=.A 5 .   ",
"  . 4 A *.x.A.v.0.$.{ ' ] { { } } { ' / E Y R ( ..&.:.>.>.:.:.>.>.:.&. ./ R W ' $.3.0.w.q.0.0.q.w.0.3.#._ W ) ;.f.V.x.=.A 5 .   ",
"  . 4 A *.x.A.v.0.$.{ ' ] { { } } { ' / E Y R ( ..&.:.>.>.:.:.>.>.:.&. ./ R W ' $.3.0.w.q.0.0.q.w.0.3.#._ W ) ;.f.V.x.=.A 5 .   ",
"  . 4 A *.x.A.v.0.$.{ ' ] { { } } { ' / E Y R ( ..&.:.>.>.:.:.>.>.:.&. ./ R W ' $.3.0.w.q.0.0.q.w.0.3.#._ W ) ;.f.V.x.=.A 5 .   ",
"  . 4 A *.x.A.v.0.#.{ ' ] [ { { { { ' ^ E U R (  .&.:.>.>.:.:.>.>.:.%.| / R W ' $.3.0.w.q.0.0.q.w.0.2.#._ W ( ;.f.V.x.=.A 5 .   ",
"  . 4 A *.x.A.c.9.@.] _ ` ] ] [ [ ] _ ~ T P Y ^ | $.-.:.:.;.;.:.:.-.$.} ~ Y R _ #.2.9.q.0.9.9.0.q.9.1.+.( R / =.d.V.x.=.A 5 .   ",
"  . 4 A *.x.A.c.9.+.] _ _ ' ' ] ] ' ) ! Y P U ~ } $.-.;.;.-.-.;.;.-.#.{ ! U T _ @.1.8.0.0.9.9.0.0.8.1.+.( T ^ =.d.V.x.=.A 5 .   ",
"  . 4 A *.x.A.v.q.$.} ] ] { { } } { ] / E Y E ) ..&.:.,.>.:.:.>.,.:.&. .( E Q ] %.3.0.w.w.0.0.w.w.0.3.#.` Q ) ;.f.V.x.=.A 5 .   ",
"  . 4 A *.c.D.M.u.,.$.+.@.#.$.$.$.$.+. .[ ` ] X.*.1.5.6.6.5.5.6.6.5.1.&...] { +.,.0.y.i.i.u.u.i.i.y.0.>.O.{ X.5.z.A.c.=.A 5 .   ",
"  . 5 A -.n.L.G.v.u.q.9.9.0.0.q.q.0.9.5.2.<.1.6.e.i.d.f.d.d.d.d.f.d.i.w.5.1.2.9.i.j.x.c.c.x.x.c.c.x.h.u.7.2.7.f.Z.J.n.-.S 5 .   ",
"  . 5 A -.m.Y.T.G.M.v.c.c.v.v.v.v.v.c.z.k.h.j.z.b.M.B.V.V.B.B.V.V.B.M.b.z.j.k.c.M.C.S.D.S.S.S.S.D.S.C.m.x.k.x.Z.I.U.m.-.S 5 .   ",
"  . 4 C $.x.L.Y.L.D.A.A.A.A.A.A.A.A.A.Z.C.C.C.Z.S.D.F.F.F.F.F.F.F.F.D.S.Z.C.C.A.D.F.G.H.H.G.G.H.H.G.F.S.A.C.A.J.U.L.x.%.C 4 .   ",
"  . 1 v ] q.x.m.n.c.x.x.x.x.x.x.x.x.x.x.x.x.x.x.x.x.x.x.x.x.x.x.x.x.x.x.x.x.x.x.x.x.x.x.x.x.x.x.x.x.x.x.x.x.c.n.m.x.q.] v 1 .   ",
"  . ; i D ] $.-.-.*.*.*.*.*.*.*.*.*.*.*.=.=.=.*.*.*.*.*.*.*.*.*.*.*.*.*.*.=.=.*.*.&.&.&.&.&.&.&.&.&.&.*.*.=.=.-.-.%.] D i ; .   ",
"    $ 2 i v C A A A A A A A A A A A A A A A A A Z Z Z Z Z Z Z Z Z Z Z Z A A A A Z Z Z Z Z Z Z Z Z Z Z Z A A A S S C v i 2 $     ",
"    o $ ; 1 4 5 5 4 4 4 4 4 4 4 4 4 4 4 4 4 4 4 4 4 4 4 4 4 4 4 4 4 4 4 4 4 4 4 4 4 4 4 4 4 4 4 4 4 4 4 4 4 5 5 5 4 1 ; $ o     ",
"        . . . . . . . . . . . . . . . . . . . . . . . . . . . . . . . . . . . . . . . . . . . . . . . . . . . . . . . .         ",
".                                                                                                                             . "
};
