/* XPM */
static char *a70c9bf1cdb94adfcce3b87911de39b9RSW1iAEc6tqR2gLe[] = {
/* columns rows colors chars-per-pixel */
"64 64 207 2 ",
"   c #4D3E46",
".  c #4F3F47",
"X  c #544147",
"o  c #5D4549",
"O  c #684A4A",
"+  c #714F4B",
"@  c #77514C",
"#  c #78524C",
"$  c #78514C",
"%  c #724F4B",
"&  c #5E4649",
"*  c #4D3E47",
"=  c #4E3F47",
"-  c #503F47",
";  c #504047",
":  c #514047",
">  c #564248",
",  c #5F4649",
"<  c #694B4A",
"1  c #5B4448",
"2  c #624849",
"3  c #6A4B4A",
"4  c #734F4B",
"5  c #6B4C4A",
"6  c #554248",
"7  c #534147",
"8  c #674A4A",
"9  c #6E4D4B",
"0  c #744F4C",
"q  c #74504C",
"w  c #624749",
"e  c #5C4548",
"r  c #594448",
"t  c #554247",
"y  c #75504C",
"u  c #65494A",
"i  c #584348",
"p  c #524147",
"a  c #76514C",
"s  c #6D4D4B",
"d  c #66494A",
"f  c #734F4C",
"g  c #6C4C4B",
"h  c #64494A",
"j  c #5D464A",
"k  c #584349",
"l  c #534148",
"z  c #524047",
"x  c #79524C",
"c  c #734F4D",
"v  c #6E4E4D",
"b  c #694C4D",
"n  c #64494C",
"m  c #5E464B",
"M  c #594449",
"N  c #544148",
"B  c #5A4448",
"V  c #604749",
"C  c #78524D",
"Z  c #79524E",
"A  c #795350",
"S  c #775250",
"D  c #725050",
"F  c #694C4E",
"G  c #5F474B",
"H  c #6B4B4A",
"J  c #79524D",
"K  c #7E5550",
"L  c #825752",
"P  c #835854",
"I  c #7E5653",
"U  c #4E3F46",
"Y  c #7A534D",
"T  c #805650",
"R  c #875A53",
"E  c #895B55",
"W  c #855955",
"Q  c #785351",
"!  c #674B4D",
"~  c #76504B",
"^  c #815650",
"/  c #885A54",
"(  c #8B5C56",
")  c #875A55",
"_  c #795452",
"`  c #684B4D",
"'  c #4E3E46",
"]  c #7C534D",
"[  c #76504C",
"{  c #7A524D",
"}  c #865A55",
"|  c #795352",
" . c #7A534E",
".. c #815651",
"X. c #875A54",
"o. c #8A5B56",
"O. c #785352",
"+. c #7D544F",
"@. c #835751",
"#. c #8A5C56",
"$. c #544247",
"%. c #7B534E",
"&. c #7E554F",
"*. c #815751",
"=. c #875953",
"-. c #8C5C57",
";. c #4F3F46",
":. c #7F5550",
">. c #835852",
",. c #865954",
"<. c #8B5C55",
"1. c #8E5D57",
"2. c #8D5D57",
"3. c #865A56",
"4. c #614749",
"5. c #8E5E57",
"6. c #8C5D57",
"7. c #775251",
"8. c #734F4A",
"9. c #744F4B",
"0. c #8D5D56",
"q. c #7F5652",
"w. c #72504F",
"e. c #6B4B46",
"r. c #6C4B47",
"t. c #6F4D48",
"y. c #805651",
"u. c #835752",
"i. c #845852",
"p. c #75504D",
"a. c #6A4C4B",
"s. c #574348",
"d. c #624642",
"f. c #644743",
"g. c #694945",
"h. c #704E49",
"j. c #825751",
"k. c #875954",
"l. c #885A55",
"z. c #714E49",
"x. c #694A47",
"c. c #614646",
"v. c #5A4446",
"b. c #554147",
"n. c #5B423F",
"m. c #5D4340",
"M. c #634643",
"N. c #6D4C48",
"B. c #8A5B55",
"V. c #664844",
"C. c #5E4442",
"Z. c #594243",
"A. c #554144",
"S. c #534146",
"D. c #56403E",
"F. c #58413F",
"G. c #684A46",
"H. c #865953",
"J. c #694A46",
"K. c #574140",
"L. c #544041",
"P. c #524044",
"I. c #524046",
"U. c #533F40",
"Y. c #554041",
"T. c #5A4343",
"R. c #624745",
"E. c #6C4C49",
"W. c #7C544E",
"Q. c #594242",
"!. c #523F42",
"~. c #513F44",
"^. c #514046",
"/. c #523F43",
"(. c #534043",
"). c #574244",
"_. c #5C4445",
"`. c #634746",
"'. c #6D4C47",
"]. c #6E4C47",
"[. c #634745",
"{. c #5C4444",
"}. c #564144",
"|. c #514045",
" X c #544145",
".X c #5B4343",
"XX c #604541",
"oX c #614541",
"OX c #544044",
"+X c #554142",
"@X c #564142",
"#X c #514048",
"$X c #524045",
"%X c #544040",
"&X c #543F40",
"*X c #524043",
"=X c #513F43",
"-X c #6A4B4B",
";X c #6F4D4B",
":X c #7A524C",
">X c #594348",
",X c #5D4649",
"<X c #8C5C56",
"1X c #7B534C",
"2X c #7A534C",
"3X c #544042",
"4X c white",
/* pixels */
"  . X o O + @ # $ @ @ $ # @ % O & X . * = . . - ; : : : : : : : : : : : : : : : : : : : : : : : : : : : : : : : : : : : : : : : ",
". : > , < % @ # $ @ @ $ # @ % < , > : ; ; : : : : : : : : : : : : : : : : : : : : : : : : : : : : : : : : : : : : : : : : : : : ",
"X > 1 2 3 % @ # $ @ @ $ # @ 4 5 2 1 > 6 6 > 6 X 7 : : : : : : : : : : : : : : : : : : : : : : : : : : : : : : : : : : : : : : : ",
"o , 2 8 9 0 @ $ $ @ @ $ $ @ q 9 8 w , & & & e r t : - - ; : : : : : : : ; ; ; ; ; ; ; ; : : : : : : : : : : : : : : : : : : : : ",
"O < 3 9 + y @ $ @ @ @ @ $ @ y % 9 3 < < < O u , i p . . - : : : : : : : ; - - - - - - ; : : : : : : : : : : : : : : : : : : : : ",
"+ % % 0 y a @ @ @ @ @ @ @ @ a y q % % % 4 % s d o > : ; ; : : : : : : : : : : : : : : : : : : : : : : : : : : : : : : : : : : : ",
"@ @ @ @ @ @ @ @ @ @ @ @ @ @ @ @ @ @ @ $ $ @ f g h j k 6 l z : : : : z 7 X 6 > > > > 6 X 7 z : : : : : : : : : : : : : : : : : : ",
"# # # $ $ @ @ @ @ @ @ @ @ @ @ @ $ # # x x # a c v b n m M N : - ; : 7 > B o , V V , o B > 7 : : : : : : : : : : : : : : : : : : ",
"$ $ $ $ @ @ @ @ @ @ @ @ @ @ @ @ $ $ $ $ $ $ C Z A S D F G > : . . : X B V d < H H < d V B X : ; ; : : : : : : : : : : : : : : : ",
"@ @ @ @ @ @ @ @ @ @ @ @ @ @ @ @ @ @ @ @ @ @ J K L P I D n k : U U : 6 o d s % q q % s d o 6 : - ; : : : : : : : : : : : : : : : ",
"@ @ @ @ @ @ @ @ @ @ @ @ @ @ @ @ @ @ @ a a @ Y T R E W Q ! M : U U : > , < % @ x x @ % < , > : - ; : : : : : : : : : : : : : : : ",
"@ @ @ @ @ @ @ @ @ @ @ @ @ @ @ @ @ @ @ a ~ @ Y ^ / ( ) _ ` M : ' U : > V H q x ] ] x q H V > : - ; : : : ; ; ; ; : : : : : : : : ",
"@ @ @ @ @ @ @ @ @ @ @ @ @ @ @ @ @ @ @ [ ~ a { ^ / ( } | ` M : ' U : > V H q x ] ] x q H V > : - ; : : ; ; - - ; ; : : : : : : : ",
"@ @ @ @ @ @ @ @ @ @ @ @ @ @ @ @ @ @ @ a a @  ...X.o.W O.` M : U U : > , < % @ x x @ % < , > : - ; : : : : : : : : : : : : : : : ",
"@ @ @ @ @ @ @ @ @ @ @ @ @ @ @ @ @ @ @ $ C { +.@./ #.W O.` M : U U : 6 o d s % q q % s d o 6 : - ; : z 7 $.6 6 $.7 z : : : : : : ",
"$ $ $ @ @ @ a a a a a a a a a a a a $ J %.&.*.=.( -.} O.` M : U ;.: X B V d < H H < d V B X : - - : 7 > B o o B > 7 : : : : : : ",
"C # $ @ @ a a a a a a a a a a ~ ~ a C %.:.>.,.<.1.2.3.| ` M : U ;.: 7 > B o , V V , o B > 7 : - - : $.B 4.d d 4.B $.: ; ; : : : ",
"@ @ @ @ @ @ @ @ @ @ @ @ @ @ @ @ a @ { &.>.X.( 2.5.6.W 7.! M : ;.. : z 7 X 6 > > > > 6 X 7 z : ; - : > & 8 s s 8 & > : - ; : : : ",
"8.8.9.~ @ J  . . . . . . . . .{ {  .+.*.,.( 6.0.( X.q.w.n k : . - : : : : : : : : : : : : : : ; - : > V 3 % % 3 V > : - ; : : : ",
"e.r.t.8.J &.y.*.....y.y.y.y.y.T T ..u.,.#.2.6.E i.+.p.a.V > : - ; : : : ; - - . . . . . ; : : ; - : s.4.g q q g 4.s.: - ; : : : ",
"d.f.g.h.{ j.k./ / X.X.X.X.X.X.k.,.X.l.( 2.5.( i.Y z.x.c.v.b.: ; ; : : : ; ; - . . . . . ; : : ; - : s.4.g q q g 4.s.: - ; : : : ",
"n.m.M.N.J i.B.( ( B.B.B.B.B.B.B.B.B.#.-.2.6.X.+.z.V.C.Z.A.S.: ; : : : : : : : : : : : : : : : ; - : > V 3 % % 3 V > : - ; : : : ",
"D.F.C.G.q y.H./ X.,.,.,.,.,.,.,.,.,.,.X./ H.y.y J.C.K.L.P.I.: : : : : : : : z 7 t > > t 7 z : ; - : > & 8 s s 8 & > : - ; : : : ",
"U.Y.T.R.E.a %.W.W.%.%.%.%.%.%.%.%.%.%.W.W. .y E.R.Q.L.!.~.^.: : : : : : ; : 7 s.1 & & 1 s.7 : - - : $.B 4.d d 4.B $.: ; ; : : : ",
"/.(.)._.`.x.'.].].'.'.'.'.'.'.'.'.'.'.'.'.r.J.[.{.}.P.~.|.^.: : : : : ; ; : t 1 2 8 8 2 1 t : - - : 7 > B o o B > 7 : : : : : : ",
"^.I. X)..XC.XXoXXXXXXXXXXXXXXXXXXXXXXXXXXXXXC..X). XI.^.: : : : : : : ; - : > & 8 s s 8 & > : - ; : z 7 $.6 6 $.7 z : : : : : : ",
": : I.OX+XK.F.F.F.F.F.F.F.F.F.F.F.F.F.F.F.F.K.@XOXI.: : : : : : : : : ; - : > & 8 s s 8 & > : - ; : : : : : : : : : : : : : : : ",
"#X: ^.$X(.L.%X%X%X%X%X&X&XU.U.U.U.U.U.&X&X%XL.(.$X^.: : : : : : : : : ; ; : t 1 2 8 8 2 1 t : ; ; : : ; ; - - ; ; : : : : : : : ",
": : : ^.$XP.(.(.(.(.*X/./.=X=X=X=X=X=X/./.*XP.$X^.: : : : : : : : : : : ; : 7 s.1 & & 1 s.7 : : : : : : ; ; ; ; : : : : : : : : ",
": : : : I.I.I.I.I.I.I.I.I.I.I.I.I.I.I.I.I.I.I.I.: : : : : : : : : : : : : : z 7 t > > t 7 z : : : : : : : : : : : : : : : : : : ",
": : : : : : : : : : z 7 X 6 > > > > 6 X 7 z : : : : : : : : : : : : : : : : : : : : : : : : : : : : : : : : : : : : : : : : : : ",
": : : : ; ; - . . ; z 6 r o , V V , o r 6 : . . ; : : : : : : : : : : : : : : ; ; - - ; ; : : : : : : : : : : : : : : : : : : : ",
": : : ; ; - . . . - l r V u < -X-X< u , i p . . . : : : : : : : : : : : : : : : ; ; ; ; : : : : : : : : : : : : : : : : : : : : ",
": : : : : : : ; ; : > o d s % q q % s d o > : ; ; : : : : : : : : : : : : : : : : : : : : : : : : : : : : : : : : : : : : : : : ",
": : z 7 X 6 > 6 6 > 1 2 5 % @ x x @ f g h j k 6 l z : : : : : : : : : : : : : : : : : : : : : : : : : : : : : : : : : : : : : : ",
". ; z 6 r o , , & , 2 O ;Xy # :X:X# a c v b n m M N : ; ; : : : : : : : : : : : : : : : ; ; ; ; ; ; ; ; : : : : : : : : : : : : ",
"= - 7 >X, d < 3 < < 5 ;X4 a $ x # $ C Z A S D F G > : - ; : : : : : : : : : : : : : : : ; - - - - - - ; : : : : : : : : : : : : ",
". : > o u s % 4 4 % 4 q y a @ @ @ @ J K L P I D n k : . - : : : : : : : : : : : : : : : : : : : : : : : : : : : : : : : : : : : ",
"X > 1 w 3 % @ $ $ @ @ @ @ @ @ a a @  .^ R E W Q ! M : ;.. : : : : : : : : : : : : : z 7 X 6 > > > > 6 X 7 z : : : : : : : : : : ",
",X, 2 O ;Xy # x x # # $ @ @ @ a a @ %.*./ <X) | ` M : ;.. : : : : : : : : : : : : : 7 > B o , V V , o B > 7 : : : : : : : : : : ",
"O < 5 9 % a $ x # $ $ $ @ @ @ a a @  .../ ( } | ` M : ;.. : : : : : : : : : : ; ; : X B V d < H H < d V B X : ; ; : : : : : : : ",
"% % 4 q y a @ @ @ @ @ @ @ @ @ a a @  .^ X.B.W O.` M : ;.. : : : : : : : : : : ; - : 6 o d s % q q % s d o 6 : - ; : : : : : : : ",
"@ @ @ @ @ @ @ @ @ @ @ @ @ @ @ a a @  .^ X.B.W O.` M : ;.. : : : : : : : : : : ; - : > , < % @ x x @ % < , > : - ; : : : : : : : ",
"# # # $ $ @ @ @ @ @ @ @ @ @ @ a ~ @ { T R B.W O.` M : ;.. : : : : : : : : : : ; - : > , 3 4 # 1X1X# 4 3 , > : - ; : : : : : : : ",
"$ $ $ $ @ @ @ @ @ @ @ @ @ @ @ a ~ a { T =.B.W O.` M : ;.. : : : : : : : : : : ; - : > , 3 4 $ 2X2X$ 4 3 , > : - ; : : : : : : : ",
"@ @ @ @ @ @ @ @ @ @ @ @ @ @ @ a a @  .^ X.B.W O.` M : ;.. : : : : : : : : : : ; - : > , < % @ :X:X@ % < , > : - ; : : : : : : : ",
"@ @ @ @ @ @ @ @ @ @ @ @ @ @ @ $ C { +.@./ #.W O.` M : ;.. : : : : : : : : : : ; - : > , < % @ :X:X@ % < , > : - ; : : : : : : : ",
"$ $ $ @ @ @ a a a a a a a a $ J %.&.*.=.( -.} O.` M : ;.. : : : : : : : : : : ; - : > , 3 4 $ 2X2X$ 4 3 , > : - ; : : : : : : : ",
"C # $ @ @ a a a a a a ~ ~ a C %.:.>.,.<.1.2.3.| ` M : ;.. : : : : : : : : : : ; - : > , 3 4 # 1X1X# 4 3 , > : - ; : : : : : : : ",
"@ @ @ @ @ @ @ @ @ @ @ @ a @ { &.>.X.( 2.5.6.W 7.! M : ;.. : : : : : : : : : : ; - : > , < % @ x x @ % < , > : - ; : : : : : : : ",
"8.8.9.~ @ J  . . . . .{ {  .+.*.,.( 6.0.( X.q.w.n k : . - : : : : : : : : : : ; - : 6 o d s % q q % s d o 6 : - ; : : : : : : : ",
"e.r.t.8.J &.y.*.....y.T T ..u.,.#.2.6.E i.+.p.a.V > : - ; : : : : : : : : : : ; ; : X B V d < H H < d V B X : ; ; : : : : : : : ",
"d.f.g.h.{ j.k./ / X.X.k.,.X.l.( 2.5.( i.Y z.x.c.v.b.: ; ; : : : : : : : : : : : : : 7 > B o , V V , o B > 7 : : : : : : : : : : ",
"n.m.M.N.J i.B.( ( B.B.B.B.B.#.-.2.6.X.+.z.V.C.Z.A.S.: ; : : : : : : : : : : : : : : z 7 X 6 > > > > 6 X 7 z : : : : : : : : : : ",
"D.F.C.G.q y.H./ X.,.,.,.,.,.,.X./ H.y.y J.C.K.L.P.I.: : : : : : : : : : : : : : : : : : : : : : : : : : : : : : : : : : : : : : ",
"U.Y.T.R.E.a %.W.W.%.%.%.%.%.%.W.W. .y E.R.Q.L.!.~.^.: : : : : : : : : : : : : : : : : : ; - - - - - - ; : : : : : : : : : : : : ",
"/.(.)._.`.x.'.].].'.'.'.'.'.'.'.'.r.J.[.{.}.P.~.|.^.: : : : : : : : : : : : : : : : : : ; ; ; ; ; ; ; ; : : : : : : : : : : : : ",
"^.I. X)..XC.XXoXXXXXXXXXXXXXXXXXXXXXC..X). XI.^.: : : : : : : : : : : : : : : : : : : : : : : : : : : : : : : : : : : : : : : : ",
": : I.OX+XK.F.F.F.F.F.F.F.F.F.F.F.F.K.@XOXI.: : : : : : : : : : : : : : : : : : : : : : : : : : : : : : : : : : : : : : : : : : ",
"#X: ^.$X(.3XL.%X%XL.L.L.L.L.L.%X%XL.L.(.$X^.: : : : : : : : : : : : : : : : : : : : : : : : : : : : : : : : : : : : : : : : : : ",
": : : ^.$XP.*X(.(.(.(.(.(.(.(.(.(.*XP.$X^.: : : : : : : : : : : : : : : : : : : : : : : : : : : : : : : : : : : : : : : : : : : ",
": : : : I.I.I.I.I.I.I.I.I.I.I.I.I.I.I.I.: : : : : : : : : : : : : : : : : : : : : : : : : : : : : : : : : : : : : : : : : : : : ",
": : : : : : : : : : : : : : : : : : : : : : : : : : : : : : : : : : : : : : : : : : : : : : : : : : : : : : : : : : : : : : : : ",
": : : : : : : #X#X#X#X#X#X#X#X#X#X: : : : : : : : : : : : : : : : : : : : : : : : : : : : : : : : : : : : : : : : : : : : : : : "
};
