/* XPM */
static char *_12b406add314b3b8cc256c6bd5cc65554zwIen6KZVuGJ4H[] = {
/* columns rows colors chars-per-pixel */
"64 64 83 1 ",
"  c #323A4C",
". c #353E50",
"X c #374153",
"o c #394356",
"O c #3C465A",
"+ c #3E495E",
"@ c #424D63",
"# c #445067",
"$ c #465269",
"% c #49556C",
"& c #4A5771",
"* c #4C5973",
"= c #4F5D78",
"- c #505D76",
"; c #515F7A",
": c #54617C",
"> c #566481",
", c #5A6781",
"< c #596782",
"1 c #5A6782",
"2 c #5A6882",
"3 c #5A6985",
"4 c #596886",
"5 c #5A6887",
"6 c #5D6B87",
"7 c #596888",
"8 c #5A6A89",
"9 c #5B6B8A",
"0 c #5C6B89",
"q c #5C6B8B",
"w c #5D6C88",
"e c #5E6D89",
"r c #5C6C8B",
"t c #5D6C8C",
"y c #5F6E8E",
"u c #5F6F8E",
"i c #606E8B",
"p c #606F8B",
"a c #616F8C",
"s c #616F8D",
"d c #606F8E",
"f c #61708C",
"g c #62708D",
"h c #62718D",
"j c #62718E",
"k c #62708F",
"l c #607090",
"z c #617191",
"x c #637291",
"c c #637393",
"v c #647391",
"b c #647394",
"n c #647494",
"m c #657494",
"M c #657495",
"N c #667694",
"B c #677694",
"V c #677697",
"C c #677797",
"Z c #687795",
"A c #697897",
"S c #687898",
"D c #6A7A99",
"F c #6B7A99",
"G c #6A799A",
"H c #6B7B9A",
"J c #6B7B9B",
"K c #6C7C9B",
"L c #6B7B9C",
"P c #6B7C9C",
"I c #6C7C9C",
"U c #6D7C9C",
"Y c #6D7D9C",
"T c #6F7F9E",
"R c #6F7FA0",
"E c #6F80A0",
"W c #7080A0",
"Q c #7081A1",
"! c #7181A2",
"~ c #7182A2",
"^ c #7282A2",
"/ c #7383A4",
"( c #7384A5",
/* pixels */
"##@OX                          o+@@+X                           ",
"#@@+OXXXX XX..... ....X ......XO+@@+OX..X  X....................",
"##@@++O+OOOOOOOOOOOOOOO+OOO+O++++@@@+O+O+OOO++O+O+OOOOOOOOO++OOO",
"@@##$%%%%%%%%%%%%*%%%*%%%%%%%%$%@$##%%%%%%%%%%%%%%%%%%&%&%%%%%%%",
"@##%:::2,,,,::i:11111111i:,,,,:-%$$$-::i2,,,,,,2:d,,,,,,1111,:d:",
"+#%=2fNAZZNZFZZFZbZZZMZVZZZZZZi1:%$-:vZZNVVVNVVVNZNNZZZNZZZZZZZZ",
"@#%:wAEQYYKKYKQFLLYLLYLLTLYTTRVd:$%:iFTQYYPPLYLPFKKLFYLLFYYLTTYT",
"@#%:fKQQQYKFFFFFLFLFYVLVFFYTR^Ld:%%:iF/TRLLFFFFFFKFYYFLFLFYTRR//",
"@#%:dYQRLZbbbbbbbbbbZbbbvNNFTRYf:%%:gWWWFZgZbbNbbbbbbbbbbbbLYR((",
"@#%;dZLLbdtqttrriitti7t7qqlvFYFd:%%:fFFFZiwwwttttqdd<idiqtdvFFRR",
"+@$-,dxfq,>>>>>>>>;>>>>>>>,djvf:-%#*:ggjt>:2>>>>>>>;<>;,>>>qdNZZ",
"O++#-:>:-*&*==;;**&&&&&&&&-;:::*#++$-:::-***=;==*&&&&&*%&&&-;:>,",
"XXO+@#$#@@@#%&%%@@@@@@@@@@@@$$#@OOOO@#%#@@@#%%&%@@@+@+@++@@@$$$$",
" oXXoOOOOOO+@##@@O.+.O.O.o.OOOOOoXoOOOOOOOO+@##@@+O.oOoOoOoOOO++",
"O++OOOOOOOO+@@@@+OOOOOOOOO@OOO+OOOOOOOOOOO++@@@@@OOOOOOO+OOOOOO+",
"%%%%%%%%%%%###@#$$%%%&%%%%%%%$%%%%%%%%%%$%$$#@##$$%%%%%%%%%%%%$$",
":i:22:22,,:-%##%-:,,,:22,,,,,,:2,,,,<:,,,:::%#$%-;11,,,:,<111:,,",
"ZZZZAZZFFZf2-%%-5fZZZNNFNNNNNNVZNNVVZVVNFZf:-%%->dZFZZVNZZZZvZZZ",
"FFKKKKFTYYAd:%%-iAKQYYFYPPLFLYLPPPFPYLLYQYZd;%%;dFLRRYLLLLFYYLYT",
"FFFAFAKTQTKw:%%:iKQQYFFFVFFFZFFSFFFFFFLYQQFd:%%:iURRYLFVLAYY^^Q/",
"xbxxvbNFYEFt:%%:tFRYFVvxvbbbvbbbxbxxxbVFTTLi;%&;iFRTFvvvxVbFYR^/",
"ttt9qwtbFPFq;%%;wFLFblttttqtttqtr9ttqttVFYZw;%%;iZLFblqq9ttxVYRR",
"9997,9txNFNq;%%;qNFVx9999,777q7t9>95,9tvVFZ6;%%=ivFZvq77>9txVFLY",
"9,79q99xbNx5;%%;5vVvl979779q77<7595999ttNZd6=%%=:BZbltq799ttxVFF",
"777977tyxzq<*%%*>wxxqt9999997t<q997979wtbyt>-%%*>txxyt<9999qxdbb",
"7977777qqq9;&%%&:,9t9977777,9<7q9479799tt<9;&%%&><q7t775>79999qq",
",>>>>>>>>>=*%@##*:>>>>>>>>>>>>>>>>>>>>>>>>;*%##%*;>>>>>>>>>>:>>>",
";;;=**&&&&%%@O@@#%&&&&&&&&&&&&**=;;=*&&&&*&$@O+@$&&*&&&&&&&&&&&&",
"**&%#@@@+@@OOooO++@@+@@@@@@@O@@$%&&%@@@@@@OOOOOOO@+@@@@@@@@@+@+@",
"%%#@+Oooooooo.oooooOooooooOOooOO@##@@OO.OO.O.o...OOoOo.O OoooOoo",
"@#@@+OOOOOOOOOOOOOOO+OOOOOOOOOO@@@@@@OOOOOOO+OOOOOOOOOOO++oOOO+O",
"@@##$%%%&%%%&%&%&%%%%%&%%%%%%%%$#@@@$$%%%%%%%&%%%%%&%%%%%&%%%%%%",
"@@@%-:,,,,,,,,,,,,,,,,,,,,,,,,:-&$$%;::w,,,,,,2,,,,,,,,,,,2,,,>:",
"+$%-,lVZZZZZNNVVZNNNNNNNVVZZZNx2=$$-:NZZANNANNNAZbZZNVNNZNVNNNZZ",
"@#%:tFYRYYPLLFLYPFLLLYFLLLYYRYAw;%%:iFYQYLYPLPYPLPLFPPPPFLFYTTYQ",
"+#%:dFQQYPVFFFFVFFSFFFFFFFYYQQYw;%%:iYRQYLFSFVLVFSFFFSFFFFLYTQ/Q",
"@#%:iFTYFbxbvvbbxxbbbbxbxvNFYRFt:%%;iFYYVVbxxxxbxbbxbbxxvbVVYRQ(",
"@#%:tFYFbxt9tttqttt99tt9qqdbFYFr;%%;iZLFNyttttt9qtt9tqtttttxFLTR",
"+#%:qNFNxt97t7t<q<99977797qxVFVq;%%;qZFZyt77977999<79<qqq9txVFYL",
"##%*<xVbl99777777q<97799,99xxVx<-%%;,vZvx999,9775997997>,9ttbNFF",
"##%;:wxxdqt7t7779997999999ttlxt2*%%*>tvxtq997979qtq7<t7<999tlfbb",
"+#$&:999q<7<77t77797<977,979tq7;*%%*:7qqq9<9qq79757777797799qqtq",
"+@#%=;>>>>>>>>>>>>>>>;>>>>>>>>;*%##%*:>>>>>>>>>>>>>>>>>>>>>::>>>",
"OO+@@%*&&&&-;;;;**&&&&&&&&&*&&&#++++#%&&&&**=;;=**&&&&&&&&&&&&&&",
"XooO+++@@@@$%&&%@@@@@@@@@@@@@@@OOooOO++@+@@#&&&%@@@@@@@@@@@@+@+@",
"XXXoXoOooOOO@@$@@OoOoOo.OO.ooOoooooooOoOooOO@@#@@+O.Oo.O.OoooOOo",
"OOO+OOOOOOO@@@@@OOOOOOOOOOOOOOOOOOOOOOOOOO+@@@@@@OOOOOOO+OoOOOOO",
"%%*%%%%%%$$$$@@$$%%%%%%&%%%%%$%%%%&%%%%%%%%##@##@%%%%%%%%&%%%%%%",
"22222,,,,,:-%##%-::222,,,,,,,,,,,,,,,,,,w:::%$$%-:,,,,,,,,2,,,,>",
"NNNVVNNZZbd,-%%-5fAAZZZNNZZNNVNNNNNNVNVVZAf:=$%*,dZFNVVNZNVNNNNN",
"PFYLPLYYRRFd:%%:wAYQYFYLPLFFLLPLPLFPPKYRQWAw:$%:dVRTRLLLLFLYRYTT",
"FFFFFSYY^RFt;%%:iLQQTKFFFFFFFSFFFFFFFAPPQWPw:%%:iLRRYFFFFFFYR^QQ",
"xbNxxbVFYYFi:%%:wPQPSncxxxbbxbbxxbxxxbnFWWPi:%%:iFRYLbbvxNbVYRQ(",
"999r9rtbFPAw-%%:wAYFnf99w9999tq99tttqrtVAKZw:%%=qZYFbdttqttxVYRR",
"9797999xFFN6-%%-9NPScr97979999979>95999xAFZw=%%=iZAZvt7797txbFYY",
"59<9979tNnN2-%%-5xNntr47,q779,<q599929wfZAh:=%%=1aZvlq7,,99xvZVF",
"889797qqdxq>*%%*>rzzrr797797799999q777qrzzr>=%$=>9zz979979ttbyxb",
"79797979q99;*@%*:4rr99999979<9797<77q7qrr95:*$$*:999994977<999qt",
">>7>>><<,>>=&#$&=:>74>4>>>>97>>>><<>>9>>5>:=%$$%=:>94>5>>>>>>>>>",
";;;;;;;;;;=*%##%&=::=;;;==;;;=::=;>==;;;;==&%##%*=;;;=;;;;>;;;;;",
"*&&*&&&=&*&%###%$&&&&&&&****&&&&&&*&*&&&&&&%####%&**&&&&&&&&***&",
"%$$$$$$$$$####@##$$$$$$$#$$#$$$$$$$$%$#%$#$##@######$$$$$%#%%$$$",
"@#@##+@##@###@#@#@@#####@###@######@@##@#################@@##@@#",
"@@@@#@@#@@@@@#@#@@@@@#+#@@@@@@@@@@@#@@@@@#+@@#@#@@@@@@@@@@@@@@@@"
};
