/* XPM */
static char *_a0f190eadcc445b9efc2f6bb5969097JhhsfeO4PUozJb1b[] = {
/* columns rows colors chars-per-pixel */
"64 64 138 2 ",
"   c None",
".  c #140C00",
"X  c #190F00",
"o  c #1C1101",
"O  c #231501",
"+  c #271802",
"@  c #2C1B02",
"#  c #311E01",
"$  c #352103",
"%  c #3B2503",
"&  c #3E2806",
"*  c #402701",
"=  c #442A03",
"-  c #4D2F01",
";  c #472D08",
":  c #4A2F08",
">  c #4E3001",
",  c #4C3108",
"<  c #533301",
"1  c #593601",
"2  c #5D3901",
"3  c #533609",
"4  c #5C3C0A",
"5  c #673F00",
"6  c #683F00",
"7  c #603E0B",
"8  c #664003",
"9  c #6E4503",
"0  c #6B4305",
"q  c #6D4404",
"w  c #6E4404",
"e  c #6E4504",
"r  c #6F4504",
"t  c #6E4405",
"y  c #6E4505",
"u  c #6F4505",
"i  c #6F4605",
"p  c #6D4507",
"a  c #6A4202",
"s  c #64410C",
"d  c #67420C",
"f  c #66420C",
"g  c #68430B",
"h  c #6B4408",
"j  c #6C4409",
"k  c #6C460B",
"l  c #6E470A",
"z  c #69440D",
"x  c #6D470D",
"c  c #6F470C",
"v  c #6E470D",
"b  c #6B460D",
"n  c #6E480E",
"m  c #6E490E",
"M  c #704504",
"N  c #704605",
"B  c #704705",
"V  c #714705",
"C  c #704706",
"Z  c #714706",
"A  c #714605",
"S  c #724806",
"D  c #734806",
"F  c #724807",
"G  c #734907",
"H  c #744907",
"J  c #734907",
"K  c #704708",
"L  c #754908",
"P  c #754A08",
"I  c #754B08",
"U  c #774C08",
"Y  c #70480D",
"T  c #70490D",
"R  c #72490C",
"E  c #70490E",
"W  c #734B0E",
"Q  c #744B0E",
"!  c #744C0D",
"~  c #754C0D",
"^  c #744C0E",
"/  c #764D0F",
"(  c #774E0F",
")  c #754C0C",
"_  c #784C0A",
"`  c #784D0A",
"'  c #794D0A",
"]  c #7A4E0A",
"[  c #7A4E0B",
"{  c #7A4F0B",
"}  c #7B4F0B",
"|  c #784D0D",
" . c #784E0D",
".. c #7B4F0C",
"X. c #7A4F0D",
"o. c #784E0F",
"O. c #7A4F0E",
"+. c #7C4F0C",
"@. c #7A4E0B",
"#. c #7A500F",
"$. c #7B500F",
"%. c #7C500C",
"&. c #7D500C",
"*. c #7C500D",
"=. c #7D510D",
"-. c #7E510D",
";. c #7D520E",
":. c #7F520E",
">. c #7F530E",
",. c #7E520F",
"<. c #7F530F",
"1. c #7D510D",
"2. c #7C5210",
"3. c #7F5310",
"4. c #7E5310",
"5. c #80520E",
"6. c #80530E",
"7. c #81540E",
"8. c #81540F",
"9. c #82540F",
"0. c #82550F",
"q. c #83550F",
"w. c #84560F",
"e. c #81540F",
"r. c #805410",
"t. c #815510",
"y. c #825510",
"u. c #835510",
"i. c #835610",
"p. c #845610",
"a. c #845710",
"s. c #845611",
"d. c #855711",
"f. c #865711",
"g. c #845611",
"h. c #855811",
"j. c #865811",
"k. c #875811",
/* pixels */
"                                              . . . . . . . .                                                                   ",
"                                          . . . . . . . . . . . .                                                               ",
"                                        . . . . . . . . . . . . . . .                                                           ",
"                                      . . . X + @ & & & $ @ o o . . . . .                                                       ",
"                                    . . . O % 3 z Y ~ ~ Y s 3 % + . . . . .                                                     ",
"                                    . . o : j V V V V R _ ;.;.| z ; + . . . .                                                   ",
"                                  . . . & 5 5 6 6 6 a 6 a q D ;.2./ 7 $ . . . .                                                 ",
"                                  . . . : 2 1 1 2 5 5 5 5 5 a q Q s.2.z ; X . . .                                               ",
"                                  . . X % - - - < 1 5 5 5 5 5 5 a R ;.w.Y & o . .                                               ",
"                                  . . . o # - - - - 1 5 6 5 6 5 5 a V 9.s.m $ . . .                                             ",
"                                    . . . o % - - - < 5 5 5 5 5 5 5 6 L s.s.s O . . .                                           ",
"                                    . . . . + = - - - < 5 5 5 5 6 5 5 q | s.3., X . .                                           ",
"                                        . . X * - - - < < 5 5 5 5 5 5 5 q 9.s.c + . .                                           ",
"                                        . . X % - - - - - 1 5 2 1 5 5 5 a +.s.s.; X . .                                         ",
"                                        . . . # - - - - < 5 5 2 < 5 5 5 5 D s.s.s o . .                                         ",
"                                      . . . . % - - - < 2 5 5 5 2 5 5 5 5 V w.s.^ + . .                                         ",
"                                  . . . . . X & - - - > 5 5 5 5 5 5 5 5 8 q 9.s.b + . . . .                                     ",
"                                . . . . . X o @ - - - < 5 5 5 5 8 5 5 5 8 9 9.~ ; . . . . . . .                                 ",
"                              . . . . o $ , , $ % - - - < 5 5 5 6 5 5 5 a a f ; + @ & + o . . . .                               ",
"                            . . . o @ , z 2.o.4 : 3 < < < 1 2 5 5 5 5 5 2 3 ; $ & 7 n 4 ; + . . . .                             ",
"                          . . . o % s s.j.j.j.s.~ Y j 8 4 2 2 2 5 q q 2 , = ; 3 b 3.s.s.%.4 % o . . .                           ",
"                        . . . o ; Q 9.s.d.d.3.#.;.s.9.9.;.| | | #.;.3.W m j h a j q R %.9.9.^ , o . . .                         ",
"                      . . . o : / s.s.h.s.s.R 0 V _ } +.;.;.;.;.;._ Q V q a a a 5 a a q S ;.s.~ 3 o . . .                       ",
"                      . . . & W s.h.h.s.9.L a 6 L } D 0 M V S q V q q 0 6 5 5 5 5 5 5 5 a q _ s./ ; . . .                       ",
"                    . . . @ b h.h.s.h.s._ a 5 q +.s.D 6 5 5 5 5 5 5 5 5 6 5 6 5 5 5 5 5 5 6 a U s.n @ . . .                     ",
"                    . . o 3 s.h.s.h.s.;.q 5 6 a +.9.V a 6 5 5 5 5 5 5 5 5 5 6 5 5 5 5 6 8 5 5 a ~ s., . . .                     ",
"                  . . . $ ^ s.k.s.s.9.V a q 5 a q V a 5 8 6 5 6 5 6 5 6 6 5 5 5 5 5 5 5 6 6 5 5 q %.b + . .                     ",
"                  . . X 3 s.k.s.h.s._ a 9 _ q 5 a a 5 5 5 6 5 5 5 5 5 5 5 5 5 6 a 5 5 5 5 5 5 a 8 0 / & . .                     ",
"                  . . + n s.s.k.s.9.9 5 q U a 5 5 5 5 5 5 5 5 5 5 6 6 5 5 8 6 5 6 5 5 5 q V q 8 5 1 m : . . .                   ",
"                  . . @ #.s.k.s.w._ a 5 a q 5 5 5 5 5 5 5 5 5 5 5 8 5 5 6 5 6 5 5 5 6 a D -.U a 5 > 7 3 . . .                   ",
"                . . . # 2.s.s.k.9.9 5 5 5 5 5 a 5 5 6 a 6 5 a 5 6 5 5 6 5 5 5 5 5 6 5 q 9.k.9.q 2 > 1 < o . . .                 ",
"              . . . . + n s.k.s.%.a 5 5 5 5 5 5 6 5 5 5 5 5 5 5 6 8 5 5 5 5 5 a 5 5 6 9 9.k.s.q 1 - > & . . . . .               ",
"            . . . X o X 3 s.s.s.D a 5 5 5 5 5 5 6 5 5 5 5 5 5 5 5 6 5 5 5 5 5 5 5 5 5 a _ 9._ 5 - - * O . o X . . .             ",
"          . . . + , : o @ z s.s.V 5 5 5 6 5 8 5 5 5 5 5 5 5 5 a 5 5 a 5 5 5 5 6 5 5 5 5 q q 7 < - = @ . + 3 ; o . . .           ",
"        . . . @ 4 / ^ ; o % z 3.q 6 5 5 5 8 8 5 5 a 5 5 5 6 5 5 6 6 5 5 5 5 5 5 5 5 5 5 5 1 < - * @ X o , 3.^ , O . . .         ",
"      . . . + 3 4.h.k.E & + % 3 2 5 a 5 a 6 5 5 5 5 a 5 5 5 6 5 5 8 5 6 5 5 2 2 5 5 5 2 < - - % @ X O = ~ h.h.%.: X . .         ",
"      . . o , 3.h.>.9.s.~ 3 @ # % < 2 5 5 5 5 5 5 5 5 5 6 5 5 5 6 5 5 5 5 5 - < 5 1 < - - % $ o o + , ~ s.h.h.s.W & . . .       ",
"    . . . % / s.^ j S %.9.r.m , $ # % - 1 5 2 5 5 5 5 6 5 5 5 6 5 5 6 5 5 1 < - < > - % @ O o O & s 3.h.s.s.w.h.s.b + . .       ",
"    . . o 4 ;.V a a 8 q V _ | | b 4 , - = > < 2 5 5 5 6 5 6 6 6 5 5 2 2 1 < - = % # + o o @ = 4 W s.s.k.s._ D | s.3.: . . .     ",
"    . . % Q V a 5 5 5 5 a q V V S h 0 2 1 1 2 5 5 5 5 5 2 1 1 < - - - * % # @ + + + @ % , s Y s.s.s.9.| S q q 9 | s.n + . .     ",
"  . . o , V a 5 5 5 5 5 5 5 5 5 a a q a a 6 5 5 5 5 5 2 1 - = * % % $ # $ # $ $ & , 4 b %.s.h.s.h.s._ 9 5 5 5 5 q ;.3.; . . .   ",
"  . . + 4 7 5 5 6 5 5 2 1 1 2 5 5 5 5 5 5 5 6 5 6 8 5 5 2 < - = * = = : , 3 4 c / 3.s.h.9.9.;._ 9.s.L 5 5 a 5 6 6 K s.4 o . .   ",
"  . . $ < < 5 5 5 5 1 < - - 1 5 5 5 5 6 5 6 5 5 6 5 5 6 5 6 5 5 6 0 K R L _ ;.} ;.%.~ U S V a a _ s.-.a 5 5 5 5 5 a _ ~ + . .   ",
". . X % > - 5 5 6 5 < - - - < 5 5 5 5 5 8 5 5 6 5 5 6 8 5 5 5 5 a 6 6 a a a q q a a a a 5 a 5 5 q U V a 5 6 5 5 6 a V ;.; . . . ",
". . X * - > 1 5 5 5 < - - - - 5 8 5 5 6 6 6 5 5 6 5 5 5 5 6 6 5 5 5 5 a 5 5 5 5 8 8 5 5 8 5 a 5 a a a 5 5 a 5 5 5 5 a ;.3 . . . ",
". . X * - - < 5 5 5 1 - - - < 5 6 6 5 5 5 5 5 a 5 5 6 5 5 5 5 5 5 5 5 5 5 5 5 5 5 a 6 5 5 6 5 5 5 8 5 5 5 5 5 5 5 5 a L 4 o . . ",
". . o = - - - 1 5 5 2 > - < 2 5 5 6 8 6 5 5 5 5 5 6 5 5 5 6 5 6 5 5 6 6 5 5 6 a 5 5 5 5 5 8 6 5 6 5 5 5 a 5 5 5 5 5 5 q b o . . ",
". . O = - - - < 2 5 5 5 2 2 5 5 5 5 5 5 6 5 5 5 5 5 6 6 5 5 5 5 6 5 5 5 5 5 5 5 5 5 8 6 6 5 5 6 5 5 5 a V q a 5 5 5 5 5 f + . . ",
". . O = - - - < < 2 5 5 5 5 5 5 5 5 5 5 5 5 6 6 6 6 5 6 5 5 6 6 5 5 5 6 5 5 5 5 6 5 6 5 5 6 5 5 5 5 5 V 9.9.9 6 5 1 1 1 2 + . . ",
". . O = - - - - - < 2 5 5 5 6 5 5 5 5 5 5 5 6 6 6 6 5 5 6 5 5 5 6 6 8 5 5 5 5 5 5 5 5 5 5 5 5 5 a 5 a S s.s.D 5 2 > > < , + . . ",
". . X * - - < - - < < 1 5 5 5 5 5 5 5 5 5 5 6 5 5 5 6 5 6 5 5 5 5 5 6 5 5 5 5 5 5 6 5 6 6 5 5 5 5 5 5 q ;.;.V 5 2 > - - * o . . ",
". . X * - - - - - - - < < 1 5 5 1 1 5 5 5 5 5 5 6 5 6 5 6 6 6 5 5 a 5 8 5 5 5 5 5 5 5 6 5 5 5 5 6 5 5 a V q 5 2 1 > - - % . . . ",
". . . # - - - - < - - > - < 1 1 > < 5 5 5 5 5 5 5 5 5 5 5 5 5 5 5 5 5 5 5 5 5 5 6 5 6 5 5 5 5 5 5 5 5 5 5 2 1 < - - - - # . . . ",
". . . o $ - - - - - - - - - - - - < 1 5 5 5 5 5 5 6 5 5 5 5 5 5 5 5 6 5 5 5 5 5 5 5 6 5 5 5 5 5 5 5 2 1 < > > - - - = % o . . . ",
"  . . . o # * - - - - - - - - - - > < < < 1 5 5 5 5 5 5 5 6 5 5 5 6 5 5 5 5 5 5 2 5 5 2 5 1 2 1 < < > > > - > - - % @ o X . .   ",
"  . . . . o + # % - - - - - < - - > - > > > < < < < 1 1 1 1 2 1 1 1 2 1 1 1 1 1 1 1 1 < < < - - > - - > - - * % @ O X . . .     ",
"    . . . . . o + # % * - - - - - < - - - - - - - - - < > > > < < < < < - < - - - - - - - - - - - - - = % $ @ o . . . . . .     ",
"      . . . . . . . X + # % * - - - - - - - > > - - - - - > > > - - - - - - - - - - - - - - - - = * # @ O X . . . . . .         ",
"          . . . . . . . X X O @ # * * = - - - > - > - - > - > > - - - - - < - - - - = - = % % # + O X . . . . . . .             ",
"              . . . . . . . . . X o O + + @ # # # * = * * = = = = - * = * * * % % # # @ + O X X . . . . . . . .                 ",
"                    . . . . . . . . . . . X X o O O O O + + + @ @ + + O + O O O o o X . . . . . . . . . .                       ",
"                          . . . . . . . . . . . . . . . . . . . . . . . . . . . . . . . . . . . . .                             ",
"                                  X . . . . . . . . . . . . . . . . . . . . . . . . . . . . .                                   ",
"                                            . . . . . . . . . . . . . . . . . . . .                                             "
};
