/* XPM */
static char *_4911e5625cd4bc0b29fcdc3986cfb7b8OPD2rXa0znxzUQN[] = {
/* columns rows colors chars-per-pixel */
"64 64 21 1 ",
"  c None",
". c #615D63",
"X c #625E64",
"o c #635F65",
"O c #6D696F",
"+ c #6E6A70",
"@ c #6E6A71",
"# c #716D74",
"$ c #77737A",
"% c #78747A",
"& c #7F7B81",
"* c #7F7B82",
"= c #868289",
"- c #89858C",
"; c #8A868D",
": c #8F8B92",
"> c #908C93",
", c #928E95",
"< c #938F96",
"1 c #938F97",
"2 c #949097",
/* pixels */
"                                                                ",
"                                                                ",
"                                                                ",
"                                                                ",
"                                                                ",
"                                                                ",
"                                                                ",
"                                                                ",
"                                                                ",
"                                                                ",
"                                                                ",
"                                                                ",
"                                                                ",
"                                                                ",
"                                          <><><<><<<            ",
"                                          <<<<<><<><            ",
"            <<<><<                      <<<<><<<<<><><          ",
"            ><<><>                      =-:2<<>>><><<<          ",
"          ><<<<<<<<<                    @%-2<<<<<><<<>          ",
"          <<<>><<:==                    .O*-:>><<<<><<          ",
"          <><><<2-%@                      O$-<<<><<>            ",
"          <<<<<>-&@.                      .@=<<<><<<            ",
"            ><<-%@                                              ",
"            <<<=O.                                              ",
"                                                                ",
"                                                                ",
"                                                                ",
"                                                                ",
"                                                                ",
"                                                                ",
"                                                                ",
"                                                                ",
"                                                                ",
"                                                                ",
"                                                                ",
"                                                                ",
"                                                                ",
"                                                                ",
"                                                                ",
"                                                                ",
"                                                                ",
"                                                                ",
"                                                                ",
"                                                                ",
"                                                                ",
"                                                                ",
"                                                                ",
"                                                                ",
"                                              .@=<<<<>          ",
"                                              O$-<<<<>          ",
"              <<<=@.                        .O&-:<<><<><        ",
"              <<<-$O                        @%-<<><<><<<        ",
"            <><<<:-&OO                      =-><<<><<><>        ",
"            <<<>><2-@.                      <<<<<><<<<<<        ",
"            <<<><<<:                          <<<<>>            ",
"            >><<><<<                          ><><<<            ",
"                                                                ",
"                                                                ",
"                                                                ",
"                                                                ",
"                                                                ",
"                                                                ",
"                                                                ",
"                                                                "
};
