/* XPM */
static char *_c35c3034719438fb40574bbfc88d085uWFFZJ55WL98RBwy[] = {
/* columns rows colors chars-per-pixel */
"64 64 41 1 ",
"  c None",
". c #140C00",
"X c #180F00",
"o c #1C1100",
"O c #231500",
"+ c #271801",
"@ c #2C1B01",
"# c #311F01",
"$ c #352101",
"% c #3B2501",
"& c #3F2803",
"* c #402701",
"= c #442B01",
"- c #492E01",
"; c #4D3102",
": c #543501",
"> c #583701",
", c #563805",
"< c #5C3A02",
"1 c #623E01",
"2 c #664102",
"3 c #6B4401",
"4 c #6F4806",
"5 c #694408",
"6 c #6F4908",
"7 c #714700",
"8 c #764B00",
"9 c #794D01",
"0 c #744C08",
"q c #794F08",
"w c #7E5104",
"e c #7C5109",
"r c #835405",
"t c #885706",
"y c #875806",
"u c #895907",
"i c #835509",
"p c #865809",
"a c #8C5B09",
"s c #915F0A",
"d c #94610A",
/* pixels */
"                          ..X..                                 ",
"                         .o@%@X.                                ",
"                         X;ep0*.                                ",
"                        X@55605O                                ",
"           .ooX         .$1><<5OX                               ",
"          .@15&X        .#>,>1,X                                ",
"          o5ad0+.        o%;:-+.                                ",
"          O0dpp;.        .o$$+X                                 ",
"          o,i9t0O.        X$;%X                                 ",
"          .#599p&X        .%>-O.                                ",
"           X*39u5oX       .$>:O.       ......           ......  ",
"           .o:8ri$.       X#>:@.      .X$-%+.X         .X+=&+XX ",
"            X+<9y1o       X$>:#.     Xo-333<#..       ..=0ii6%X.",
"             X#2ie@X      X$>>%.     .$28731<+X       X$eddyp5o.",
"              X%0y:X      X$>>*X    .X-111><1%.      Xo2spar9q@X",
"              .o;w0+X     .$:>-XX   .X-><<>>1-X      X&ti9r980+.",
"               .O<p;X     X#>>-O.   .X$--:,,<%.     .o2uq9898<oX",
"                .#70O.    .@:>:+.   ..o++@$--+.     X%ir8983:+X ",
"                 X=w;X    .#:>:#....o+@@@+oo+X.    .O5i987<%OX. ",
"                 XO10@.  ..#>>>-O.o&,5080<;@..    ..-i983-+X.   ",
"   ooX            X%0,O  .X=>>>>$o,isddssdaq;o.   .+0r81%X.X    ",
" X@;:&O           .o18-O..O->>>,$$6qqrrritadi;o. .O,w7>@X.      ",
"X+5iiq;o           X;87-++#-<,;*+@%%-17889qtsi#..o=q8:+..       ",
".;e2155@          .X*898;:073:#+@$$$#*198999pa,Xo%68>+..        ",
"o,1,>>1&X        .Xo*8897398<$%<0iirq0qr98889u1+*391+..         ",
"o=>,>><:%+X      X@<18988893*:ipirwwwrrtr988993<797%X.          ",
".+;>>>178<$OX   .X,p998889990rr8888888899898989988,o.           ",
" X#-;=;2373:#oX..o6i8988899ut888889888887788988887$.            ",
"  Xo+oo+$=>33:%#+$2w8889889r9988888898881<7889888<o......       ",
"        ..X@;383337988889899898988988887<<3888887%.Xo@&$oX      ",
"           Xo$38998898888898888889988888337988873&$-<eau<+.     ",
"             X#3888888988888988888888988889888<%28wippuap,XX    ",
"            .Xo*788888889888898888898889898889>O>89999satq+.    ",
"            .O::7888898888898889898888888888886O:88889ttri#.    ",
"            .$78888r999898888888889988889888996O:88888999i#.    ",
"            .$88888rr8997388988888878898888989<O>988988899+X    ",
"    .....   .O<98719r881<17888888811188889889q%X%<898889e<o.    ",
"  .X+%=$o.  ..$288%,i981><789889871>179888889,oXX+;799895@..    ",
" .+,8iie=X   XX#<7*%i9881188888887<><788889q<+...Xo%131:@XX     ",
".o5aiwwi1o    .X#1:@7t899888888888717889883=+X.   .X+@+OX.      ",
".#esr889<o     XX-1#-ttq998989889988987>%$@+@o..    .X..        ",
".+6p9993$X      X#1>+,asiiw99rrir981111-@@#==O..                ",
".X&273<$o.      .+17-@:qadssau0,:11<<>>;--:>$XX.                ",
" .X+##+X.      X.#383=#$:155,;$$;1>>-%##$*-%OO$XX               ",
"   .X..      ..X+>111<*#+@###$-<11>-@XXXXoOXX$>#.               ",
"            ..O*<11>-%#@O$#@=>397<:#..   ...X%<:O..             ",
"           .X#;17<:%+XXXO=$O#>287>-o.      XXO%<;+X..           ",
"          .X#>791:#X....@-O.X$>37>=X.       ..O*<>%+o...        ",
"          .o;<77<*o.  .X**XX.o-171-oX         .o-13<-%@X..      ",
"          X+><31>+.   .+:@. .X%<31-O.         ..#>1371<-+..     ",
"          Xo=><>*oX   X$:O.  .@:33>+.          XX=><<133<@.     ",
"          ..+*-*+.   Xo;-X   .+:181$X           X#>>>>>39:XX    ",
"           XXXOo..   .#<%.   XO:183=X.          .O;>>>>332O.    ",
"             ...X   .O-<@.   .o:<73:O.          .X*>>><131O.    ",
"                    X#>>o.   .X->11:+X           X@>>><37:X.    ",
"                   .+;<-o.   XX=>>>:+X           .o=>>>21@X     ",
"                  XX$><=X     X@->>*o.            .O%==%+XX     ",
"                  .+:>,$X     .X@%$oX             ..XooX..      ",
"                 Xo->>,@.      X.X..                ....        ",
"                 .$<>><+.                                       ",
"                 .@512,o.                                       ",
"                 Xo;21$.                                        ",
"                  .o++X.                                        ",
"                   ..XX                                         "
};
