/* XPM */
static char *_5fa8fcebdc04576a96c38e36b5189e9pq7XSteiwAY9YDU4[] = {
/* columns rows colors chars-per-pixel */
"64 64 204 2 ",
"   c None",
".  c #010102",
"X  c #070709",
"o  c #090709",
"O  c #0A090B",
"+  c #0E0304",
"@  c #1B0C0E",
"#  c #14090A",
"$  c #0F0F11",
"%  c #130F11",
"&  c #1B0F12",
"*  c #121215",
"=  c #161619",
"-  c #181619",
";  c #1A1B1E",
":  c #191517",
">  c #290D0E",
",  c #2E0F10",
"<  c #26191C",
"1  c #341112",
"2  c #3C1213",
"3  c #3D1A1C",
"4  c #3F1719",
"5  c #1A1D20",
"6  c #3B1E21",
"7  c #1F2326",
"8  c #242426",
"9  c #262528",
"0  c #29292B",
"q  c #27272B",
"w  c #362428",
"e  c #2F2D31",
"r  c #332E32",
"t  c #3B2F33",
"y  c #2D3236",
"u  c #2F3539",
"i  c #333235",
"p  c #38383C",
"a  c #421415",
"s  c #491819",
"d  c #591A1B",
"f  c #6B1F1F",
"g  c #631C1D",
"h  c #461E21",
"j  c #541F21",
"k  c #6D1F20",
"l  c #503034",
"z  c #6B2122",
"x  c #6A2829",
"c  c #752425",
"v  c #622E31",
"b  c #673234",
"n  c #723134",
"m  c #363D42",
"M  c #3A3E43",
"N  c #5C3C41",
"B  c #3B4146",
"V  c #3C4348",
"C  c #454649",
"Z  c #4C4A4D",
"A  c #414348",
"S  c #54484D",
"D  c #4B4D52",
"F  c #574B51",
"G  c #535256",
"H  c #555459",
"J  c #5B5B5C",
"K  c #56565B",
"L  c #774C50",
"P  c #5C5C62",
"I  c #5C646A",
"U  c #576168",
"Y  c #5F6A72",
"T  c #636264",
"R  c #676569",
"E  c #78656C",
"W  c #626C73",
"Q  c #6C6E75",
"!  c #726E76",
"~  c #647077",
"^  c #677279",
"/  c #75737B",
"(  c #77767A",
")  c #8E2929",
"_  c #832728",
"`  c #932B2B",
"'  c #992D2D",
"]  c #8A383A",
"[  c #913537",
"{  c #A32F2F",
"}  c #A63030",
"|  c #AC3232",
" . c #A73C3E",
".. c #AD3D3E",
"X. c #B23434",
"o. c #B44D3C",
"O. c #CA6737",
"+. c #863E41",
"@. c #8B4345",
"#. c #9E4B4C",
"$. c #9B4649",
"%. c #984D51",
"&. c #81555A",
"*. c #9B5155",
"=. c #98575B",
"-. c #A5474A",
";. c #B1534D",
":. c #9E6D5F",
">. c #B66844",
",. c #A2725F",
"<. c #935E64",
"1. c #AA5F62",
"2. c #946164",
"3. c #976568",
"4. c #8D6C72",
"5. c #966C73",
"6. c #8A747C",
"7. c #8F7A7A",
"8. c #91787B",
"9. c #B6686A",
"0. c #A26964",
"q. c #DB7948",
"w. c #CC654C",
"e. c #C77676",
"r. c #D5867A",
"t. c #E8997C",
"y. c #F0A579",
"u. c #7A7C84",
"i. c #847D86",
"p. c #8B7A83",
"a. c #837E88",
"s. c #847780",
"d. c #927B83",
"f. c #7D838B",
"g. c #77848C",
"h. c #7F8790",
"j. c #85838C",
"k. c #88848D",
"l. c #888889",
"z. c #99868C",
"x. c #848A93",
"c. c #8A8993",
"v. c #8B8A93",
"b. c #928D96",
"n. c #86959E",
"m. c #8B939C",
"M. c #91949D",
"N. c #9C9C9D",
"B. c #929495",
"V. c #B0888D",
"C. c #8797A0",
"Z. c #8A9AA3",
"A. c #8A97A0",
"S. c #9197A1",
"D. c #979EA7",
"F. c #95A1AB",
"G. c #98A3AC",
"H. c #92A0A7",
"J. c #97A6B0",
"K. c #99A7B1",
"L. c #9BABB5",
"P. c #9CAEB8",
"I. c #9DB1BB",
"U. c #A2A2A3",
"Y. c #ABACAC",
"T. c #A7A6AB",
"R. c #A4B4BD",
"E. c #ADB6BD",
"W. c #B8B8BA",
"Q. c #A7AAB1",
"!. c #C69B9D",
"~. c #E5B6B2",
"^. c #D9ABAB",
"/. c #F9CBB7",
"(. c #F5C9B6",
"). c #AAB9C2",
"_. c #A8B7C0",
"`. c #BCBEC4",
"'. c #B6C3CA",
"]. c #BCC9D0",
"[. c #C8C9CA",
"{. c #C3CED3",
"}. c #C5D2D9",
"|. c #CAD6DD",
" X c #C9D4D9",
".X c #DCDCDC",
"XX c #D1D5D8",
"oX c #D4C7C9",
"OX c #D7DDE2",
"+X c #CEDCE2",
"@X c #DDE4E8",
"#X c #E2E2E2",
"$X c #E3E9EC",
"%X c #ECECEC",
"&X c #E1E5E9",
"*X c #FAEAE3",
"=X c #F8E7E4",
"-X c #E6EEF2",
";X c #E9EFF2",
":X c #ECF4F8",
">X c #F2F4F5",
",X c #FBFCFD",
"<X c #F6FBFD",
"1X c #E8DADB",
/* pixels */
"                                                        . . . .                                                                 ",
"                                                        o o O O                                                                 ",
"                                                        @ @ @ @                                                                 ",
"                                                      > 1 2 2 1 ,                                                               ",
"                                          O X . X . # 1 d k k d 1 @ O                                                           ",
"                                        X . X X X O @ s k c _ z a @ O .                                                         ",
"                                        X X o o O @ , j n [ [ x h @ O .                                                         ",
"                                        . X o @ > 1 j x +.$.+.b 6 % . . .                                                       ",
"                                        X X # > a k c +.%.<.&.N w % . . . . . . . . . . . . .                                   ",
"                                        . X @ 1 g c [ $.<.4.E F t - O . . X X X X X X X X X X X                                 ",
"                                        . O & 4 x [ -.1.5.6.! P M q 5 5 5 5 5 5 5 5 ; ; ; ; 5 5                                 ",
"                                        . . @ 6 b +.*.<.4.s.u.W P D M m m M m m m m B M B B m u q                               ",
"                                        . . % 9 N &.3.5.p.s.u.u.u.Y W Y Y Y Y W Y Y Y Y W Y I D u ; X                           ",
"                                        . X : e F E s.p.p.p.a.c.h.h.C.C.C.C.C.C.C.C.C.Z.Z.C.g.I m 5 X .                         ",
"                                        * = 9 N P u.c.v.b.b.S.D.P.R.).).)._.).)._._._.).'._.H.^ V ; X .                         ",
"                                      5 9 y M G Q a.S.D.T.Y.W.`.}.}.+X|.+X|.|.|.|.+X+XOX+X|.).f.D 8 X .                         ",
"                                  X = 9 p S P Q u.C.J.E.`.[.XX1X@X$X-X;X;X-X;X%X-X-X:X>X>X-X[.B.K 8 X .                         ",
"                                . X = e Z R u.j.n.D.R.`.XX&X%X>X>X>X>X>X>X>X>X>X>X>X>X>X>X%XXXN.J 9 X .                         ",
"                                . X = i G u.j.S.D.L.E.{.OX>X<X>X%X#X.X.X.X.X.X.X.X.X.X#X#X.X[.l.G 8 X .                         ",
"                                . X - p P u.S.D.J.L.).}.-X>X>X#X[.Y.U.N.N.N.U.U.Y.U.U.Y.Y.U.l.T p ; X .                         ",
"                                . X 5 m P h.D.L.L.P.).}.$X>X%XoXN.( J G G J J J T T T T T J Z p 8 * o .                         ",
"                                . X 5 M Y n.J.P.L.P.).}.$X>X#XY.( C 0 8 8 0 0 0 8 0 0 0 0 0 8 < * O X .                         ",
"                                . X 5 M Y C.L.I.P.P._.}.$X>X#XW.( C 0 8 8 0 8 ; * O O * ; 8 8 5 * O X X                         ",
"                                . X 5 V ~ C.P.I.I.P.).}.$X>X%X[.N.( J G K J Z y = X X = p Z Z M 9 * o .                         ",
"                                . X 5 B W C.P.I.I.P.).}.&X>X>X#X[.Y.U.N.U.N.l.J e $ $ e T l.l.R A ; X .                         ",
"                                . X 5 B Y C.L.I.P.P.).].OX>X,X>X*X.X.X#X#X.X`.l.Z 8 8 J B.W.W.B.K 8 X .                         ",
"                                . X 5 M W n.K.P.P.P._.].+X$X>X>X>X>X>X<X,X,X#XY.^ C C ( Y.#X.XY.T 9 X .                         ",
"                                . X ; m I x.D.L.L.P.I.`.}.OX@X@X$X$X;X<X,X,X>X[.N.( u.U.XX>X#XY.R 0 O .                         ",
"                                . X - p P u.S.D.K.P._._.'.].{.}.}.}.+X-X<X,X,X$X[.W.W.XX%X,X$XY.R 0 o .                         ",
"                                . X = i H / c.S.F.K.P.I.I._._._.E.).'.XX$X>X,X>X%X#X#X%X,X,X.XN.T 8 X .                         ",
"                                . X = r Z R / j.S.D.K.K.L.L.K.J.D.D.Y.`.oX1X=X*X*X*X*X*X*X=XoXz.K 8 O .                         ",
"                                  X = 9 M Z P ! g.m.Z.J.Z.Z.S.b.z.d.V.V.!.^.~.~././././.(.~.!.4.S < O .                         ",
"                                      5 8 y N G Q a.m.M.M.m.c.d.5.1.1.9.9.e.e.t.t.y.y.y.t.e.9.L l < X .                         ",
"                                        $ = 7 M P u.a.c.c.a.p.5.<.;.-...;.;.;.w.q.q.r.O.w.O.$.n s & X .                         ",
"                                        . O = r F E p.d.p.s.4.<.*.-. . . . ...o.O.O.O.O.o.o.[ x 3 & X .                         ",
"                                        . . % w N &.<.<.<.<.<.=.*.%.-.$.$.-.-.;.>.>.>.>.;.-.] v 3 & X .                         ",
"                                        . X @ 3 v +.$.-.*.-.%.*.=.<.<.<.<.<.<.2.:.,.,.,.3.<.L N w : X .                         ",
"                                        . o @ 3 x [  ..... .-.*.<.4.6.6.6.6.6.7.7.8.8.8.8.6.E F r = X .                         ",
"                                        o o @ 6 x [  ..... .-.*.4.6.i.j.j.i.i.i.a.a.i.k.k.i.! G i = X .                         ",
"                                      a @ # & 6 b @.%.-.-.#.*.<.4.6.i.a.f.f.i.i.a.a.a.a.k.a.! G i = o .                         ",
"                                  | _ d 1 @ : w N &.<.<.<.<.<.4.6.i.u.a.a.a.i.a.a.a.a.a.a.a.! G i = X .                         ",
"                                X.| ` k 1 @ : r F E s.p.p.d.p.p.s.i.a.a.a.j.a.a.a.a.a.k.k.a.! G i = X .                         ",
"                                X.| ' k 2 @ = y G ! a.a.d.a.a.a.j.k.k.k.k.k.k.k.k.k.k.c.c.k./ H i - X .                         ",
"                              X.X.| ' z a @ = y H u.a.v.a.c.c.c.v.M.M.S.S.m.M.M.M.M.M.S.D.S.u.P p ; X .                         ",
"                          | | X.X.| ` k 2 @ * y H u.a.v.c.k.v.m.S.D.F.F.G.G.F.G.G.G.G.K.K.D.x.Y m ; X .                         ",
"                        | | | X.X.| ` k a @ - y D ! u.a.i.a.j.x.S.F.J.L.K.J.J.J.J.K.K.L.L.K.x.Y M ; X .                         ",
"                        | | | X.X.| ' c s , < t Z T ! / / ! / u.x.x.C.C.C.C.C.C.C.C.C.Z.Z.C.g.U p ; X .                         ",
"                      X.| | | | X.| { _ k d s l N F F G G G H P I W ~ ~ ~ ~ ~ ~ W ~ ~ ~ ^ ~ I D y = X .                         ",
"                  X.| | | X.| X.X.| { ' ) c x j l t i i i i i p M B V V V V V V V V V V V V m y 7 * .                           ",
"                | | | | | | | | | | } } } ' _ z h < = = = = = ; ; ; 5 ; ; 5 5 ; 5 5 5 ; 5 ; ; = $ O                             ",
"                { { { { { { { { { { { } | { ) f a @ X X . X X X X X X X X X X X X X X X X X X X X                               ",
"                ) ` ) ` ) ` ) ) ) ` ` ` ' ` _ d 1 + . . . . . . . . . . . . . . . . . . . . . .                                 ",
"                  c f z k f f f f f f c c k g s > + . . . . . . . . . . . . . . . . . . . . .                                   ",
"                                                                                                                                ",
"                                                                                                                                ",
"                                                                                                                                ",
"                                                                                                                                ",
"                                                                                                                                ",
"                                                                                                                                ",
"                                                                                                                                ",
"                                                                                                                                ",
"                                                                                                                                ",
"                                                                                                                                ",
"                                                                                                                                "
};
