/* XPM */
static char *c487b5cadba04d138f5872fd864f67100oYFY22G0hLC6o3Q[] = {
/* columns rows colors chars-per-pixel */
"64 64 205 2 ",
"   c None",
".  c #010102",
"X  c #070709",
"o  c #090709",
"O  c #0A0A0B",
"+  c #0C0507",
"@  c #1B0C0E",
"#  c #140809",
"$  c #0E0E10",
"%  c #120F11",
"&  c #1C0E11",
"*  c #121214",
"=  c #161619",
"-  c #181619",
";  c #16191C",
":  c #1A1B1E",
">  c #1B1113",
",  c #290D0E",
"<  c #3C1314",
"1  c #3B1A1C",
"2  c #371416",
"3  c #291416",
"4  c #1B1D20",
"5  c #3B1F21",
"6  c #211F23",
"7  c #1F2326",
"8  c #242326",
"9  c #252528",
"0  c #29292B",
"q  c #27272B",
"w  c #362428",
"e  c #2E2D31",
"r  c #332D32",
"t  c #2E3337",
"y  c #333235",
"u  c #3C3A3D",
"i  c #36373C",
"p  c #421314",
"a  c #471A1B",
"s  c #591A1A",
"d  c #641D1D",
"f  c #6B1F1F",
"g  c #4C1F21",
"h  c #6C1F20",
"j  c #55363A",
"k  c #6B2122",
"l  c #6A282A",
"z  c #782627",
"x  c #612E31",
"c  c #673234",
"v  c #723134",
"b  c #363D42",
"n  c #3A3E43",
"m  c #423F44",
"M  c #5E3C40",
"N  c #3B4146",
"B  c #3D4449",
"V  c #424145",
"C  c #454549",
"Z  c #4B4A4E",
"A  c #48484E",
"S  c #58454A",
"D  c #4D4C51",
"F  c #464E53",
"G  c #554D53",
"H  c #535355",
"J  c #555559",
"K  c #5B5B5C",
"L  c #59565C",
"P  c #774B50",
"I  c #5C5B62",
"U  c #625D64",
"Y  c #5C646B",
"T  c #576168",
"R  c #5F6A72",
"E  c #636264",
"W  c #666369",
"Q  c #69686C",
"!  c #78656C",
"~  c #626C73",
"^  c #6C6C73",
"/  c #736E76",
"(  c #667279",
")  c #75737B",
"_  c #7A767E",
"`  c #777778",
"'  c #882829",
"]  c #942B2B",
"[  c #9A2D2D",
"{  c #8A383A",
"}  c #913637",
"|  c #A22F2F",
" . c #A53030",
".. c #AC3232",
"X. c #A73C3E",
"o. c #AD3D3E",
"O. c #B23434",
"+. c #BA3636",
"@. c #B44C3C",
"#. c #CA6737",
"$. c #863D40",
"%. c #8B4346",
"&. c #9D4A4C",
"*. c #9B4748",
"=. c #984D51",
"-. c #82565B",
";. c #9B5155",
":. c #98575B",
">. c #A34C4F",
",. c #A64446",
"<. c #A44E51",
"1. c #B1534C",
"2. c #9A695F",
"3. c #B56643",
"4. c #A1715D",
"5. c #935E63",
"6. c #AA5F62",
"7. c #976468",
"8. c #8D6C72",
"9. c #966C73",
"0. c #8A747C",
"q. c #8C797B",
"w. c #91787B",
"e. c #A16863",
"r. c #B6686A",
"t. c #DB7948",
"y. c #CC654C",
"u. c #C77676",
"i. c #D5867A",
"p. c #E8997C",
"a. c #F0A579",
"s. c #7C7A82",
"d. c #7A7C85",
"f. c #847C85",
"g. c #8B7A83",
"h. c #927B83",
"j. c #7D838C",
"k. c #77848C",
"l. c #86838C",
"z. c #89858E",
"x. c #888889",
"c. c #99868C",
"v. c #848B94",
"b. c #8A8993",
"n. c #898993",
"m. c #928D96",
"M. c #86959E",
"N. c #8B939D",
"B. c #9C9C9D",
"V. c #929499",
"C. c #B0888D",
"Z. c #8797A0",
"A. c #8E95A1",
"S. c #8B99A3",
"D. c #8798A0",
"F. c #9C9EA7",
"G. c #919AA4",
"H. c #95A2AC",
"J. c #98A3AC",
"K. c #97A7B1",
"L. c #98A7B1",
"P. c #9BABB5",
"I. c #9CAEB8",
"U. c #9DB1BB",
"Y. c #A2A2A3",
"T. c #ABACAC",
"R. c #A7A6AB",
"E. c #A4B4BD",
"W. c #ADB6BD",
"Q. c #B8B8BA",
"!. c #A7AAB1",
"~. c #C69B9D",
"^. c #E5B6B2",
"/. c #D9ABAB",
"(. c #F9CBB7",
"). c #F5C9B6",
"_. c #AAB9C2",
"`. c #A8B7C0",
"'. c #BCBEC4",
"]. c #B6C3CA",
"[. c #BCC9D0",
"{. c #C8C9CA",
"}. c #C3CED3",
"|. c #C5D2D9",
" X c #CAD6DD",
".X c #C9D4D9",
"XX c #DCDCDC",
"oX c #D1D5D8",
"OX c #D4C7C9",
"+X c #CEDCE2",
"@X c #D7DDE2",
"#X c #DDE4E8",
"$X c #E2E2E2",
"%X c #E3E9EC",
"&X c #ECECEC",
"*X c #E1E5E9",
"=X c #FAEAE3",
"-X c #F8E7E4",
";X c #E6EEF2",
":X c #E9EFF2",
">X c #ECF4F8",
",X c #F2F4F5",
"<X c #FBFCFD",
"1X c #F6FBFD",
"2X c #E8DADB",
/* pixels */
"                                                                                                                                ",
"                                                                                                                                ",
"                                                                                                                                ",
"                                                                                                                                ",
"                                                          X .                                                                   ",
"                                                        X X X .                                                                 ",
"                                                        @ @ @ @                                                                 ",
"                                                      3 2 < < < ,                                                               ",
"                                          X X . . . # 2 s d d s < @ X                                                           ",
"                                        X X X . X o @ a k z ' k a @ X .                                                         ",
"                                        X . X o O @ 2 g v } } l a & X .                                                         ",
"                                        X X O & , 2 s v $.$.%.v 5 @ . . .                                                       ",
"                                        . X # , p s z $.=.-.-.M w % . . . . . . . . . . . . .                                   ",
"                                        X X & < d ' } =.5.8.! G r = X . . X X X X X X X X X X X                                 ",
"                                        . X @ < l } $.6.9.0./ I V e 4 4 ; 4 4 4 ; : : 4 ; : : :                                 ",
"                                        . . @ 5 c %.;.6.8.g.s.~ I B N b b n b N N n N b N n b t q                               ",
"                                        . . & w M P 9.9.g.f.s.d.d.( ~ ( ~ R R R R R R R ~ R T F t ; X                           ",
"                                        . X - r S ! g.g.g.f.f.n.k.H.k.k.M.M.M.M.D.D.D.D.D.D.k.Y N 4 X .                         ",
"                                        % - 9 m I s.z.b.m.m.V.F.U.E.W.].].U.W._._.`._.].].`.B.( B 4 X .                         ",
"                                      : 9 r n H ^ j.V.F.R.!.Q.'.}.|. X+X+X X X X.X+X+X+X+X XW.j.D 6 X .                         ",
"                                  X = 9 u Z I ^ j.N.J.W.].{.oXXX#X%X:X:X;X;X;X;X;X;X:X>X,X&X}.V.J 9 X .                         ",
"                                . X = e Z W s.l.A.G.E.].oX*X=X,X,X,X,X,X,X,X,X,X>X,X,X1X,X,XoXB.K q X .                         ",
"                                . X = y J s.l.A.G.P.`.}.$X,X,X,X&X$XXXXXXX$XXXXX$X$XXX$X$XXXQ.x.H 8 X .                         ",
"                                . X = i I d.A.F.L.P._.|.%X1X,X$X{.T.Y.B.B.B.Y.Y.Y.Y.Y.T.T.Y.x.E u : X .                         ",
"                                . X ; b Y l.H.L.P.P._.|.%X,X&X{.B.^ K H H K K E E E E E E K H u 8 * X .                         ",
"                                . X ; n ~ M.J.I.P.U._.|.%X,X$XQ.` C 0 8 8 0 0 0 0 0 8 0 0 0 8 : * O X .                         ",
"                                . o 4 B ~ D.P.U.I.I._.|.%X,XXXQ.` C 0 8 8 0 8 - * O O * : 8 8 7 * O X X                         ",
"                                . o ; B ~ D.I.U.U.I._.|.*X,X&X{.B.` K H K H Z y = X O : y Z Z u q * X .                         ",
"                                . X : B ( M.I.U.I.I.`.}.#X1X,X$X{.T.Y.Y.Y.B.x.K e $ $ y E x.x.Q V : o .                         ",
"                                . X ; B ~ M.I.U.I.I._.}.#X,X<X,X&X$XXX$X$XXXQ.x.D 8 8 H x.'.Q.m.J 8 X .                         ",
"                                . X ; n ~ v.L.I.P.I._.].oX%X,X1X,X,X,X<X<X<X$XT.^ C C ` Q.XXXXR.E 0 X .                         ",
"                                . X ; n Y v.H.P.P.I.E.].}.@X#X#X#X%X:X<X<X<X,X{.Y.` s.Y.oX,X%XT.Q 0 X .                         ",
"                                . X - b I d.G.H.L.I.U._.'.[.}.|.|..X@X;X1X<X<X%X{.Q.Q.oX;X1X%XT.E 0 X .                         ",
"                                . X - y L ) n.A.H.P.U.U.`.`.`.`.E._.]..X#X,X<X,X&X$X$X&X<X<XXXB.E 0 X .                         ",
"                                . X - e A W s.l.A.G.L.L.K.K.H.H.J.F.R.Q.OX2X-X-X=X=X=X=X=X-XOXc.H 8 X .                         ",
"                                  . % 9 u D I ^ d.A.S.H.H.S.A.m.c.c.C.C.~./.^.).(.(.(.(.).^.~.8.S 6 X .                         ",
"                                      4 9 r n J ( d.A.A.A.N.n.h.9.e.6.r.r.u.u.p.p.a.a.a.p.i.r.P j & X .                         ",
"                                        % - 9 m I s.z.n.n.g.g.9.:.,.,.,.1.1.1.y.t.t.t.t.y.1.*.v a @ X .                         ",
"                                        + + = r G ! 0.g.h.g.8.5.<.,.X.X.X.X.+.@.#.#.#.#.@.@.} l 1 @ X .                         ",
"                                      p # + % 5 M -.5.5.5.5.5.5.;.;.&.*.*.*.>.1.3.3.3.3.1.,.%.x 5 & X .                         ",
"                          ....+.+.O.' s , # @ 1 l $.>.>.>.>.&.;.:.5.5.5.5.5.5.5.2.4.4.4.7.:.P M w > X .                         ",
"                        ......O.O...] f 2 @ & 1 l } X.o.o.X.,.;.5.8.0.g.0.0.0.0.w.q.w.w.w.0.! G r = X .                         ",
"                        ......O.O...] k < @ & 1 l $.o.o.o.X.,.:.7.g.f.f.l.l.z.l.z.z.x.b.b.z.) J y ; X .                         ",
"                      ........O.O...] k < @ & 5 c $.>.<.>.&.:.5.8.f.z.n.N.A.A.A.A.A.A.G.G.A.j.T i ; X .                         ",
"                  ............O.O...[ h p & > w M -.7.7.5.5.5.8.0.s.z.N.A.G.K.H.J.K.K.L.P.H.v.R n : X .                         ",
"                ..............O.O...[ f < @ - y G ! g.g.h.g.g.g.f.f.f.N.A.K.K.K.K.K.K.P.P.K.v.R N : X .                         ",
"                ..........| | | ..| ' d < @ - 0 m W / s.f.f.f.f.f.f.n.z.v.M.Z.Z.D.D.Z.D.S.M.k.T i ; X .                         ",
"                  ....| [ ] ] ] ] ' z s 2 @ * 9 b A I W s.s.z.z.f.f.f.d.d.( ( ~ ( ~ ( ( ( ( T F t = X .                         ",
"                        z z f f k f s p , # O ; 9 e n H Q f.f.b.b.f.s.^ I F B N N B B B B B b t 7 * .                           ",
"                                            o X $ = 9 n I / f.z.z.f./ I n 0 4 ; ; : : : 4 4 : * * X                             ",
"                                              . . X = r Z U / _ f.s.^ G y = X . . X X X X X X X X                               ",
"                                                . . $ 6 u Z L W ^ ! W Z 0 % . . . . . . . . . .                                 ",
"                                                  . X = 8 e u A L U I m 9 % . . . . . . . . .                                   ",
"                                                    X O $ = 6 r m G G n 8 % . . . .                                             ",
"                                                      . . X % 8 y m m r 4 % . . .                                               ",
"                                                        . . X ; 9 e e 8 = O X . .                                               ",
"                                                          . X * - 6 ; = % o . . .                                               ",
"                                                            . O O $ $ $ X X . X .                                               ",
"                                                              . X . X . . X X . .                                               ",
"                                                                . . . . . . X .                                                 ",
"                                                                  . . . . . .                                                   ",
"                                                                                                                                ",
"                                                                                                                                ",
"                                                                                                                                "
};
