/* XPM */
static char *_d12ce1634584e46f1d315da94bb018cKMuJb7Exi4QeGepT[] = {
/* columns rows colors chars-per-pixel */
"64 64 209 2 ",
"   c None",
".  c #010102",
"X  c #070709",
"o  c #090709",
"O  c #0B0A0C",
"+  c #090508",
"@  c #13090B",
"#  c #1B0C0D",
"$  c #150405",
"%  c #0E0F11",
"&  c #130F11",
"*  c #1B0E11",
"=  c #0E1315",
"-  c #131315",
";  c #171719",
":  c #181619",
">  c #1A1B1E",
",  c #181719",
"<  c #2A0D0E",
"1  c #28191B",
"2  c #3B1314",
"3  c #391719",
"4  c #2C0F10",
"5  c #1A1D20",
"6  c #3D1F21",
"7  c #1D2125",
"8  c #242426",
"9  c #262529",
"0  c #29292C",
"q  c #27282B",
"w  c #352327",
"e  c #2F2D31",
"r  c #342E32",
"t  c #343236",
"y  c #35353A",
"u  c #3B3A3E",
"i  c #36383D",
"p  c #2F3539",
"a  c #431415",
"s  c #48191A",
"d  c #5E1B1C",
"f  c #541919",
"g  c #631C1D",
"h  c #461F21",
"j  c #541F21",
"k  c #6A1F20",
"l  c #4A2D30",
"z  c #4F3236",
"x  c #6B2223",
"c  c #68282A",
"v  c #762425",
"b  c #682D30",
"n  c #6B3234",
"m  c #3A3E43",
"M  c #363D42",
"N  c #5D3E42",
"B  c #4F3D42",
"V  c #3A4146",
"C  c #3C4348",
"Z  c #454649",
"A  c #4C4A4E",
"S  c #444449",
"D  c #56484C",
"F  c #4C4C51",
"G  c #464F54",
"H  c #564E54",
"J  c #55555A",
"K  c #5B5B5C",
"L  c #565559",
"P  c #744C51",
"I  c #5B5C62",
"U  c #685E65",
"Y  c #5D646B",
"T  c #576168",
"R  c #5F6A72",
"E  c #636264",
"W  c #65646A",
"Q  c #69696A",
"!  c #78656C",
"~  c #626C73",
"^  c #6C6E74",
"/  c #746D75",
"(  c #647077",
")  c #67747B",
"_  c #76737B",
"`  c #78767A",
"'  c #872828",
"]  c #952C2C",
"[  c #9E2E2E",
"{  c #8A383A",
"}  c #923637",
"|  c #AC3232",
" . c #A63C3E",
".. c #AA3839",
"X. c #B33434",
"o. c #BB3636",
"O. c #A12F2F",
"+. c #B44C3C",
"@. c #CA6737",
"#. c #873E41",
"$. c #AE3F40",
"%. c #9D4A4C",
"&. c #9A4749",
"*. c #985559",
"=. c #894D51",
"-. c #A74648",
";. c #A75659",
":. c #B3524A",
">. c #9A695F",
",. c #B56643",
"<. c #A1715D",
"1. c #925E62",
"2. c #9E5C60",
"3. c #AA5F62",
"4. c #976469",
"5. c #8D6C72",
"6. c #966C73",
"7. c #8A747C",
"8. c #89767A",
"9. c #91787B",
"0. c #826066",
"q. c #A36866",
"w. c #B6686A",
"e. c #A2747A",
"r. c #DB7948",
"t. c #CC654C",
"y. c #C77676",
"u. c #D5867A",
"i. c #E8997C",
"p. c #F0A579",
"a. c #7A7C84",
"s. c #8C7A83",
"d. c #847A83",
"f. c #927B83",
"g. c #7D838C",
"h. c #77858D",
"j. c #7F8A93",
"k. c #85858C",
"l. c #88858E",
"z. c #888889",
"x. c #98858B",
"c. c #848A93",
"v. c #8A8992",
"b. c #878790",
"n. c #938D95",
"m. c #938F98",
"M. c #86959E",
"N. c #8A939D",
"B. c #9C9C9D",
"V. c #93949A",
"C. c #A6838A",
"Z. c #AD8F95",
"A. c #8797A0",
"S. c #8E96A0",
"D. c #8C99A3",
"F. c #8798A0",
"G. c #9196A1",
"H. c #9C9DA6",
"J. c #919DA7",
"K. c #95A2AC",
"L. c #99A3AC",
"P. c #92A0A7",
"I. c #97A6B0",
"U. c #98A6B1",
"Y. c #9BABB5",
"T. c #9CAEB8",
"R. c #9DB1BB",
"E. c #A2A2A3",
"W. c #ABACAC",
"Q. c #A7A6AB",
"!. c #A4B4BD",
"~. c #ADB6BD",
"^. c #BEBEBF",
"/. c #B5B5B8",
"(. c #A7AAB1",
"). c #C69B9D",
"_. c #E5B6B2",
"`. c #D9ABAB",
"'. c #F9CBB7",
"]. c #F5C9B6",
"[. c #AAB9C2",
"{. c #A8B7C0",
"}. c #BCBEC4",
"|. c #B6C3CA",
" X c #BCC9D0",
".X c #C8C9CA",
"XX c #C3CED3",
"oX c #C5D2D9",
"OX c #CAD6DD",
"+X c #C9D4D9",
"@X c #DCDCDC",
"#X c #D1D5D8",
"$X c #D4C7C9",
"%X c #CEDCE2",
"&X c #D7DDE2",
"*X c #DDE4E8",
"=X c #E2E2E2",
"-X c #E3E9EC",
";X c #ECECEC",
":X c #E1E5E9",
">X c #FAEAE3",
",X c #F8E7E4",
"<X c #E6EEF2",
"1X c #E9EFF2",
"2X c #ECF4F8",
"3X c #F2F4F5",
"4X c #FBFCFD",
"5X c #F6FBFD",
"6X c #E8DADB",
/* pixels */
"                                                                                                                                ",
"                                                                                                                                ",
"                                                                                                                                ",
"                                                                                                                                ",
"                                                          X .                                                                   ",
"                                                        X X X X                                                                 ",
"                                                        * # # #                                                                 ",
"                                                      4 2 2 2 2 4                                                               ",
"                                          X o . . . @ 2 f k k f 2 # X                                                           ",
"                                        X X . o . o # s k ' v k a * X .                                                         ",
"                                        X X X o % * 4 j v #.} v s * X .                                                         ",
"                                        X X O @ < 2 j c #.&.=.n 6 * . . .                                                       ",
"                                        . X @ < a d v #.=.1.=.N w & . . . . . . . . . . . . .                                   ",
"                                        . o # 2 d ' { &.1.5.! H t ; X . . X X X X X X X X X X X                                 ",
"                                        . X # 3 v #.$.2.6.7./ I B q 5 5 5 5 5 5 > 5 5 5 > > > >                                 ",
"                                        . . * 6 b #.*.4.5.d.a.W T C V M M M M M m M m V V M M p q                               ",
"                                        . . & w N =.5.6.7.d.a.a.) h.( R ~ ~ ~ ~ R R R R R R T G p > X                           ",
"                                        . o : r D ! s.s.s.d.k.v.j.j.j.j.j.M.M.j.M.F.F.F.F.F.h.T M 5 X .                         ",
"                                        % ; 9 B I _ l.n.m.m.G.H.R.!.{.|.|.{.!.|.{.[.[.|.|.~.P.) S > X .                         ",
"                                      > 9 e m J ^ j.V.H.Q.(./.}. XoXOXOX%X%XOXOXOXOX%X&X%X+X~.g.G 7 X .                         ",
"                                  o - 9 u F I ^ g.N.L.(..X.X#X6X-X-X1X1X1X<X1X<X<X<X<X2X3X<XXXV.L 9 X .                         ",
"                                . o : e A U _ k.N.K.!.|.#X:X;X;X3X3X2X3X3X3X3X3X3X3X3X5X5X>X#XB.K 9 X .                         ",
"                                . X ; p J a.b.G.J.U.[.XX*X1X4X3X;X=X@X@X@X@X@X@X@X@X@X=X=X@X^.z.H 8 X .                         ",
"                                . X ; y I d.G.J.U.Y.[.oX-X3X3X=X.XW.E.B.B.E.E.E.E.W.E.W.W.E.z.Q u > X .                         ",
"                                . X > M Y c.K.U.Y.T.[.oX-X5X-X.XB./ K L L K K K E E E E E K F u 8 = X .                         ",
"                                . X > m Y M.I.Y.T.T.[.oX-X3X=X/.` Z 8 8 8 8 0 0 0 0 8 0 0 0 8 5 - O X X                         ",
"                                . X > V ~ A.T.R.T.T.[.oX-X3X=X/.` Z 0 8 8 8 8 > = O O - > 8 8 5 - O X X                         ",
"                                . o 5 V ( F.T.R.R.T.[.XX*X3X,X.XB./ K K K K A t ; X X , t A A u 9 - X .                         ",
"                                . X 5 V ( F.Y.R.T.T.[.XX*X5X3X=X.XW.E.E.E.B.z.K e % % t K z.z.Q u > X .                         ",
"                                . X > V ~ M.Y.!.T.T.{.XX*X3X5X3X;X@X@X=X=X@X^.z.A 8 8 L n.^.^.V.K 8 X .                         ",
"                                . X > V ~ M.K.T.T.T.~.|.OX-X3X5X3X3X3X4X4X4X=XW.^ Z Z ` /.@X@XE.E 0 O .                         ",
"                                . X > i Y c.K.U.Y.T.!.|.oX@X*X*X*X<X;X4X4X4X3X.XB.a.` E.#X3X-XW.Q 0 X .                         ",
"                                . o : y I a.G.U.U.T.R.[.|. X XoXoXoX%X-X5X4X4X-X.X/./.+X;X5X=XW.Q 0 X .                         ",
"                                . o : p J _ v.G.K.Y.R.R.{.{.[.{.R.|.}.#X:X3X4X3X>X=X-X;X4X4X@XE.K 0 X .                         ",
"                                . X ; e A W a.d.S.J.I.I.I.I.U.H.P.E.Q.^.$X6X,X,X>X>X>X>X>X,X$Xx.L 8 X .                         ",
"                                  . & 9 m F I / a.A.J.K.J.J.S.m.x.x.C.Z.).`._.].'.'.'.'.]._.).5.N 8 X .                         ",
"                                      5 9 r m J ) k.N.S.S.c.v.f.6.3.3.3.w.y.y.).p.p.p.p.i.u.w.P l , X .                         ",
"                                        & : 9 m I _ b.v.v.b.s.6.2.%.-.$.:.:.+.t.@.u.@.r.t.:.-.n h * X .                         ",
"                                        $ + - r H ! 7.s.s.7.5.1.*.-.$.$. . .o.@.@.@.@.@.+.+.{ x s # X .                         ",
"                                      a $ + @ w B =.1.1.1.1.1.*.*.%.-.-.#.&.-.:.,.,.,.,.:.-.&.z 6 & X .                         ",
"                                  o.] d < $ @ 3 b #.&.-.%.%.%.*.*.1.1.1.1.1.1.1.>.<.<.<.4.*.P n w : X .                         ",
"                                o.| ' d 2 # * 3 c }  . .$.$.$.*.1.5.5.d.7.7.7.7.9.9.9.9.f.7.! H r , X .                         ",
"                                [ ] ' c h 1 1 l c } $.$.$.-.-.3.6.s.d.c.b.b.v.d.l.l.z.v.v.b._ J t , X .                         ",
"                              ' v v x c l i z N P &.;.;.;.3.w.f.f.m.S.J.J.S.S.D.S.S.S.D.S.A.a.I i , X .                         ",
"                  | | | X.| [ v d f h l B H I U 0.4.6.6.f.f.x.Z.H.L.K.I.K.I.K.I.K.I.I.I.I.J.j.Y m > X .                         ",
"                | | | X.X.| ] v a 3 1 r A U / 7._ 7.s.f.Z.B.L.K.L.U.U.U.U.U.U.U.I.I.I.Y.Y.I.c.~ V > X .                         ",
"                | | | X.X.| ] k a # - 0 Z U / / / / _ a.l.N.F.F.D.A.M.A.A.A.A.A.M.A.F.J.I.I.M.~ m > X .                         ",
"                  | | X.X.| ] k 2 # % 5 M A L L J J I I Y ~ ( ) ) ( ( ( ~ ( ~ ~ ~ ( a.h.A.S.j.Y m > X .                         ",
"                      o.o.| ] x a # O = 7 p t y y y y i M V C C C C V C C C V V m m G W a.b.a.W i , X . .                       ",
"                        X.| ] v a # O O % - ; ; , , ; > > > 5 5 5 5 5 > 5 5 > > 5 5 e Z W a._ L y ; X . .                       ",
"                        | O.' x a # X X X X X X X X X X X X X X O X X X X X X . . X : r F U U A e - . . .                       ",
"                        ' ' v g 2 @ X . . . . . . . . . . . . . . . . . . . . . . . O 9 m Z S y 8 & . . .                       ",
"                          g g a < @ . . . . . . . . . . . . . . . . . . . . . . . . X > 8 0 0 8 - O . . .                       ",
"                                                                                    X % - - - & O X X . .                       ",
"                                                                                      . . X X . . . X X .                       ",
"                                                                                        . . . . . X . . .                       ",
"                                                                                          . . . . . . .                         ",
"                                                                                                                                ",
"                                                                                                                                ",
"                                                                                                                                ",
"                                                                                                                                ",
"                                                                                                                                ",
"                                                                                                                                ",
"                                                                                                                                "
};
