/* XPM */
static char *b7ff0bb6461d4fd7eb315fa72434e832je4xyQzvgvy0jC83[] = {
/* columns rows colors chars-per-pixel */
"64 64 208 2 ",
"   c None",
".  c #010102",
"X  c #070709",
"o  c #08070A",
"O  c #0B0A0C",
"+  c #0A0608",
"@  c #1C0C0E",
"#  c #150809",
"$  c #0F0E11",
"%  c #120F11",
"&  c #190F11",
"*  c #131215",
"=  c #161619",
"-  c #181619",
";  c #17191C",
":  c #1A1B1E",
">  c #1C1113",
",  c #0F1318",
"<  c #2A0C0D",
"1  c #2A1619",
"2  c #361112",
"3  c #3D1415",
"4  c #3C191C",
"5  c #371C1E",
"6  c #2F0E0F",
"7  c #1B1D20",
"8  c #231F22",
"9  c #391E21",
"0  c #242326",
"q  c #262529",
"w  c #29292C",
"e  c #27282B",
"r  c #352428",
"t  c #2E2D31",
"y  c #322E32",
"u  c #333236",
"i  c #333539",
"p  c #39363B",
"a  c #3B3A3E",
"s  c #37363A",
"d  c #431415",
"f  c #4A1617",
"g  c #581A1B",
"h  c #631D1E",
"j  c #6B1F1F",
"k  c #481F21",
"l  c #6D1F20",
"z  c #651F20",
"x  c #57383C",
"c  c #492F2E",
"v  c #692426",
"b  c #732222",
"n  c #7A2627",
"m  c #612D31",
"M  c #653235",
"N  c #743335",
"B  c #6D4229",
"V  c #3A3D42",
"C  c #413E43",
"Z  c #4C3D41",
"A  c #3B4146",
"S  c #3D4449",
"D  c #454549",
"F  c #4C494E",
"G  c #454347",
"H  c #58474B",
"J  c #4D4D51",
"K  c #474D52",
"L  c #574C52",
"P  c #4C5154",
"I  c #545355",
"U  c #54545A",
"Y  c #5B5B5C",
"T  c #58595D",
"R  c #695855",
"E  c #774B4F",
"W  c #5B5B62",
"Q  c #615E65",
"!  c #5D646B",
"~  c #5E6166",
"^  c #636264",
"/  c #65636A",
"(  c #686B6D",
")  c #78656C",
"_  c #626D74",
"`  c #6C6D74",
"'  c #736E76",
"]  c #756F78",
"[  c #647077",
"{  c #67737A",
"}  c #75737C",
"|  c #77767A",
" . c #832626",
".. c #8D2929",
"X. c #842929",
"o. c #942C2C",
"O. c #9B2D2D",
"+. c #903537",
"@. c #8A3435",
"#. c #A22F2F",
"$. c #A53131",
"%. c #AC3232",
"&. c #A63C3D",
"*. c #AB3C3D",
"=. c #B23333",
"-. c #B83535",
";. c #9D5227",
":. c #BC5639",
">. c #AC513C",
",. c #C35E33",
"<. c #C16029",
"1. c #C96636",
"2. c #863D40",
"3. c #8B4346",
"4. c #9C494C",
"5. c #9A4447",
"6. c #86565B",
"7. c #965559",
"8. c #92534F",
"9. c #A2484A",
"0. c #B94D4F",
"q. c #B6554A",
"w. c #A54F52",
"e. c #AE5654",
"r. c #BF7149",
"t. c #B9694E",
"y. c #8F5B62",
"u. c #925D62",
"i. c #996568",
"p. c #8A747B",
"a. c #8F7A7B",
"s. c #927C7C",
"d. c #926C73",
"f. c #A57463",
"g. c #AC7072",
"h. c #8E614D",
"j. c #C25940",
"k. c #C16F5C",
"l. c #C97972",
"z. c #B5867B",
"x. c #7B7B84",
"c. c #897A83",
"v. c #977C83",
"b. c #7C838B",
"n. c #77848C",
"m. c #7F8A93",
"M. c #85848D",
"N. c #89858D",
"B. c #8A8C8D",
"V. c #848A93",
"C. c #8B8A93",
"Z. c #898992",
"A. c #938E94",
"S. c #86959E",
"D. c #8C939D",
"F. c #8F9396",
"G. c #97979B",
"H. c #99868D",
"J. c #A69592",
"K. c #8797A0",
"L. c #8E96A1",
"P. c #8B99A2",
"I. c #9197A1",
"U. c #939BA5",
"Y. c #949FA9",
"T. c #95A2AC",
"R. c #9BA3AA",
"E. c #97A6B0",
"W. c #98A6B1",
"Q. c #9AABB5",
"!. c #9CAEB9",
"~. c #97A8B2",
"^. c #9EB1BB",
"/. c #A3A3A4",
"(. c #A9AAAA",
"). c #B9A5A9",
"_. c #A3B4BD",
"`. c #ACB4B8",
"'. c #BBBABB",
"]. c #A7ABB2",
"[. c #D48181",
"{. c #CB8D8F",
"}. c #D2A5A2",
"|. c #EBBCBC",
" X c #AAB9C2",
".X c #A7B9C3",
"XX c #F0BFC0",
"oX c #B7C3CA",
"OX c #BCC9D0",
"+X c #C7C9CA",
"@X c #D6C6C6",
"#X c #C2CED4",
"$X c #C5D1D7",
"%X c #C6D2D8",
"&X c #CDD7DD",
"*X c #DCDCDC",
"=X c #D1D6D9",
"-X c #D4CED1",
";X c #E3C5C5",
":X c #D3DBE0",
">X c #DCE3E6",
",X c #E2E2E2",
"<X c #E3EAED",
"1X c #E8EAEB",
"2X c #F5E6E6",
"3X c #ECF1F4",
"4X c #F2F4F5",
"5X c #F7F9FA",
/* pixels */
"                                                                                                                                ",
"                                                                                                                                ",
"                                                                                                                                ",
"                                                                                                                                ",
"                                          X X . X . . . X . .                                                                   ",
"                                        X X X + X X o o X X X X                                                                 ",
"                                        X X + O % & @ @ & @ @ @                                                                 ",
"                                        . X O @ 6 3 d d d d d 2 6                                                               ",
"                                        X X % 6 f z b b b l z g 2 @ X                                                           ",
"                                        . X @ 2 g X.o.#.#.o.n z 4 @ X .                                                         ",
"                                        X X @ 3 z X.O.$.*.&.+.n 4 & X .                                                         ",
"                                          X @ 2 g z n +.2.5.2.M 9 @ . . .                                                       ",
"                                              < 6 d k M E 7.6.H r & . . . . . . . . . . . . .                                   ",
"                                                # @ 9 c R ) ) L p - o . . X X X X X X X X X X X                                 ",
"                                                % = q V W ] } W G e 7 ; ; 7 7 7 : 7 7 7 : 7 : ;                                 ",
"                                              7 7 t V P Q x.x.` W K S V A A A A A A A A A A A i w                               ",
"                                          . $ 0 p F U / ' x.x.x.n.n.[ [ [ n.[ [ [ { [ { { { ! P i ; X                           ",
"                                        . o = y F / ] x.x.c.c.Z.m.m.m.m.m.m.m.m.m.P.m.m.P.m.n.! A 7 X .                         ",
"                                        % = q V W } M.N.N.M.Z.D.T.~.!.!.^.^.~.!.^.^.^.^.^.!.m.[ A 7 X .                         ",
"                                      : 0 y C U ` M.D.G.A.D.D.I.T.!.^.^.^.^.^.^.^.^.^.^..X^.K._ A : X .                         ",
"                                  X = q p F W ' M.D.U.T.U.U.U.T.~.!.!.!.^.!.!.!.^.!.^.^._.^.K._ A : X .                         ",
"                                . o = t F / } M.D.T.W.~.~.~.~.~.~.!.!.!.!.!.!.!.^.^.^.^.^.!.K.[ A 7 X .                         ",
"                                . X ; u U } Z.I.T.~.!._._._. X X.XoX.X.X.XoXoX.XoX.X.XoXoX_.T.{ S 7 X .                         ",
"                                . X ; i W c.I.Y.~.~._. XoX#X#X$XOXOX&XOX%X%XOX%XOX%XOX%X:X%X`.b.P 0 X .                         ",
"                                . X ; a ! V.T.Q.Q.Q._.oX%X:X>X<X<X<X<X<X<X<X<X<X<X<X<X3X3X<X+XF.U 0 X .                         ",
"                                . X : V ! S.~.!.Q.!._.OX&X1X4X4X4X4X4X4X4X4X4X4X4X4X4X5X5X3X-XG.Y 0 X .                         ",
"                                . X 7 A _ S.!.^.!.!. X#X>X4X5X4X3X,X*X*X*X=X*X*X*X*X*X,X,X*X'.B.I 0 X .                         ",
"                                . X 7 S [ S.!.^.^.^.`.#X,X5X4X*X+X(./.G.G./././././.(.(.(./.B.^ a : X .                         ",
"                                . X 7 A [ K.!.^.^.!. X$X<X4X2X+XG.| Y I Y Y Y Y Y ^ ^ ^ ^ Y P a 0 * X .                         ",
"                                . X 7 A _ K.Q.^.!.!. X$X<X4X,X`.| D w 0 0 e w w e w w w w w 0 : * O X X                         ",
"                                . X : V _ V.~.!.Q.!..X$X<X4X,X'.| D w 0 0 w 0 7 * O O * : 0 0 8 * O X .                         ",
"                                . X : a ! m.T.~.Q.!. X$X<X4X1X+X/.| Y Y Y Y P i ; O O 7 a P P V e * X .                         ",
"                                . o - V W x.L.Y.W.Q. X%X<X5X5X,X+X(././.(./.z.! u * * s ( z.B.[ S : O X                         ",
"                                . X = y U } Z.L.Y.Q..X=X>X4X5X5X1X,X*X*X,X*X'.n.P 0 0 P m..X'.B.Y 0 X X                         ",
"                                . X 7 t F / x.c.D.Y.]. X=X>X4X2X2X2X2X2X2X,X+XJ.R r c ^ /.@X@XB.Y 0 X X                         ",
"                                  . , 8 V F W ` x.D.]. X X+X-X;X;X;X|.|.XX|.}.z.h.B B h.z.}.}.z.H 8 X .                         ",
"                                      7 8 u V U ` x.L.W.].].).).{.{.[.[.[.[.l.r.>.;.;.:.k.l.g.6.x 1 X .                         ",
"                                        % - e C W x.c.A.A.H.H.v.g.e.0.0.:.q.q.q.:.<.<.<.,.j.9.N k & X .                         ",
"                                        # + - y L ) c.c.c.c.d.u.w.5.&.&.&.&.>.:.,.1.1.1.0.*.+.m 4 @ X .                         ",
"                                      d # + & 9 Z y.u.u.u.y.y.7.8.4.5.5.5.5.4.q.t.r.r.r.q.9.+.M 5 & X .                         ",
"                                  =...g < # & 5 M 2.w.w.9.4.4.7.7.y.y.y.y.y.u.i.f.f.f.f.i.7.E Z r > X .                         ",
"                                -.%.o.j 3 @ @ 4 v +.&.*.*.&.w.w.u.d.p.p.p.c.p.p.a.a.s.s.v.p.) L y - X .                         ",
"                                -.%.o.j 3 @ @ 4 m +.*.*.*.*.9.7.d.c.c.V.Z.M.N.N.N.N.N.N.C.N.} U u ; X .                         ",
"                              =.=.%.o.v 3 @ % 5 M 2.w.e.w.w.7.i.v.A.L.U.L.L.L.I.L.L.I.I.I.K.x.W s ; O .                         ",
"                  %.%.%.%.%.%.=.=.%.o.l 3 @ * r Z y.u.u.i.i.d.v.A.U.T.W.E.E.T.T.T.E.E.E.E.Y.m.! a ; O .                         ",
"                %.%.%.%.%.%.%.=.=.%.o.l d @ = y L ) p.v.c.p.c.Z.I.Y.E.~.E.E.W.W.E.E.E.Q.Q.E.S.! A : X .                         ",
"                %.%.%.%.%.%.%.=.=.%.O.b f 2 1 y F Q ' ] ] ] } x.M.S.K.K.K.K.K.K.S.K.P.Y.E.E.S._ A : X .                         ",
"                  %.%.=.%.%.%.%.=.%.#.X.l g k c Z L I U U U U ~ / _ _ [ [ [ [ [ _ [ { m.S.L.V.! V ; X .                         ",
"                      =.%.%.%.=.=.%.#.O...n v m c s u i i u i s V A A S S S S A V A K ! x.Z.x.Q a ; X . .                       ",
"                        %.%.%.%.%.%.%.#.#.O.X.v d 1 = , = = = ; ; 7 7 : 7 7 7 : 7 7 t D Q x.} T i = X . .                       ",
"                        O.O.$.#.#.#.#.$.$.#...j 3 @ X X . X X X X X X X X X o o o , 8 p U Q Q J y * . . .                       ",
"                         .....o...o.o.o.O.o. .g 2 # . . . . . . . . . . . . . o % : q s C F F p q * . . .                       ",
"                          h j j j j j b b b h f < + . . . . . . . . . . . . X = 8 y s s u y t q ; O .                           ",
"                                                                    . . . . $ 7 u V C p w : * % O o                             ",
"                                                                      . . X $ 8 y C C u 0 $ X . .                               ",
"                                                                      . . . $ - e u y e - X . .                                 ",
"                                                                      . . X o * - 7 8 : % X .                                   ",
"                                                                      . X . X X $ O $ $ O .                                     ",
"                                                                      . . X . X . X X . .                                       ",
"                                                                        X . . . . . . .                                         ",
"                                                                          . . . . . .                                           ",
"                                                                                                                                ",
"                                                                                                                                ",
"                                                                                                                                "
};
