/* XPM */
static char *_753e2be5c294ff8846ff7619b2e0de1YAqLVocWTuOWDT1q[] = {
/* columns rows colors chars-per-pixel */
"64 64 208 2 ",
"   c None",
".  c #010102",
"X  c #070709",
"o  c #090709",
"O  c #0B0A0C",
"+  c #0D0507",
"@  c #13090B",
"#  c #1B0C0E",
"$  c #1B0708",
"%  c #0F0E11",
"&  c #140F11",
"*  c #131315",
"=  c #161619",
"-  c #181619",
";  c #17191C",
":  c #1A1B1E",
">  c #1E1012",
",  c #0D1012",
"<  c #2A0D0F",
"1  c #261A1C",
"2  c #3C1314",
"3  c #381719",
"4  c #2C0F10",
"5  c #1A1D20",
"6  c #3D1F21",
"7  c #1D2124",
"8  c #242426",
"9  c #262529",
"0  c #29292C",
"q  c #27272B",
"w  c #342326",
"e  c #2F2D31",
"r  c #332E32",
"t  c #343236",
"y  c #35353A",
"u  c #3C3A3E",
"i  c #3A3539",
"p  c #2F3539",
"a  c #421415",
"s  c #461A1C",
"d  c #56191A",
"f  c #661D1E",
"g  c #451F21",
"h  c #541F21",
"j  c #6A1F20",
"k  c #701F20",
"l  c #522F32",
"z  c #6A2223",
"x  c #692729",
"c  c #762526",
"v  c #612F32",
"b  c #6B3234",
"n  c #3B3E43",
"m  c #363D42",
"M  c #473E43",
"N  c #5C3C40",
"B  c #3A4146",
"V  c #3C4348",
"C  c #454649",
"Z  c #4C4A4E",
"A  c #444449",
"S  c #56474B",
"D  c #4D4B51",
"F  c #474E53",
"G  c #554D53",
"H  c #594E54",
"J  c #545355",
"K  c #55545A",
"L  c #5B5A5D",
"P  c #58565C",
"I  c #784D51",
"U  c #5C5C62",
"Y  c #575C63",
"T  c #625E66",
"R  c #5B636A",
"E  c #5F6A72",
"W  c #636264",
"Q  c #66636A",
"!  c #69686D",
"~  c #78656C",
"^  c #626D74",
"/  c #6C6D74",
"(  c #736D76",
")  c #647077",
"_  c #6A7279",
"`  c #75727A",
"'  c #79747D",
"]  c #777778",
"[  c #872828",
"{  c #9A2D2D",
"}  c #932B2C",
"|  c #89393B",
" . c #913537",
".. c #AC3232",
"X. c #A63C3E",
"o. c #AA3839",
"O. c #B33434",
"+. c #B83535",
"@. c #A22F2F",
"#. c #B44C3C",
"$. c #CA6737",
"%. c #8A4245",
"&. c #9D4A4C",
"*. c #9B4648",
"=. c #974E51",
"-. c #9A5559",
";. c #82555A",
":. c #A5474A",
">. c #A44E51",
",. c #B1534C",
"<. c #9A695F",
"1. c #B56643",
"2. c #A1715D",
"3. c #935D62",
"4. c #AA5F62",
"5. c #9A6369",
"6. c #976467",
"7. c #8D6C72",
"8. c #966C73",
"9. c #8A747C",
"0. c #8F7A7A",
"q. c #91787B",
"w. c #A16863",
"e. c #B6686A",
"r. c #DB7948",
"t. c #CC654C",
"y. c #C77676",
"u. c #D5867A",
"i. c #E8997C",
"p. c #F0A579",
"a. c #7C7A83",
"s. c #797C85",
"d. c #827C85",
"f. c #8C7A83",
"g. c #847780",
"h. c #957C83",
"j. c #7E848C",
"k. c #77858D",
"l. c #84848C",
"z. c #89858E",
"x. c #888889",
"c. c #99868C",
"v. c #848A93",
"b. c #8A8992",
"n. c #878791",
"m. c #938D96",
"M. c #86959E",
"N. c #8A939C",
"B. c #9C9C9D",
"V. c #929499",
"C. c #B0888D",
"Z. c #8797A0",
"A. c #8E95A0",
"S. c #8C99A3",
"D. c #8798A0",
"F. c #9196A1",
"G. c #9C9EA7",
"H. c #939DA7",
"J. c #96A2AC",
"K. c #98A3AC",
"L. c #97A6B0",
"P. c #98A6B1",
"I. c #9AABB5",
"U. c #9CAEB8",
"Y. c #97A8B2",
"T. c #9DB1BB",
"R. c #A2A2A3",
"E. c #ABACAC",
"W. c #A7A6AB",
"Q. c #A4B4BD",
"!. c #ADB6BD",
"~. c #BEBEBF",
"^. c #B5B5B8",
"/. c #A7AAB1",
"(. c #C69B9D",
"). c #E5B6B2",
"_. c #D9ABAB",
"`. c #F9CBB7",
"'. c #F5C9B6",
"]. c #AAB9C2",
"[. c #A8B7C0",
"{. c #BCBEC4",
"}. c #B6C3CA",
"|. c #BCC9D0",
" X c #C8C9CA",
".X c #C3CED3",
"XX c #C5D2D9",
"oX c #CAD6DD",
"OX c #C9D4D9",
"+X c #DCDCDC",
"@X c #D1D5D8",
"#X c #D4C7C9",
"$X c #CEDCE2",
"%X c #D7DDE2",
"&X c #DDE4E8",
"*X c #E2E2E2",
"=X c #E3E9EC",
"-X c #ECECEC",
";X c #E1E5E9",
":X c #FAEAE3",
">X c #F8E7E4",
",X c #E6EEF2",
"<X c #E9EFF2",
"1X c #ECF4F8",
"2X c #F2F4F5",
"3X c #FBFCFD",
"4X c #F6FBFD",
"5X c #E8DADB",
/* pixels */
"                                                        . . . X                                                                 ",
"                                                        X X X X                                                                 ",
"                                                        # # # #                                                                 ",
"                                                      4 2 a 2 4 4                                                               ",
"                                          X X . . X @ 2 d f j d 2 # X                                                           ",
"                                        X X X X X X # s j c [ z a > X .                                                         ",
"                                        X X o o o & 4 h c  . .x s # X .                                                         ",
"                                        . X + $ < 2 h x %.*.%.b 6 & . . .                                                       ",
"                                        X X @ < a j c | =.3.;.N w & . . . . . . . . . . . . .                                   ",
"                                        . X & 2 f c  .*.3.7.~ G t - o . X . X X X X X X X X X X                                 ",
"                                        . X > a j | :.4.8.g.( U n q 5 5 5 5 - 5 : 5 : : ; ; 5 ;                                 ",
"                                        . . & 6 b %.-.3.8.g.a.^ Y F n m n n m m B m B n B B B p q                               ",
"                                        . X # w N ;.5.8.f.g.a.s._ ) ^ E E ^ ^ E E E E E ^ E R F p ; X                           ",
"                                        . o - r G ~ g.f.f.d.d.b.v.Z.Z.Z.Z.M.Z.Z.M.M.S.S.S.Z.k.R B : X .                         ",
"                                        % = 9 n U a.n.m.m.m.B.G./.Q.[.[.[.[.[.[.[.[.[.].}.[.H._ C 5 X .                         ",
"                                      5 9 r n K / s.A.G.W.W.^.{..XXX$X$X$XoX$XoX$XoX$X$X$X$X[.j.F 7 X .                         ",
"                                  X = q u Z U / j.N.K.^.{. X@X*X*X=X,X<X<X<X<X<X<X<X<X<X1X-X XV.K 8 X .                         ",
"                                . X = e Z Q ' l.N.J.T.}.@X*X-X2X2X2X2X2X2X2X2X2X2X2X2X3X4X-X@XB.L 9 X .                         ",
"                                . X = t K ' n.F.H.Y.[..X&X2X2X2X-X*X+X+X+X+X+X+X+X+X+X*X*X+X~.x.J 8 X .                         ",
"                                . X - y U s.F.H.P.U.[.XX=X4X2X*X XE.R.B.B.B.R.R.R.R.E.R.E.R.x.W u : X .                         ",
"                                . X ; m R v.H.P.Y.U.[.OX=X2X>X XB.] L J J L L L W W W W W L J i 8 , X .                         ",
"                                . X 5 n ^ N.P.I.I.U.].XX=X2X+X^.] C 0 7 8 0 0 0 0 0 0 0 0 0 8 : * O X .                         ",
"                                . X 5 B ^ Z.I.T.T.U.].XX=X2X*X^.] C 0 8 8 0 8 : , O O * 7 8 8 7 * O X X                         ",
"                                . X 5 B ) S.U.T.T.T.[..X=X2X-X XB.] L J J L Z t = X X = t Z Z u 9 * o .                         ",
"                                . X : B ) Z.U.T.T.U.].XX;X2X2X*X XE.R.R.R.B.x.L e , , t W x.x.W n : X .                         ",
"                                . X 5 B E Z.I.U.U.U.].|.&X2X3X2X-X5X+X*X*X+X~.x.Z 7 8 J x.~.~.V.L 8 X .                         ",
"                                . X : B ^ N.P.U.U.I.[.|.@X,X2X4X2X2X2X3X3X3X+XE.] C C ] ^.+X+XE.W 9 X .                         ",
"                                . X ; u R v.H.I.I.U.Q.}..X$X&X&X=X=X<X4X3X3X2X XB.s.] R.@X2X*XE.! 0 O .                         ",
"                                . X ; y Y s.F.G.P.U.Q.].}.|..XXXXXoX$X,X4X3X3X=X X^.~.@X-X3X=XE.W 0 X .                         ",
"                                . X ; t K ' b.F.J.Y.U.T.Q.[.[.[.[.].}.@X=X2X3X2X-X*X*X-X3X3X+XR.W q X .                         ",
"                                . X = e Z T a.l.N.H.P.Y.Y.Y.Y.J.H.G.E.~.#X5X>X:X:X:X:X:X:X>X#Xc.L 9 X .                         ",
"                                  . * q u D U / j.N.H.J.H.S.A.m.c.h.C.C.(._.).).`.`.`.`.'.).(.7.M 1 X .                         ",
"                                      5 9 r n H / j.N.F.N.N.b.h.8.w.4.e.e.y.y.(.p.p.p.p.i.y.e.I l > X .                         ",
"                                        % - 9 n U a.f.b.b.z.f.8.-.>.:.X.,.,.t.t.$.u.r.r.r.#.:.b s # X .                         ",
"                                        + O = r G ~ f.f.f.g.7.3.>.:.X.X.X.X.+.+.$.$.$.$.#.#. .x 3 > X .                         ",
"                                      a $ + & w N ;.3.3.3.3.3.-.-.&.&.*.*.*.#.,.1.1.1.1.,.:.| v 3 & . .                         ",
"                                  O.} d < @ # 6 v %.&.>.>.>.>.-.-.3.3.3.3.3.3.3.<.2.2.2.5.3.I v w * . .                         ",
"                                +...} j 2 # # 3 j  .X.X.X.X.:.&.3.7.9.9.9.9.9.9.0.0.q.q.q.9.( S r - X .                         ",
"                                O...} z a # # 3 j  .X.X.X.X.:.3.7.f.z.n.n.z.x.x.z.z.z.b.b.x.' U M 9 = %                         ",
"                              +.+.O.{ j 2 # # w v %.>.>.>.>.>.8.h.m.F.S.S.A.A.N.A.A.A.F.H.F.v._ K M t 9 5                       ",
"                  ............+.+...{ j a # & w N I 3.3.5.5.8.h.m.H.J.P.J.K.Y.J.L.H.L.L.P.J.S.v._ U G u q = X                   ",
"                ..............O.O...} j a # - r S ~ f.f.9.f.f.f.V.G.P.P.Y.Y.Y.J.Y.L.P.P.Y.Y.H.N.n.' T Z e = X .                 ",
"                ..............@.@.{ [ x s 1 9 n U ( g.a.g.` ' a.j.N.Z.Z.D.Z.D.M.Z.Z.Z.Z.D.Z.M.N.b.l.( G r = X .                 ",
"                  ..........@.{ [ c z h l i M K / a.s.a.T U U Y R ^ ) ) ) ) ) ) ) ) ) ^ ^ ^ _ s.d.l.' P y - X .                 ",
"                      O.....@.[ j d g l M H T / a.d.a.Q J n y y m n B V V V B V V V V B B V F U ' a.' L y - o .                 ",
"                        O...{ c d 4 1 t C T ( g.d.g.` U n 9 = = ; 5 5 5 5 5 5 : 5 5 : ; ; 5 0 C T ( ( P y = X .                 ",
"                        +...} j 2 # = 0 C T ( ' ' ( T D r = X . . X X X X X X X X X X . . X = t G T T D e * X .                 ",
"                          ..[ d 4 + % 5 i D K U P K Z u 8 % . . . . . . . . . . . . . . . . O 9 n Z A i 8 & X .                 ",
"                              s # o O = 7 e y i y t e 9 - O . . . . . . . . . . . . . . . . o : 9 e 0 7 = O X .                 ",
"                                @ O O O , = = = - - * * O X                                 X % & * * & O o . X                 ",
"                                X X X X X X X X X X X X X                                     . X . X . X . X X                 ",
"                                . . X . . . . . . . . .                                         . . . . . . . .                 ",
"                                  . X . . . . . . . .                                             . . . . . .                   ",
"                                                                                                                                ",
"                                                                                                                                ",
"                                                                                                                                ",
"                                                                                                                                ",
"                                                                                                                                ",
"                                                                                                                                ",
"                                                                                                                                ",
"                                                                                                                                ",
"                                                                                                                                ",
"                                                                                                                                ",
"                                                                                                                                "
};
