/* XPM */
static char *c4262b168b544077c124bcdd7ac951a1ecU9q9pJJrpMcbwA[] = {
/* columns rows colors chars-per-pixel */
"64 64 212 2 ",
"   c None",
".  c #010102",
"X  c #070709",
"o  c #090709",
"O  c #0C0A0C",
"+  c #090608",
"@  c #1C0C0E",
"#  c #160809",
"$  c #0F0F12",
"%  c #120F11",
"&  c #1A0E11",
"*  c #131215",
"=  c #161619",
"-  c #181619",
";  c #17191C",
":  c #1A1B1E",
">  c #1B1113",
",  c #0F1318",
"<  c #2A0C0D",
"1  c #340E0F",
"2  c #2A1517",
"3  c #3D1314",
"4  c #3C191C",
"5  c #371415",
"6  c #2A0E10",
"7  c #1A1D20",
"8  c #3A1E21",
"9  c #261F21",
"0  c #1F2326",
"q  c #242326",
"w  c #262529",
"e  c #29292C",
"r  c #27282B",
"t  c #352428",
"y  c #2E2D31",
"u  c #312E32",
"i  c #2E3136",
"p  c #323236",
"a  c #34353A",
"s  c #3B3A3E",
"d  c #38373B",
"f  c #421415",
"g  c #481819",
"h  c #55191A",
"j  c #631D1E",
"k  c #6B1F1F",
"l  c #4A1F21",
"z  c #6E1F20",
"x  c #651F20",
"c  c #42322B",
"v  c #57383C",
"b  c #483438",
"n  c #6A2426",
"m  c #742222",
"M  c #792728",
"N  c #612D31",
"B  c #653235",
"V  c #743335",
"C  c #6D4229",
"Z  c #3B3D42",
"A  c #373D41",
"S  c #413E43",
"D  c #5B3E42",
"F  c #3B4146",
"G  c #3C4348",
"H  c #454549",
"J  c #4C494E",
"K  c #454449",
"L  c #4D4D51",
"P  c #464D52",
"I  c #584C52",
"U  c #4C5154",
"Y  c #535355",
"T  c #545359",
"R  c #5B5B5C",
"E  c #59575D",
"W  c #594A4D",
"Q  c #695855",
"!  c #774B4F",
"~  c #5C5B61",
"^  c #575B61",
"/  c #635F66",
"(  c #5C646A",
")  c #5E6265",
"_  c #636263",
"`  c #656269",
"'  c #696A6D",
"]  c #78656C",
"[  c #626D74",
"{  c #6C6C74",
"}  c #736E76",
"|  c #716F78",
" . c #647077",
".. c #68737A",
"X. c #75737B",
"o. c #78767B",
"O. c #8D2929",
"+. c #822727",
"@. c #952C2C",
"#. c #9D2E2E",
"$. c #903536",
"%. c #8A3435",
"&. c #A22F2F",
"*. c #AC3232",
"=. c #A63C3D",
"-. c #AB3C3D",
";. c #A43232",
":. c #B23434",
">. c #B83535",
",. c #9D5227",
"<. c #BC5639",
"1. c #AC513C",
"2. c #C35E33",
"3. c #C16029",
"4. c #C96636",
"5. c #863D40",
"6. c #8A4245",
"7. c #9D4A4C",
"8. c #9A4447",
"9. c #85555A",
"0. c #975559",
"q. c #92534F",
"w. c #A24B4D",
"e. c #A24547",
"r. c #B94D4F",
"t. c #B6554A",
"y. c #B25551",
"u. c #BF7149",
"i. c #B9694E",
"p. c #8F5B62",
"a. c #925E62",
"s. c #956066",
"d. c #996768",
"f. c #8A747C",
"g. c #8F7A7B",
"h. c #927C7C",
"j. c #8F6C73",
"k. c #A57463",
"l. c #AC7072",
"z. c #8E614D",
"x. c #C25940",
"c. c #C16F5C",
"v. c #C97972",
"b. c #B5867B",
"n. c #7B7B84",
"m. c #7B7C85",
"M. c #827C85",
"N. c #8A7C84",
"B. c #957A81",
"V. c #7D838A",
"C. c #77848C",
"Z. c #84838C",
"A. c #89858D",
"S. c #8A8C8D",
"D. c #848B94",
"F. c #8B8993",
"G. c #888891",
"H. c #938D94",
"J. c #86959E",
"K. c #8D939D",
"L. c #8F9396",
"P. c #97979B",
"I. c #99868D",
"U. c #A69592",
"Y. c #8797A0",
"T. c #8E95A0",
"R. c #8A99A2",
"E. c #939BA6",
"W. c #939BA5",
"Q. c #96A2AC",
"!. c #9BA3AA",
"~. c #97A6B0",
"^. c #99A7B1",
"/. c #9AABB5",
"(. c #9CAEB9",
"). c #97A8B2",
"_. c #9EB1BB",
"`. c #A3A3A4",
"'. c #A9AAAA",
"]. c #B9A5A9",
"[. c #A3B4BD",
"{. c #ACB4B8",
"}. c #BBBABB",
"|. c #A7ABB2",
" X c #D48181",
".X c #CB8D8F",
"XX c #D2A5A2",
"oX c #EBBCBC",
"OX c #AAB9C2",
"+X c #A7B9C3",
"@X c #F0BFC0",
"#X c #B7C3CA",
"$X c #BCC9D0",
"%X c #C7C9CA",
"&X c #D6C6C6",
"*X c #C2CED4",
"=X c #C5D1D7",
"-X c #C6D2D8",
";X c #CDD7DD",
":X c #DCDCDC",
">X c #D1D6D9",
",X c #D4CED1",
"<X c #E3C5C5",
"1X c #D3DBE0",
"2X c #DCE3E6",
"3X c #E2E2E2",
"4X c #E3EAED",
"5X c #E8EAEB",
"6X c #F5E6E6",
"7X c #ECF1F4",
"8X c #F2F4F5",
"9X c #F7F9FA",
/* pixels */
"                                                                                                                                ",
"                                                                                                                                ",
"                                                                                                                                ",
"                                                                                                                                ",
"                                          X X X . . X X . X X                                                                   ",
"                                        X X X + X O X X X X X o                                                                 ",
"                                        X X o O O @ @ < # @ @ @                                                                 ",
"                                        X X + @ 6 4 f g f f f 1 6                                                               ",
"                                        . o # 2 g x n M m z x h 5 @ X                                                           ",
"                                        . o # 5 j +.@.#.#.@.+.n 3 @ . X                                                         ",
"                                        . o & 3 j M #.;.=.=.$.n 4 & X X                                                         ",
"                                          O @ 5 h x +.$.5.8.6.B 8 # . . .                                                       ",
"                                              < 1 f l B ! 0.9.D t & . . . . . . . . . . . . .                                   ",
"                                                # @ 2 b Q ] ] I d - X X X X X X X X X X X X X X                                 ",
"                                                $ = w S ~ } X./ K e 7 ; - : 7 7 : 7 7 7 : 7 : 7                                 ",
"                                              7 q y Z I ` X.n.{ E P G F A F F F F F F F F F A a e                               ",
"                                          . $ q d J T ` X.n.m.m.C.C. .C. . . ... .C.........( U a ; .                           ",
"                                        . o - u L ` X.o.M.M.M.G.C.C.C.C.C.).C.C.C.C.R.C.R.C.C.[ F 7 . X                         ",
"                                        % - w Z ~ X.Z.G.N.G.F.T.)./._.(.+X_.).(._._.(._.+X(.C...F 7 O .                         ",
"                                      : w u Z T { Z.K.P.T.F.K.R.).(._._._._._.(._._._._.+X_.Y.[ F 7 X .                         ",
"                                  X = w d J / { V.K.E.Q.Q.R.E.Q.)./.(.(.(.(.(.(._.(._._.[.(.Y.[ F 7 X .                         ",
"                                . + = u J / X.Z.K.Q.^.^.^.^.).^././.(.(.(.(.(.(._._._._._./.Y. .F 7 X .                         ",
"                                . X = p T X.F.T.Q.^._._.[.{.OXOXOX+X+X+X#X+X+X#X+X#X+X#X#X+XQ...G 7 X .                         ",
"                                . X - A ~ M.T.!.^.(.[.+X#X$X$X=X-X-X-X-X-X-X$X-X$X;X$X-X;X-X{.V.P q X .                         ",
"                                . X ; s ( D.Q.^.^.(.{.#X=X1X2X4X4X2X5X4X4X4X4X4X4X4X4X7X7X4X%XL.T q X .                         ",
"                                . X 7 Z ( J.^.(.(.(.[.$X;X5X8X9X9X8X7X7X8X7X8X8X8X8X8X9X9X7X,XP.R w X .                         ",
"                                . X 7 F [ J.(._.(.(.OX*X2X8X9X8X5X3X:X:X:X:X:X:X:X:X:X3X3X:X}.S.Y q X .                         ",
"                                . X 7 F  .J.(._._.(.OX*X3X9X8X:X%X'.`.`.P.`.`.`.'.`.'.'.'.`.S._ s ; X .                         ",
"                                . X 7 F  .Y.(._._.(.OX=X4X8X6X%XP.o.R Y Y R R R _ _ _ _ _ R L s q * X .                         ",
"                                . X 7 F [ J./._.(.(.OX=X4X8X3X{.o.H e 0 9 e e e r r r r e e q 7 * O X .                         ",
"                                . X ; Z [ D.).(./.(.OX=X4X8X3X}.o.H e q q e q : * O O * 9 q q 7 * O X X                         ",
"                                . X ; Z ( D.Q.^.).(.OX=X4X8X5X%X`.o.R R R R U d 7 X X 7 d U U Z r * X .                         ",
"                                . + - Z ~ m.T.Q.^.|.OX-X4X9X9X3X%X'.`.`.'.`.b.( p * * a _ S.S...H 7 O .                         ",
"                                . X = u T X.G.K.E.^.OX=X2X8X9X9X5X3X:X:X3X:X}.C.L q q Y L.}.}.S.Y q O .                         ",
"                                . X = y J / n.M.K.Q.[.OX>X3X7X6X6X6X6X6X6X3X%XU.Q u c _ U.&X&XL.R w X .                         ",
"                                  . = w Z L ~ { m.K.|.OXOX%X,X<X<X<XoXoX@XoXXXb.z.C C z.b.XXXXb.W q X .                         ",
"                                      7 w u Z T  .m.T.!.|.|.].]..X.X X X X Xv.u.1.,.,.1.c.v.l.9.v > X .                         ",
"                                        % = w S ~ n.G.H.H.F.I.B.l.y.r.r.<.t.t.t.3.3.3.4.2.r.e.V l @ X .                         ",
"                                        # + = y I ] N.B.B.B.j.a.0.e.=.=.=.=.1.<.2.4.4.4.2.-.$.N 4 @ o .                         ",
"                                      f # + % 8 D 9.p.p.a.p.p.0.7.8.8.8.8.8.w.t.i.4.c.i.y.w.%.N 8 @ X .                         ",
"                                  :.O.h 1 O @ 4 N 5.w.w.w.7.w.0.0.p.p.p.p.p.a.s.k.k.k.k.d.a.! D t > X .                         ",
"                                >.*.@.j 3 @ & 4 n $.=.-.-.=.e.0.a.j.f.f.N.f.f.f.g.g.h.h.B.f.] I u - X .                         ",
"                                >.*.@.z 3 @ @ 4 N $.-.-.-.e.e.0.j.N.Z.G.F.A.A.A.A.Z.A.S.F.Z.n.^ p - X .                         ",
"                              :.:.*.@.n f @ * 4 B 5.w.w.w.w.0.d.B.H.T.R.T.T.R.T.T.T.P.W.E.T.m.~ s ; O .                         ",
"                  *.*.*.*.*.*.:.:.*.@.z f @ > t D ! a.a.a.a.j.B.H.W.~.~.~.Q.E.~.~.E.~.^./.E.Y.( F ; X .                         ",
"                *.*.*.*.*.*.*.:.:.*.@.k 3 @ - p I ] B.N.B.f.B.F.W.E.^.).~.~.~.~.).).^./.(.^.C.[ F ; X .                         ",
"                *.*.*.*.*.*.*.:.:.*.@.k f @ - i T { M.M.M.N.M.G.F.J.J.Y.Y.Y.Y.Y.Y.Y.Y.R.R.Y.m.( s ; X .                         ",
"                  :.*.*.*.*.*.>.:.*.@.k f @ - i T X.Z.G.F.G.M.n.n. .[ [ [  . . . . . . ... .( P i - X .                         ",
"                      *.:.*.:.:.:.*.@.z f < - i Y | M.F.F.A.M.{ ^ P F F F G G G G G G G G G F i 0 $ .                           ",
"                        *.*.*.*.:.*.@.k 3 # - i T { M.A.A.M.X.~ K e 7 ; ; 7 : : 7 7 7 : 7 ; ; = , X                             ",
"                        #.&.;.*.*.&.O.j 1 @ - p T } M.A.M.} / J y - X . . X X X X X X X X X X X X                               ",
"                        M O.O.@.@.O.m g < # - a T X.M.X.{ E J a q O . . . . . . . . . . . . . .                                 ",
"                          j k m m k h 1 # O - a E X.n.] T Z y q * o . . . . . . . . . . . . .                                   ",
"                                    < # + o - p T } } / Z 9 * O X .                                                             ",
"                                      . . + - y J / / J u = X . .                                                               ",
"                                      . . + $ q b K J Z w O . .                                                                 ",
"                                      . . . O * q e e q - X .                                                                   ",
"                                      . X X X O % * * * O X                                                                     ",
"                                      X X X . X X X X . X                                                                       ",
"                                        . . . . . . . .                                                                         ",
"                                          . . . . . .                                                                           ",
"                                                                                                                                ",
"                                                                                                                                ",
"                                                                                                                                "
};
