/* XPM */
static char *cf21275065bd46f890fff69cbdb87b0enYpjxRdlHOlR74x2[] = {
/* columns rows colors chars-per-pixel */
"64 64 74 1 ",
"  c None",
". c #615D63",
"X c #625E64",
"o c #635F64",
"O c #635F65",
"+ c #646065",
"@ c #646066",
"# c #656167",
"$ c #666268",
"% c #676369",
"& c #6B676D",
"* c #6B676E",
"= c #6C686E",
"- c #6C686F",
"; c #6D6970",
": c #6E6A70",
"> c #6E6A71",
", c #6F6B71",
"< c #6F6B72",
"1 c #706B72",
"2 c #706C72",
"3 c #706C73",
"4 c #716D73",
"5 c #716D74",
"6 c #777379",
"7 c #78747A",
"8 c #78747B",
"9 c #F77320",
"0 c #F77521",
"q c #F77622",
"w c #F88128",
"e c #F99232",
"r c #FCCB51",
"t c #FDDC5B",
"y c #FEE761",
"u c #FEE862",
"i c #FEEA63",
"p c #7D7980",
"a c #7E7A80",
"s c #7E7A81",
"d c #837D86",
"f c #847D87",
"g c #847E87",
"h c #857F88",
"j c #868189",
"k c #868289",
"l c #878389",
"z c #87818A",
"x c #87828A",
"c c #87838A",
"v c #88828B",
"b c #88838B",
"n c #88848A",
"m c #88848B",
"M c #89858B",
"N c #89858C",
"B c #8A858D",
"V c #8A868C",
"C c #8A868D",
"Z c #8B878D",
"A c #8E8A91",
"S c #8F8B91",
"D c #8F8A92",
"F c #8F8B92",
"G c #908B93",
"H c #908C93",
"J c #918D94",
"K c #928E95",
"L c #928F95",
"P c #938F96",
"I c #939096",
"U c #949097",
"Y c #949098",
"T c #959198",
/* pixels */
"                                                                ",
"                                                                ",
"                                                                ",
"                                                                ",
"                                                                ",
"                                                                ",
"        qq                                              qq      ",
"        qq                                              qq      ",
"          qq                    99                    qq        ",
"          qw                    ee                    wq        ",
"            tu                  rr                  ut          ",
"            uy                  ii                  yu          ",
"                                                                ",
"                                                                ",
"                                      @@@@@@@@                  ",
"                                      X@X@X@X@                  ",
"                          @@@@@@@@X@X@X@X@X@@X@X@@              ",
"                          @@@@@@@%-<2:2:2:2::2:-$X              ",
"                X@X@X@X@X@@@@@@@@*pnblnlblnlnllp*X              ",
"                5:2:2:2:::$@@@@XX<nYYKKUKYKUKYYV82              ",
"              KKVllllllllp:@@@@@X-nUYKUKKYKIKUKHVlhh            ",
"              KKYKKUKKKYUn:X+@@@-8nUKKKKKKKKKKKIPAvf            ",
"            dbAKKKUKKYYKUl:@X@X-pVHIKKKKKKKKKKKKPAbf            ",
"            hlAKKKKKKKKKIc<X@X+2VUUKKKKKKKKKUKUKPGlf            ",
"            glAKKKKKKKKKUl:@X@X2lYKKKKKKKKKKKKKUKAlg            ",
"            dbGKKKKKKKKYYl5X@X@*pVKKKUUKUKKKVnlnvlhg            ",
"              KIKKKKKKKKYb:X@@@@:8VYYYKUIYUZ8-2::5              ",
"              lVKKKYKIKKVp:@@@@+X-pVllllcnnp&XXXXX              ",
"    9eri      :7VYUIKYYV8-@@@@@@@$-2::2:<<<-$XXXXX              ",
"    9eru      X*pbcclnbp*XX@@@@@@@XXXXXXX@@@-:5:2:              ",
"              @$*<<::::&@X@@@@@@@@@@XXX@@X@-pVllll              ",
"              @@@XX$&:::2<:-%@@@@@X$&5::$@X<bYYKYU              ",
"              @@@+X-pnllllVp;XX$@XX-pnVp-XX5bYUUIK      ire9    ",
"              @@@@-8ZKYUKYKV6&$X@$-8ZYYn5XX&pZHUKU      ire9    ",
"              @@X&pZKKUKYKIKVp&XX-pVHUYn<XX$-8ZYYK              ",
"              @@&8ZYKKKKKKKUYZ7&$:VYUUUn<@XXX-pnnn              ",
"              @-8ZKUKKKKKKKKKKVp&2nYUYUn:X@$X$:<:2              ",
"              X2VYUKKKKKKKKKKYYm:-pnllnp:XX@XXXX@X              ",
"              @:nYKKKKKKKKKKKKYV2@-2:2:-$XX$$XXXXX              ",
"              X-pVHKKKKKKUKUKKVp-@X@X@-:5::::<::$@              ",
"              @$-6VKUKKKKYKYYV6*@@@+@-8nnnnnllVp&XXX            ",
"              X$&6nUKKKHmlllVp;X@@@@:8ZTYUUKUUKV8::<            ",
"            @@X&8ZKKKKKV6::<::$X@@X-8ZHUUKKUUKKHVlllhh          ",
"            @$&8ZYUKKYKV6&$X@XX$@@-8ZUKKKKKKKKKKKYYDlf          ",
"            X-pZKYKKKKKKVp*XXX$@+-dVHIKKKKKKKKKKKYKAlf          ",
"            @2nYKKKKKKKKYV<@@$XXX2VYIKKKKKKKKKKKKKKAlf          ",
"            X2lKKKKKKKKKYc:@X$$X+2nYKKKKKKKKKKKKKKKAlh          ",
"            X2VUKKKKKKKKKb2X@XXXX-8ZHKKKKKKKKKKKKKKDvg          ",
"              HIKKKKKKKKUl:@X$X$$$&8VUKKKKKKKKKKKKKK            ",
"              KKKKKKKKKYKn2XX$$XXXX:lKUKKKKKKKKKDFKK            ",
"        uu    KKKKKKKKKK              KKKKKKKKKAVv              ",
"        tu    KKKKKKKKKK              KKKKKKKKKAld              ",
"      qw                                              yy        ",
"      q9                                              it        ",
"    9q                                                  wq      ",
"    qq                                                  qq      ",
"                                                          qq    ",
"                                                          qq    ",
"                            ii                                  ",
"                            rr                                  ",
"                            ee                                  ",
"                            99                                  ",
"                                                                ",
"                                                                "
};
