/* XPM */
static char *_3829e0dd91249f9c5c3e38a6ea9231aSJ12QNRuLjF8hFKb[] = {
/* columns rows colors chars-per-pixel */
"64 64 2 1 ",
"  c None",
". c white",
/* pixels */
"                                                                ",
"                                                                ",
"                                                                ",
"                                                                ",
"                                                                ",
"                                                                ",
"                                                                ",
"                                                                ",
"                                                                ",
"                                                                ",
"                                                                ",
"                                                                ",
"                                                                ",
"                                                                ",
"                                                                ",
"                                                                ",
"                          ............                          ",
"                          ............                          ",
"                      ....................                      ",
"                      ....................                      ",
"                    ........................                    ",
"                    ........................                    ",
"                  ............................                  ",
"                  ............................                  ",
"                ................................                ",
"                ................................                ",
"                ................................                ",
"                ................................                ",
"              ....................................              ",
"              ....................................              ",
"              ....................................              ",
"              ....................................              ",
"              ....................................              ",
"              ....................................              ",
"              ....................................              ",
"              ....................................              ",
"              ....................................              ",
"              ....................................              ",
"                ................................                ",
"                ................................                ",
"                ................................                ",
"                ................................                ",
"                  ............................                  ",
"                  ............................                  ",
"                    ........................                    ",
"                    ........................                    ",
"                      ....................                      ",
"                      ....................                      ",
"                          ............                          ",
"                          ............                          ",
"                                                                ",
"                                                                ",
"                                                                ",
"                                                                ",
"                                                                ",
"                                                                ",
"                                                                ",
"                                                                ",
"                                                                ",
"                                                                ",
"                                                                ",
"                                                                ",
"                                                                ",
"                                                                "
};
