/* XPM */
static char *cb0a637242164a0c83bf67ae1e711434JVnbSzdgIYzsPCRZ[] = {
/* columns rows colors chars-per-pixel */
"64 64 2 1 ",
"  c None",
". c black",
/* pixels */
"                                                                ",
"                                                                ",
"                                                                ",
"                                                                ",
"                                                                ",
"                                                                ",
"                                                                ",
"                                                                ",
"                                                                ",
"                                                                ",
"                                                                ",
"                                                                ",
"                                                                ",
"                                                                ",
"                                                                ",
"                                                                ",
"                          ............                          ",
"                          ............                          ",
"                      ....................                      ",
"                      ....................                      ",
"                    ........................                    ",
"                    ........................                    ",
"                  ............................                  ",
"                  ............................                  ",
"                ................................                ",
"                ................................                ",
"                ................................                ",
"                ................................                ",
"              ....................................              ",
"              ....................................              ",
"              ....................................              ",
"              ....................................              ",
"              ....................................              ",
"              ....................................              ",
"              ....................................              ",
"              ....................................              ",
"              ....................................              ",
"              ....................................              ",
"                ................................                ",
"                ................................                ",
"                ................................                ",
"                ................................                ",
"                  ............................                  ",
"                  ............................                  ",
"                    ........................                    ",
"                    ........................                    ",
"                      ....................                      ",
"                      ....................                      ",
"                          ............                          ",
"                          ............                          ",
"                                                                ",
"                                                                ",
"                                                                ",
"                                                                ",
"                                                                ",
"                                                                ",
"                                                                ",
"                                                                ",
"                                                                ",
"                                                                ",
"                                                                ",
"                                                                ",
"                                                                ",
"                                                                "
};
