/* XPM */
static char *d8343c82195c46a5e035485e7795ef07JhHtFv05nmRwnu0x[] = {
/* columns rows colors chars-per-pixel */
"64 64 51 1 ",
"  c None",
". c #615D63",
"X c #625E64",
"o c #635F65",
"O c #646065",
"+ c #646066",
"@ c #656167",
"# c #666268",
"$ c #676369",
"% c #6B676D",
"& c #6B676E",
"* c #6C686E",
"= c #6D696F",
"- c #6E6A70",
"; c #6E6A71",
": c #6F6B71",
"> c #6F6B72",
", c #706C72",
"< c #706C73",
"1 c #716D74",
"2 c #726E74",
"3 c #77737A",
"4 c #78747A",
"5 c #78747B",
"6 c #F77622",
"7 c #7D7980",
"8 c #7E7A80",
"9 c #7E7A81",
"0 c #7F7B81",
"q c #7F7B82",
"w c #848087",
"e c #868289",
"r c #878389",
"t c #87838A",
"y c #88848A",
"u c #88848B",
"i c #89858B",
"p c #89858C",
"a c #8A868C",
"s c #8A868D",
"d c #8B878D",
"f c #8E8A91",
"g c #8F8B91",
"h c #8F8B92",
"j c #908C93",
"k c #928E95",
"l c #928E96",
"z c #938F96",
"x c #949097",
"c c #949098",
"v c #959198",
/* pixels */
"                                                                ",
"                                                                ",
"                                                                ",
"                                                                ",
"      66                                                  66    ",
"      66                                                  66    ",
"                                66                              ",
"                                66                              ",
"                                                                ",
"                                                                ",
"                                                                ",
"                                                                ",
"                                                                ",
"                                                                ",
"                                                                ",
"                                                                ",
"                                    kkkkkkkkkkkk                ",
"                                    kkkkkkkkkkkk                ",
"            kkkkkkkkkk            kkkkkkkkkkkkkkkk              ",
"            kkkkkkkkkk            kkkkkkkkkkkkkkkk              ",
"            kkkkkkkkkkkk          kkkkkkkkkkkkkkkk              ",
"            kkkkkkkkkkkk          xkkkkkkkkkkkxkxk              ",
"            kkkkkkkkkkck          kxkkkkkkkkkkxxkx              ",
"            kkkkkkkkkhse          esjxkxkxkxkjseee              ",
"            kkkkkkkxku4*$+        *4sxxxkxkcxs4*::              ",
"            kkkkkkxkxu<X++        o*9ueuueueu9%Xoo              ",
"              kkxkkccu:oo+        ++*:<::::::*+o                ",
"              khseeue9%o++        ++oooooooooo++                ",
"  66            <::::*$+++          oooo+ooo                    ",
"  66            oooooo++++          ++++++++                    ",
"                                              xkkk              ",
"                                              jkkk              ",
"                      XOoo+o                o<dcxk          66  ",
"                      <::%$o                +*5sjx          66  ",
"                  kkkjuue9%oo+    +o+*exkx  o$*<                ",
"                  kkkkkxcd3%$+    +$*4skxx  o+oX                ",
"                kkkkkkkxxjd9*+    +*5dkxkx                      ",
"                kkkkkkkkkkxs<o    X2dcxjsw                      ",
"                kkkkkkkkkxxj        jxxs4*$+++                  ",
"                kkkkkkkkkjue        euu9%Xooo+                  ",
"                kkkkkkkkxu4*        :::*+oooooo+                ",
"                kkkkkkxcxe:X        ooo+*<:::<:*                ",
"                                    +oX*9ueeueuq*o              ",
"                                    ++%4sxcxkxxs4*              ",
"              kkkkkkku:XXo++++      o%9djxxkxkkjsq*X            ",
"              kkkkkxxe:Xo+++++      :3sxkkkkkkkxxs4*            ",
"            kkkkkkkkxe*oo+++++      udjkkkkkkkkkxjse            ",
"            kkkkkkkxks4*$+++++      esjkkkkkkkkkkkkx            ",
"            kkkkkkkkkjs9*oo+        :3skkkkkkkkkkkkx            ",
"            kkkkkkkkkxxu<+o+        o:skxkkkkkkkkkkk            ",
"            kkkkkkkkkkcu<oo+          hkkkkkkkkkkkkk            ",
"            kkkkkkkkkjs9*oo+          kkkkkkkkkkkkkk            ",
"              kkkkkkxu3%++              kkkkkkkkkk              ",
"              kkkkkxxu*o++              kkkkkkkkkk              ",
"                                                                ",
"                                                                ",
"  66                                                            ",
"  66                                                            ",
"                                                            66  ",
"                                                            66  ",
"                                                                ",
"                                                                ",
"                            66                                  ",
"                            66                                  "
};
