/* XPM */
static char *_d68c46a27d94344da62576738cf0b08pOzCvIkud4U7y6iP[] = {
/* columns rows colors chars-per-pixel */
"64 64 200 2 ",
"   c None",
".  c #F76F1E",
"X  c #F7701F",
"o  c #F7711F",
"O  c #F77220",
"+  c #F77320",
"@  c #F77321",
"#  c #F77421",
"$  c #F77521",
"%  c #F77522",
"&  c #F77622",
"*  c #F77A24",
"=  c #F77B24",
"-  c #F77B25",
";  c #F77C25",
":  c #F8882B",
">  c #F88A2B",
",  c #F8882C",
"<  c #F8892C",
"1  c #F88B2C",
"2  c #F88A2D",
"3  c #F88B2D",
"4  c #F88C2D",
"5  c #F88E2D",
"6  c #F98E2D",
"7  c #F98F2D",
"8  c #F88C2E",
"9  c #F88D2E",
"0  c #F88D2F",
"q  c #F98F2E",
"w  c #F98F2F",
"e  c #F9902F",
"r  c #F9912F",
"t  c #F9922F",
"y  c #F98E30",
"u  c #F98F30",
"i  c #F99030",
"p  c #F99130",
"a  c #F99131",
"s  c #F99231",
"d  c #F99232",
"f  c #FAA53A",
"g  c #FAA63B",
"h  c #FAA63C",
"j  c #FAA63D",
"k  c #FAA73D",
"l  c #FAA83E",
"z  c #FAA744",
"x  c #FAA845",
"c  c #FBB643",
"v  c #FBB545",
"b  c #FBB645",
"n  c #FBB646",
"m  c #FBB844",
"M  c #FBB945",
"N  c #FBB847",
"B  c #FBB947",
"V  c #FBBA48",
"C  c #FBBD49",
"Z  c #FCC94B",
"A  c #FCCA4B",
"S  c #FCCA4C",
"D  c #FCCB4C",
"F  c #FCCA4D",
"G  c #FCCA4E",
"H  c #FCCB4E",
"J  c #FCCC4F",
"K  c #FCCD4F",
"L  c #FCCA50",
"P  c #FCCA51",
"I  c #FCCB51",
"U  c #FCCB52",
"Y  c #FCCC52",
"T  c #FCCD52",
"R  c #FCCD53",
"E  c #FCCE53",
"W  c #FCCF53",
"Q  c #FDCF54",
"!  c #FDD252",
"~  c #FDD352",
"^  c #FDD254",
"/  c #FDD354",
"(  c #FDD255",
")  c #FDD356",
"_  c #FDD454",
"`  c #FDD455",
"'  c #FDD456",
"]  c #FDD556",
"[  c #FDD457",
"{  c #FDD557",
"}  c #FDD657",
"|  c #FDD658",
" . c #FEE15A",
".. c #FEE15B",
"X. c #FEE25B",
"o. c #FEE65A",
"O. c #FEE65B",
"+. c #FEE75B",
"@. c #FEE35C",
"#. c #FEE25E",
"$. c #FEE35F",
"%. c #FEE75C",
"&. c #FEE65D",
"*. c #FEE75D",
"=. c #FEE65E",
"-. c #FEE75E",
";. c #FEE75F",
":. c #FEE85B",
">. c #FEE85C",
",. c #FEE85D",
"<. c #FEE85E",
"1. c #FEE85F",
"2. c #FEE95F",
"3. c #FDD66F",
"4. c #FDD770",
"5. c #FDD872",
"6. c #FDD873",
"7. c #FDD973",
"8. c #FEE760",
"9. c #FEE960",
"0. c #FEE961",
"q. c #FEEA60",
"w. c #FEEB60",
"e. c #FEEB61",
"r. c #FEE962",
"t. c #FEEA62",
"y. c #FEEB62",
"u. c #FEEA63",
"i. c #FEEB63",
"p. c #FEEC62",
"a. c #FEED62",
"s. c #FEEC63",
"d. c #FEE867",
"f. c #FEEC64",
"g. c #FEED64",
"h. c #FEE868",
"j. c #FEEA6A",
"k. c #FEEB6A",
"l. c #FEED6B",
"z. c #FEEB7A",
"x. c #FEEB7B",
"c. c #FEEB7D",
"v. c #FEEC7C",
"b. c #FEED7C",
"n. c #FEEE7D",
"m. c #FEEF7D",
"M. c #FEEC7E",
"N. c #FEED7E",
"B. c #FEEE7F",
"V. c #FEEC84",
"C. c #FEEC85",
"Z. c #FEED85",
"A. c #FEED86",
"S. c #FEED87",
"D. c #FEEF86",
"F. c #FEED88",
"G. c #FEEE88",
"H. c #FEEF88",
"J. c #FEEF89",
"K. c #FEF087",
"L. c #FEF089",
"P. c #FFF189",
"I. c #FEF08A",
"U. c #FEF18A",
"Y. c #FFF18A",
"T. c #FFF28B",
"R. c #FEF1A5",
"E. c #FEF1A6",
"W. c #FFF3A6",
"Q. c #FFF3A7",
"!. c #FEEFB8",
"~. c #FFF5BA",
"^. c #FFF5BB",
"/. c #FFF6BC",
"(. c #FFF7BC",
"). c #FFF9D8",
"_. c #FFF9D9",
"`. c #FFFAD9",
"'. c #FFF9DA",
"]. c #FFF9DB",
"[. c #FFFADA",
"{. c #FFFBDA",
"}. c #FFFADB",
"|. c #FFFBDB",
" X c #FFFCDB",
".X c #FFFADC",
"XX c #FFFBDC",
"oX c #FFFBDD",
"OX c #FFFCDC",
"+X c #FFFCDD",
"@X c #FFFBE3",
"#X c #FFFCE3",
"$X c #FFFBE5",
"%X c #FFFBE6",
"&X c #FFFCE5",
"*X c #FFFCE6",
"=X c #FFFEF8",
"-X c #FFFEF9",
";X c #FFFFFA",
":X c white",
/* pixels */
"                                                                                                                                ",
"                                                                                                                                ",
"                                                                                                                                ",
"                                                                                                                                ",
"                                                                                                                                ",
"                                                                                                                                ",
"                                                                                                                                ",
"                                                                                                                                ",
"                                                                                                                                ",
"                                                                                                                                ",
"                                & & & &                         & & & &                                                         ",
"                                & & & &                         & & & &                                                         ",
"                                & & & & & &                 & & & & & &                                                         ",
"                                & & & & & &                 & & O & X &                                                         ",
"                                & & & & O X & X X & O O o & X & O & X & & &             & & & & & &                             ",
"                                & & O * w d i e e e e e e e e e i e t 1 ; X             & & & & & &                             ",
"                                & & O 2 n R R G G A G G A G G H H H H c > X X O O & X O & & & & & &                             ",
"                                & * , k ) y.y.j.V.U.K.U.U.F.K.K.U.U.T.7.x w e e i i i 2 * & O & & &                             ",
"                                O 2 n } #.1.:.b./..X X].].]. X]. X XOX!.3.A A G L R R c 2 X & &                                 ",
"                                O i R f.y.j.x.E.$X:X:X:X:X:X:X:X:X:X:X#XW.S.U.b.l.1.y.) k 2 * &                                 ",
"                                O i L y.1.c.^.$X=X:X:X:X:X:X:X:X:X:X:X=X#X]. X^.b.:.:. .} n > &                                 ",
"                                O i L y.*.F..X:X:X:X:X:X:X:X:X:X:X:X:X:X:X:X:X$XE.S.S.V.l.H e X                                 ",
"                            & O X i L 1.1.S.].:X:X:X:X:X:X:X:X:X:X:X:X:X:X:X:X=X@X]. X~.m.D 1 X                                 ",
"                            & ; 2 k } 1.:.V.].:X:X:X:X:X:X:X:X:X:X:X:X:X:X:X:X:X:X:X:X&XW.3.x w                                 ",
"                & & & & & & O 2 n ) #.*.+.V.).:X:X:X:X:X:X:X:X:X:X:X:X:X:X:X:X:X:X:X:X=X&X!.7.N w O                             ",
"                & & & & & O O i R y.y.j.x.E.@X:X:X:X:X:X:X:X:X:X:X:X:X:X:X:X:X:X:X:X:X:X:XOXU.D w O                             ",
"                & & & & & & X i L y.*.c.^.&X=X:X:X:X:X:X:X:X:X:X:X:X:X:X:X:X:X:X:X:X:X:X:X XU.G e X                             ",
"                & & & & & ; 2 l ) y.*.F.].:X:X:X:X:X:X:X:X:X:X:X:X:X:X:X:X:X:X:X:X:X:X:X:X].U.G e X                             ",
"                    & & O 2 N | #.8.*.S.].:X:X:X:X:X:X:X:X:X:X:X:X:X:X:X:X:X:X:X:X:X:X:X:X XU.G e X o &                         ",
"                    & & O e C } #.*.+.S.).:X:X:X:X:X:X:X:X:X:X:X:X:X:X:X:X:X:X:X:X:X:X:X:X].S.~ f > ; &                         ",
"                            u k ) *.*.V.).:X:X:X:X:X:X:X:X:X:X:X:X:X:X:X:X:X:X:X:X:X:X:X:X].S. .) n 3 & & &                     ",
"                            X w L j.b.E.@X:X:X:X:X:X:X:X:X:X:X:X:X:X:X:X:X:X:X:X:X:X:X:X:X].S.1.e.) i O & &                     ",
"                            X w G V./.$X=X:X:X:X:X:X:X:X:X:X:X:X:X:X:X:X:X:X:X:X:X:X:X:X:X].F.y.e.R i & O & & &                 ",
"                            o e A U..X:X:X:X:X:X:X:X:X:X:X:X:X:X:X:X:X:X:X:X:X:X:X:X:X=X$X^.c. .} N w & & & & &                 ",
"                            & e G K. X:X:X:X:X:X:X:X:X:X:X:X:X:X:X:X:X:X:X:X:X:X:X:X:X@XE.b.j.) k w                             ",
"                            o e G U.].:X:X:X:X:X:X:X:X:X:X:X:X:X:X:X:X:X:X:X:X:X:X:X:X].V.+.1.L w X                             ",
"                            & e A S. X:X:X:X:X:X:X:X:X:X:X:X:X:X:X:X:X:X:X:X:X:X:X:X:X].S.*.8.L u .                             ",
"                            X e G U.].:X:X:X:X:X:X:X:X:X:X:X:X:X:X:X:X:X:X:X:X:X:X=X$X^.c.8.y.L i O                             ",
"                            O i G U.OX:X:X:X:X:X:X:X:X:X:X:X:X:X:X:X:X:X:X:X:X:X:X@XR.c.h.y.y.L i O                             ",
"                            O i G b./.$X=X:X:X:X:X:X:X:X:X:X:X:X:X:X:X:X:X:X:X:X:X'.V.+.*.8.f.R i &                             ",
"                            O i L j.b.E.$X:X:X:X:X:X:X:X:X:X:X:X:X:X:X:X:X:X:X:X:X.XS.+.*.8.f.L i O                             ",
"                            & i L y.+.x.^.$X=X:X:X:X:X:X:X:X:X:X:X:X:X:X:X:X:X=X&X/.b.1.y.#.| n 2 O                             ",
"                        & O O i L y.8.h.x.E.$X:X:X:X:X:X:X:X:X:X:X:X:X:X:X:X:X&XE.b.j.e.f.| k , ; &                             ",
"                        & & & i R f.y.*.+.x.^.$X=X:X:X:X:X:X:X:X:X:X:X=X#X XOX!.3.G G R L n , O & &                             ",
"                    & & & O O d R f.8.8.*.h.x.R.%X:X:X:X:X:X:X:X:X:X:X&XE.K.K.7.x w e i i 2 * & & & & &                         ",
"                    & & & & & 2 n ) 8.y.y.*.*.c./.OX].].'.'.'.'.].].].!.3.D D m w o X O O & & & & & & &                         ",
"                & & & & & & & * 2 k } f.f.y.1.j.b.F.F.F.V.V.F.F.S.U.U.7.x w 1 e                 & & & &                         ",
"                & & & & & & & O O , n R L L L L G ~  .*.8.*.*.*.1. .~ m 1 o o o                 & & & &                         ",
"                                O ; 2 i d i i i i k ) y.8.*.8.8.y.) f 2                                                         ",
"                                & & O O O O O O O , c } 8.y.f.#.} n w X                                                         ",
"                                                O * : k } f.f.} k 3                                                             ",
"                                                & O O , v ) R n : X                                                             ",
"                                                    & * 2 i i 2 * O                                                             ",
"                                                    & & O & O & & &                                                             ",
"                                                    & & & O & O                                                                 ",
"                                                    & & & & & &                                                                 ",
"                                                        & & & &                                                                 ",
"                                                        & & & &                                                                 ",
"                                                                                                                                ",
"                                                                                                                                ",
"                                                                                                                                ",
"                                                                                                                                ",
"                                                                                                                                ",
"                                                                                                                                "
};
