/* XPM */
static char *_973fc3b6ff94575b9de970611a8a8denwsWSvwwGncZNgix[] = {
/* columns rows colors chars-per-pixel */
"64 64 143 2 ",
"   c None",
".  c #1F120B",
"X  c #1B110C",
"o  c #1C110C",
"O  c #1D110E",
"+  c #1E110E",
"@  c #1E110F",
"#  c #1F110F",
"$  c #28170F",
"%  c #2E251E",
"&  c #433124",
"*  c #58402F",
"=  c #5B4331",
"-  c #6C513C",
";  c #6D523D",
":  c #634E40",
">  c #644F41",
",  c #6A594E",
"<  c #735947",
"1  c #745A47",
"2  c #6F5F55",
"3  c #736054",
"4  c #7C6756",
"5  c #736359",
"6  c #78665A",
"7  c #866953",
"8  c #866954",
"9  c #8F6F57",
"0  c #906F57",
"q  c #906F58",
"w  c #927258",
"e  c #927259",
"r  c #93745C",
"t  c #80736A",
"y  c #85776F",
"u  c #957B68",
"i  c #967C6A",
"p  c #987F69",
"a  c #96806E",
"s  c #8E8178",
"d  c #8F8278",
"f  c #91847B",
"g  c #92857C",
"h  c #AA917E",
"j  c #AB927F",
"k  c #9B8D82",
"l  c #9B8E83",
"z  c #A39286",
"x  c #AA988B",
"c  c #AFA69F",
"v  c #BCAC9E",
"b  c #BEAEA0",
"n  c #BEAFA2",
"m  c #BFB1A3",
"M  c #CCC1BA",
"N  c #CCC2BA",
"B  c #D1C6BB",
"V  c #D2C7BC",
"C  c #D6C8BB",
"Z  c #D7C8BC",
"A  c #EAD3AB",
"S  c #ECD3AB",
"D  c #EDD3AB",
"F  c #EDD5AF",
"G  c #EBD6B0",
"H  c #ECD6B0",
"J  c #EDD7B0",
"K  c #ECD7B1",
"L  c #EED7B0",
"P  c #ECD9B3",
"I  c #EED8B2",
"U  c #ECD9B4",
"Y  c #EDD9B4",
"T  c #F0DAB5",
"R  c #F0DAB6",
"E  c #F1DDB9",
"W  c #F2DDB9",
"Q  c #F1DDBB",
"!  c #F2DDBC",
"~  c #F1DEBD",
"^  c #DCD0C5",
"/  c #DDD0C5",
"(  c #DFD3C6",
")  c #DFD4C7",
"_  c #EBDFCE",
"`  c #E8DFD2",
"'  c #E8DFD3",
"]  c #E5DFDA",
"[  c #F2E0C6",
"{  c #F4E1C4",
"}  c #F7E2C5",
"|  c #F7E3C5",
" . c #F2E4CB",
".. c #F2E4CC",
"X. c #F4E6CE",
"o. c #F5E7CF",
"O. c #ECE2D3",
"+. c #ECE4D0",
"@. c #EDE4D2",
"#. c #E6E0DB",
"$. c #E5E1DE",
"%. c #E6E2DE",
"&. c #ECE4D8",
"*. c #ECE6DA",
"=. c #F5E7D0",
"-. c #F5E7D1",
";. c #FAEAD4",
":. c #F0E9DE",
">. c #F0EADF",
",. c #FAEEDC",
"<. c #FAEEDD",
"1. c #FBF0DD",
"2. c #FBF1DD",
"3. c #EBE7E3",
"4. c #ECE8E4",
"5. c #F9EFE0",
"6. c #FAEFE1",
"7. c #F7F1E6",
"8. c #F7F2E7",
"9. c #FCF3E1",
"0. c #FCF3E3",
"q. c #FCF4E4",
"w. c #F9F6EA",
"e. c #F9F6EB",
"r. c #FCF6E8",
"t. c #FDF7EB",
"y. c #FBF7EC",
"u. c #FDF7EC",
"i. c #FAF8ED",
"p. c #FDF8EC",
"a. c #FDF8EE",
"s. c #FDF9F0",
"d. c #FCF9F1",
"f. c #FDF9F1",
"g. c #FEF9F0",
"h. c #FEF9F1",
"j. c #FEFAF1",
"k. c #FEF9F2",
"l. c #FEFAF2",
"z. c #FFFAF2",
"x. c #FFFBF2",
"c. c #FEFAF3",
"v. c #FFFBF3",
/* pixels */
"                                                                                                                                ",
"                                                                                                                                ",
"                                                                                                                                ",
"                                                                                                                                ",
"                                                                                                                                ",
"                                                                                                                                ",
"                                                                                                                                ",
"                                                                                                                                ",
"                                                                                                                                ",
"                                                                                                                                ",
"                                                                                                                                ",
"                                                                                                                                ",
"                                                                                                                                ",
"                                                                                                                                ",
"                                                                                                                                ",
"                                                                                                                                ",
"                                                                                                                                ",
"                                                                                                                                ",
"                                                                                                                                ",
"                                                                                                                                ",
"                                                                                                                                ",
"                                                                                                                                ",
"                                                                                                                                ",
"                                                                                                                                ",
"                                                                                                                                ",
"                                                                                                                                ",
"                                                                                                                                ",
"                                                                                                                                ",
"                                                                                                                                ",
"                                                                                                                                ",
"                                                    0 0 q 8 0 7 q q 9 9 9 9                                                     ",
"                                              e r j / ) / _ / _ _ / ^ _ / ^ j r e                                               ",
"                                          ; i Z O._ { F G G F P A A F G P { _ ` C u -                                           ",
"                                        1 v O.[ F A F P U Y Y Y U U P P P F A G [ O.v <                                         ",
"                                      7 m =.P S P Q ;.q.r.q.9.9.7.q.q.q.9.;.~ P S F -.n 7                                       ",
"                                      a @.W D | 2.r.c.c.a.c.c.c.c.c.c.c.c.c.r.,.} F Y &.a                                       ",
"                                      4 @.E ~ 2.d.c.c.a.x.c.c.c.c.c.c.c.c.a.c.c.2.~ T &.6                                       ",
"                                      5 4. .X.c.c.c.c.c.a.c.x.x.x.x.x.x.c.c.c.c.c.X.X.3.2                                       ",
"                                      3 #.2.,.x.x.x.c.c.c.c.c.c.c.c.x.x.c.c.a.x.c.,.6.] ,                                       ",
"                                        x $.c.a.w.a.a.c.c.c.c.c.a.c.a.c.c.c.a.p.r.c.$.z &                                       ",
"                                          y M >.i.u.r.a.r.a.r.u.p.p.p.p.y.u.y.y.3.M t %                                         ",
"                                            = k c B 7.y.w.w.w.w.w.w.w.r.e.7.B c k * $                                           ",
"                                              O $ > f g f g f g f f f f s s > $ X                                               ",
"                                                    O O O @ O @ O O O O $ O                                                     ",
"                                                                                                                                ",
"                                                                                                                                ",
"                                                                                                                                ",
"                                                                                                                                ",
"                                                                                                                                ",
"                                                                                                                                ",
"                                                                                                                                ",
"                                                                                                                                ",
"                                                                                                                                ",
"                                                                                                                                ",
"                                                                                                                                ",
"                                                                                                                                ",
"                                                                                                                                ",
"                                                                                                                                ",
"                                                                                                                                ",
"                                                                                                                                ",
"                                                                                                                                ",
"                                                                                                                                ",
"                                                                                                                                ",
"                                                                                                                                "
};
