/* XPM */
static char *_8f58fb36c4048ac8000b55ecd1dbbc33OP18asHotkObuiP[] = {
/* columns rows colors chars-per-pixel */
"64 64 196 2 ",
"   c None",
".  c #110201",
"X  c #1D0F0B",
"o  c #1C100B",
"O  c #21130B",
"+  c #2E1C14",
"@  c #422F22",
"#  c #523C2C",
"$  c #5C4532",
"%  c #68482B",
"&  c #77593C",
"*  c #6B5746",
"=  c #715F4E",
"-  c #745841",
";  c #6E5F54",
":  c #6F6055",
">  c #736257",
",  c #78675A",
"<  c #821E1A",
"1  c #87241B",
"2  c #93221C",
"3  c #8E2926",
"4  c #87352C",
"5  c #943129",
"6  c #943C38",
"7  c #982824",
"8  c #A12B25",
"9  c #A5332B",
"0  c #A53928",
"q  c #A83B39",
"w  c #B23C36",
"e  c #AE491A",
"r  c #8D493F",
"t  c #A1432A",
"y  c #BC532E",
"u  c #BA5929",
"i  c #B7443B",
"p  c #B6512D",
"a  c #9D603D",
"s  c #A96332",
"d  c #BE6234",
"f  c #C04D1C",
"g  c #CD612C",
"h  c #D76C2E",
"j  c #C2653A",
"k  c #D16E37",
"l  c #D3723E",
"z  c #DB783E",
"x  c #E27736",
"c  c #A53E41",
"v  c #B53F40",
"b  c #8E4B42",
"n  c #B84645",
"m  c #AC544D",
"M  c #AA5742",
"N  c #A64952",
"B  c #A94C56",
"V  c #AD5351",
"C  c #876348",
"Z  c #896D4B",
"A  c #927152",
"S  c #94734C",
"D  c #A2694D",
"F  c #BD6343",
"G  c #B7744C",
"H  c #A66553",
"J  c #B86856",
"K  c #AB765B",
"L  c #B97659",
"P  c #817061",
"I  c #8B7865",
"U  c #82746C",
"Y  c #8C7A67",
"T  c #947E69",
"R  c #A46D63",
"E  c #B16163",
"W  c #AF7862",
"Q  c #B87073",
"!  c #C24E48",
"~  c #C3514C",
"^  c #C8564A",
"/  c #CC5953",
"(  c #D15E57",
")  c #D67945",
"_  c #C96052",
"`  c #D5645B",
"'  c #D96958",
"]  c #C67953",
"[  c #E46F57",
"{  c #C26F62",
"}  c #E77E62",
"|  c #BD8D5E",
" . c #BF8E66",
".. c #B6976F",
"X. c #A68F73",
"o. c #A8937B",
"O. c #B29B7D",
"+. c #B99E7E",
"@. c #B69770",
"#. c #C08154",
"$. c #DB885B",
"%. c #C2905E",
"&. c #EE964F",
"*. c #E18850",
"=. c #ED9551",
"-. c #EB975A",
";. c #F29A54",
":. c #E4854E",
">. c #F5A757",
",. c #CB8360",
"<. c #D58662",
"1. c #C6956A",
"2. c #C78D78",
"3. c #CC9F73",
"4. c #EC9C64",
"5. c #F09475",
"6. c #CAA179",
"7. c #D0A67B",
"8. c #EDA26A",
"9. c #F3A46A",
"0. c #F9B86A",
"q. c #F1AA73",
"w. c #F8AF71",
"e. c #F9BB74",
"r. c #F6B47C",
"t. c #F7BB76",
"y. c #9D8E83",
"u. c #BA9A85",
"i. c #AFA397",
"p. c #B3A69A",
"a. c #C88D86",
"s. c #C69880",
"d. c #CB9396",
"f. c #CEAD88",
"g. c #DEAD8B",
"h. c #DAAA83",
"j. c #D7B98F",
"k. c #C9A996",
"l. c #C7B29B",
"z. c #C7B093",
"x. c #DDBC95",
"c. c #D7B99B",
"v. c #E1B899",
"b. c #F6B685",
"n. c #CCA9A5",
"m. c #C8B8A8",
"M. c #CEBFB4",
"N. c #DFC49B",
"B. c #DEC4A4",
"V. c #CEC0B5",
"C. c #DECDB5",
"Z. c #D6C7BA",
"A. c #D9CCBF",
"S. c #E1C9A5",
"D. c #E4CBAB",
"F. c #E2C0A7",
"G. c #E7D1AD",
"H. c #EAD3AF",
"J. c #E5CCB7",
"K. c #E3D2B7",
"L. c #EBD6B6",
"P. c #E5D4BD",
"I. c #EAD6BD",
"U. c #EDD9BC",
"Y. c #F1DCBD",
"T. c #F2E0BF",
"R. c #D9CCC0",
"E. c #E1CFC4",
"W. c #EBDAC2",
"Q. c #E6D7CB",
"!. c #ECDBDE",
"~. c #EADDD2",
"^. c #F4E2C3",
"/. c #F4E4CA",
"(. c #F9E4C5",
"). c #ECE1D2",
"_. c #E9E5DE",
"`. c #E7E2D8",
"'. c #F3E4D4",
"]. c #F7EAD3",
"[. c #FAEAD6",
"{. c #F7E6DA",
"}. c #F3EADC",
"|. c #F9EDDA",
" X c #EBE6E3",
".X c #ECE8E5",
"XX c #F4ECE3",
"oX c #F6EFEA",
"OX c #F7F1E4",
"+X c #FBF0E1",
"@X c #F7F2EA",
"#X c #FBF5E9",
"$X c #FDF8EE",
"%X c #FAF7F3",
"&X c #FDFAF3",
"*X c #FCFBFA",
/* pixels */
"                                                                                                                                ",
"                                                                                                                                ",
"                                                                                                                                ",
"                                                                                                                                ",
"                                                                                                                                ",
"                                                                                                                                ",
"                                                                                                                                ",
"                                                                                                                                ",
"                                                                                                                                ",
"                                                                                                                                ",
"                                                                                                                                ",
"                                                                                                                                ",
"                                                                                                                                ",
"                                                                                                                                ",
"                                                                                                                                ",
"                                                                                                                                ",
"                                                                                                                                ",
"                                                                                                                                ",
"                                                                                                                                ",
"                                                                                                                                ",
"                                                                                                                                ",
"                                                                                                                                ",
"                                                  C A @.l.M.M.M.V.V.V.l.@.A C                                                   ",
"                                              % S z.R.~.XX!.!.!. X@X@X#X).R.z.A                                                 ",
"                                            % O.Q.OX@XQ.d.N B B E 2.c.I.}.XXXXQ.O.%                                             ",
"                                          & u.}.#X).2.N n ~ ! / V q m 7.x.j.B.OX}.u.&                                           ",
"                                          +.}.OXF.K q ~ ( ` ( ! n w n ` v.N.N.G.}.}.u.                                          ",
"                                        Z C.OXB.D 5 ^ ' ( / v V Q m 9 8 V 2.1.N.S.).C.Z                                         ",
"                                        X.@XI.f.4 n [ [ ( n V F.J.J p y F ] F G L D.@XX.                                        ",
"                                      & C.*XK.K 6 ' 5.` n 3 k.W.L <.q.w.e.t.q.) p 2.%XC.&                                       ",
"                                      = _.}.L.r 7 ^ *./ 5 H J.<.k 9.r.r.0.&.-.4.y H }._.=                                       ",
"                                      > .XI.D.b 2 w i w < W g.) ;.9.e.e.9.z u 0 t 1.I. X:                                       ",
"                                      > .XP.D.R 2 9 0 5 4 s.J <.b.e.0.&.h j g.1.G j.K. X:                                       ",
"                                      > .XK.H.E.r w ^ 1 H 7.t g =.q.q.z j v.Y.7.6.G.W. X:                                       ",
"                                      > .XW.L.~.N ! / 1 D | u *.-.x l ] v./.3.1.U.T.]..X:                                       ",
"                                      = _.OX/.'.d.c 6 K | G ) -.9.:.f ] Y.c.6.U.[.(.OX_.*                                       ",
"                                      # p.*X/.].XXn.n./.L.M l >.&.k d | 1.3.W.#X^./.&Xp.@                                       ",
"                                        P @X|.(.[.&X&X$X'.] ) >.k e s 1.c.'.$X].T.@X@X,                                         ",
"                                        - m.&X[.T.+X&X&X$XD.<.*.g.v.K./.$X&X+XY.].*Xm.$                                         ",
"                                          T }.$X].^.|.#X&X$X{.'.#X#X&X&X#X}.^.].$X}.I                                           ",
"                                            o.`.$X]./.].|.+X+X+X+X+X+X[.]./.{.%X~.o.#                                           ",
"                                              Y V.}.%X#X[.[.[.{.[.[.[.[.#X%XXXM.I +                                             ",
"                                                $ I y.Z.$X*X*X*X*X*X*X$XZ.y.I $ O                                               ",
"                                                  o + * P U U U U U U P * + X                                                   ",
"                                                          . . . . . . .                                                         ",
"                                                                                                                                ",
"                                                                                                                                ",
"                                                                                                                                ",
"                                                                                                                                ",
"                                                                                                                                ",
"                                                                                                                                ",
"                                                                                                                                ",
"                                                                                                                                ",
"                                                                                                                                ",
"                                                                                                                                ",
"                                                                                                                                ",
"                                                                                                                                ",
"                                                                                                                                ",
"                                                                                                                                ",
"                                                                                                                                ",
"                                                                                                                                ",
"                                                                                                                                ",
"                                                                                                                                ",
"                                                                                                                                "
};
