/* XPM */
static char *c136143d0c874e378f4715ab99160225qSI1ciaL9ek8J2wE[] = {
/* columns rows colors chars-per-pixel */
"64 64 170 2 ",
"   c None",
".  c #771A07",
"X  c #80240B",
"o  c #913E0C",
"O  c #CA3C27",
"+  c #964E07",
"@  c #90410D",
"#  c #97460E",
"$  c #8B4111",
"%  c #8D4715",
"&  c #88421B",
"*  c #8A431C",
"=  c #904312",
"-  c #9C4015",
";  c #984416",
":  c #944916",
">  c #984810",
",  c #9B4916",
"<  c #934D1B",
"1  c #9E4E1A",
"2  c #94541F",
"3  c #995319",
"4  c #9A5318",
"5  c #9D5B1D",
"6  c #A6570D",
"7  c #A44D15",
"8  c #AD4C12",
"9  c #AA4916",
"0  c #A94D17",
"q  c #AC4F15",
"w  c #AB4E1C",
"e  c #B24A15",
"r  c #A35111",
"t  c #A45211",
"y  c #AF5216",
"u  c #A0501A",
"i  c #AC581B",
"p  c #BC531D",
"a  c #B3591A",
"s  c #B8581C",
"d  c #BB581C",
"f  c #B9671A",
"g  c #BB7018",
"h  c #BF761B",
"j  c #8C4921",
"k  c #965621",
"l  c #965525",
"z  c #955426",
"x  c #955527",
"c  c #965527",
"v  c #9F5D22",
"b  c #9E5E2A",
"n  c #AA5C28",
"m  c #B65E25",
"M  c #B95834",
"N  c #9D652A",
"B  c #AD6C24",
"V  c #A0612E",
"C  c #A0612F",
"Z  c #AC692A",
"A  c #B96424",
"S  c #B56D23",
"D  c #B76929",
"F  c #B66A2B",
"G  c #B87325",
"H  c #BC7726",
"J  c #B17E2B",
"K  c #A56D33",
"L  c #B16C30",
"P  c #C45317",
"I  c #C16618",
"U  c #D75C24",
"Y  c #CB563C",
"T  c #C26722",
"R  c #C46821",
"E  c #C47A29",
"W  c #D67A26",
"Q  c #B07E40",
"!  c #D85C40",
"~  c #DA7845",
"^  c #E86240",
"/  c #9D863F",
"(  c #BF8E38",
")  c #C28025",
"_  c #C58127",
"`  c #D18B29",
"'  c #D69328",
"]  c #D0912F",
"[  c #DC9729",
"{  c #DD9729",
"}  c #C08D37",
"|  c #C7833C",
" . c #D58831",
".. c #D79731",
"X. c #D89732",
"o. c #DA9A31",
"O. c #D9943B",
"+. c #DE9E3E",
"@. c #EDAF33",
"#. c #E8AD3F",
"$. c #EBB036",
"%. c #F0B838",
"&. c #F2BB39",
"*. c #F0B93A",
"=. c #F0B93B",
"-. c #F1BB3A",
";. c #F2BC39",
":. c #F2BC3A",
">. c #F2BC3B",
",. c #F2BB3C",
"<. c #F0BC3C",
"1. c #F2BC3C",
"2. c #F3BD3C",
"3. c #F3BF3C",
"4. c #F3BF3D",
"5. c #B18141",
"6. c #BD9848",
"7. c #A79A52",
"8. c #BEA054",
"9. c #AEA56D",
"0. c #C88943",
"q. c #D78948",
"w. c #C49A45",
"e. c #CB9E46",
"r. c #C48A50",
"t. c #D99153",
"y. c #D79A52",
"u. c #DF9D55",
"i. c #E48F4B",
"p. c #EA924A",
"a. c #F38259",
"s. c #E79F56",
"d. c #D6A247",
"f. c #DBA447",
"g. c #C7B74C",
"h. c #CCBB48",
"j. c #D9AE50",
"k. c #E8AD40",
"l. c #ECBD4C",
"z. c #F0BF4C",
"x. c #E5AF54",
"c. c #EBAA53",
"v. c #E7A159",
"b. c #EEBF50",
"n. c #C99D65",
"m. c #F09E7F",
"M. c #D7B562",
"N. c #B7C566",
"B. c #B4C46E",
"V. c #BDD57D",
"C. c #B8E165",
"Z. c #CDC74E",
"A. c #F5C143",
"S. c #F5C542",
"D. c #F4C448",
"F. c #DDC662",
"G. c #C0D168",
"H. c #D6D66B",
"J. c #C2DD77",
"K. c #E2C478",
"L. c #D9D681",
"P. c #D0DB8D",
"I. c #E4DB83",
"U. c #EDDF93",
"Y. c #C8E984",
"T. c #CFF180",
"R. c #E3F393",
"E. c #E1F89D",
"W. c #DCF3A7",
"Q. c #E2F0A7",
/* pixels */
"                                                                                                                                ",
"                                                                                                                                ",
"                                                                                                                                ",
"                                                                                                                                ",
"                                                                                                                                ",
"                                                                                                                                ",
"                                                                                                                                ",
"                                                                                                                                ",
"                                                                                                                                ",
"                                                                                                                                ",
"                                                                                                                                ",
"                                                                                                                                ",
"                                                                                                                                ",
"                                                                                                                                ",
"                                                                                                                                ",
"                                                                                                                                ",
"                                                                                                                                ",
"                                                                                                                                ",
"                                                                                                                                ",
"                                                                                                                                ",
"                                                                                                                                ",
"                                                                                                                                ",
"                                                                                                                                ",
"                                                                                                                                ",
"                                                                                                                                ",
"                                                        c c c c c                                                               ",
"                                                    v ] x.u.u.v.s._ k                                                           ",
"                                                  B +.W U Y Y ~ t.p.q.V                                                         ",
"                                              . X i P O ^ a.m.L.F.i.e.j.V                                                       ",
"                                            # f E | p M M.c.K.W.U.H.C.Z.f.b                                                     ",
"                                          4 ' @.4.D.#.d.} n.I.R.E.T.Y.V.h.)                                                     ",
"                                          > [ -.-.-.S.A.#.r.7.P.Q.J.N.9.B.g.Z                                                   ",
"                                            t { >.>.>.-.4.b.L n 8./ G.6.2 J E                                                   ",
"                                              t ` $.2.4.-.2. .9 0 D w.A y , 6                                                   ",
"                                                ; H X.-.-.2.l.m e s a q R $ +                                                   ",
"                                                    1 G X.-.=.O.w d T 8 7 N 5                                                   ",
"                                                        u S o.l.0.- = % K Q j                                                   ",
"                                                            : 4 F I g ( 5.&                                                     ",
"                                                                  o @ < *                                                       ",
"                                                                                                                                ",
"                                                                                                                                ",
"                                                                                                                                ",
"                                                                                                                                ",
"                                                                                                                                ",
"                                                                                                                                ",
"                                                                                                                                ",
"                                                                                                                                ",
"                                                                                                                                ",
"                                                                                                                                ",
"                                                                                                                                ",
"                                                                                                                                ",
"                                                                                                                                ",
"                                                                                                                                ",
"                                                                                                                                ",
"                                                                                                                                ",
"                                                                                                                                ",
"                                                                                                                                ",
"                                                                                                                                ",
"                                                                                                                                ",
"                                                                                                                                ",
"                                                                                                                                ",
"                                                                                                                                ",
"                                                                                                                                ",
"                                                                                                                                "
};
