/* XPM */
static char *a0becb4145ce434ecb2d2602d6c370bd0IaYN5JQzt0F2qPa[] = {
/* columns rows colors chars-per-pixel */
"64 64 213 2 ",
"   c None",
".  c #010203",
"X  c #070709",
"o  c #0A0709",
"O  c #0B0B0D",
"+  c #090608",
"@  c #130709",
"#  c #140A0C",
"$  c #1C0C0E",
"%  c #160506",
"&  c #0F0E11",
"*  c #150F11",
"=  c #131315",
"-  c #161619",
";  c #181619",
":  c #17191C",
">  c #1A1B1E",
",  c #1B1114",
"<  c #0F1318",
"1  c #290B0C",
"2  c #210C0D",
"3  c #330F10",
"4  c #2A1619",
"5  c #3C1214",
"6  c #3D1A1D",
"7  c #371112",
"8  c #320D0E",
"9  c #1B1D20",
"0  c #231F21",
"q  c #3C1E21",
"w  c #242426",
"e  c #252528",
"r  c #2A292C",
"t  c #27272B",
"y  c #372528",
"u  c #2D2D31",
"i  c #322E32",
"p  c #3C2F33",
"a  c #2E3135",
"s  c #333236",
"d  c #34353A",
"f  c #3B3A3E",
"g  c #38363A",
"h  c #421415",
"j  c #471718",
"k  c #571A1A",
"l  c #631C1D",
"z  c #6A1F1F",
"x  c #4A1F21",
"c  c #6E1F20",
"v  c #631F20",
"b  c #4C3031",
"n  c #692526",
"m  c #742222",
"M  c #7B2627",
"N  c #622D31",
"B  c #653235",
"V  c #743335",
"C  c #6D4229",
"Z  c #3B3D42",
"A  c #373F43",
"S  c #413E44",
"D  c #5D3D41",
"F  c #3B4146",
"G  c #3B4348",
"H  c #454549",
"J  c #4A464C",
"K  c #4B494E",
"L  c #414145",
"P  c #564A4E",
"I  c #4D4C51",
"U  c #444C51",
"Y  c #564C52",
"T  c #4C5154",
"R  c #545355",
"E  c #54545A",
"W  c #5B5B5C",
"Q  c #59585D",
"!  c #695855",
"~  c #774B4F",
"^  c #5C5B62",
"/  c #555B61",
"(  c #625E66",
")  c #5D646A",
"_  c #5E6166",
"`  c #636165",
"'  c #65636A",
"]  c #686B6D",
"[  c #78656C",
"{  c #626D74",
"}  c #6C6C74",
"|  c #736E76",
" . c #716F78",
".. c #647178",
"X. c #677379",
"o. c #75737B",
"O. c #78767B",
"+. c #812626",
"@. c #8C2929",
"#. c #832828",
"$. c #952C2C",
"%. c #9D2E2E",
"&. c #903536",
"*. c #8A3435",
"=. c #A22F2F",
"-. c #AC3232",
";. c #A63C3D",
":. c #A9393A",
">. c #B23434",
",. c #B83535",
"<. c #9D5227",
"1. c #BC5639",
"2. c #AC513C",
"3. c #C16029",
"4. c #C96636",
"5. c #C35E33",
"6. c #863D40",
"7. c #8A4245",
"8. c #9D4A4C",
"9. c #9A4447",
"0. c #85555A",
"q. c #975559",
"w. c #92534F",
"e. c #A2494B",
"r. c #B94D4F",
"t. c #B6554A",
"y. c #B25551",
"u. c #BF7149",
"i. c #B9694E",
"p. c #8F5B62",
"a. c #925E62",
"s. c #956066",
"d. c #996768",
"f. c #8A747C",
"g. c #8F7A7B",
"h. c #927C7C",
"j. c #8F6C73",
"k. c #A57463",
"l. c #AC7072",
"z. c #8E614D",
"x. c #C25940",
"c. c #C97972",
"v. c #C16F5C",
"b. c #B5867B",
"n. c #7B7B84",
"m. c #797B84",
"M. c #6E7880",
"N. c #827C85",
"B. c #8A7C84",
"V. c #957A81",
"C. c #7C828A",
"Z. c #77848C",
"A. c #7F8A93",
"S. c #84838C",
"D. c #89858D",
"F. c #8A8C8D",
"G. c #848A93",
"H. c #8B8992",
"J. c #888891",
"K. c #938D94",
"L. c #86959E",
"P. c #8C939D",
"I. c #8F9396",
"U. c #97979B",
"Y. c #99868D",
"T. c #A69592",
"R. c #8797A0",
"E. c #8E96A1",
"W. c #8B99A2",
"Q. c #939BA5",
"!. c #929BA5",
"~. c #95A2AC",
"^. c #9BA3AA",
"/. c #97A6B0",
"(. c #98A6B1",
"). c #9AABB5",
"_. c #9CAEB9",
"`. c #97A8B2",
"'. c #9EB1BB",
"]. c #A3A3A4",
"[. c #A9AAAA",
"{. c #A3B4BD",
"}. c #ACB4B8",
"|. c #BBBABB",
" X c #B0A8AE",
".X c #D48181",
"XX c #CB8D8F",
"oX c #D2A5A2",
"OX c #EBBCBC",
"+X c #AAB9C2",
"@X c #A7B9C3",
"#X c #F0BFC0",
"$X c #B7C3CA",
"%X c #BCC9D0",
"&X c #C7C9CA",
"*X c #D6C6C6",
"=X c #C2CED4",
"-X c #C5D1D7",
";X c #C6D2D8",
":X c #CDD7DD",
">X c #DCDCDC",
",X c #D1D6D9",
"<X c #D4CED1",
"1X c #D3DBE0",
"2X c #DCE3E6",
"3X c #E2E2E2",
"4X c #E3EAED",
"5X c #E8EAEB",
"6X c #F5E6E6",
"7X c #ECF1F4",
"8X c #F2F4F5",
"9X c #F7F9FA",
"0X c #E3C5C5",
/* pixels */
"                                        X X X . . . X . . . X .                                                                 ",
"                                        X X X + X X X X X + X X                                                                 ",
"                                        X X X O # $ , $ $ $ $ $                                                                 ",
"                                        . X O $ 4 5 j j h h 5 7 4                                                               ",
"                                        . X # 4 j v m m m c v k 7 $ X                                                           ",
"                                        . + $ 7 k +.$.%.%.$.#.v 5 $ X .                                                         ",
"                                        . X $ 5 v +.%.=.;.;.&.n 6 $ X .                                                         ",
"                                          X $ 7 k v M *.6.e.9.B q * . . .                                                       ",
"                                              1 3 j x B ~ p.0.P y * . . . . . . . . . . . . .                                   ",
"                                                @ 2 0 b ! [ p.Y p ; + . . X X X X X X X X . X X                                 ",
"                                                * 9 0 S ^ | | ( H u 9 : > 9 9 9 9 9 > > 9 9 9 :                                 ",
"                                              > 9 u Z R ( o.m.} / U G F A F F F F F F F G F A A r                               ",
"                                          . < 0 Z I Q ' | n.n.n.o.X...{ { { { { { { { { { { ) U d : X                           ",
"                                        . + 9 i S ' | n.n.N.N.H.G.L.R.R.R.R.L.R.R.L.R.R.W.R.Z.) A 9 X .                         ",
"                                        & : 0 S ^ n.B.H.D.D.H.P.Q.(.)._._._.).).).)._._.'.).L.{ F 9 X .                         ",
"                                      9 e i Z E  .N.P.E.P.I.P.W.(._._.'.'._.'.'.'.'.'.@X@X'.R.{ F > X .                         ",
"                                  X - e g K ! } C.P.Q.Q.Q.Q.Q.~.`.)._._._._._._._._.'.{.{._.R...F > X .                         ",
"                                . X - i K ' M.G.E.~.(.).(.).(.).)._._.'._._._._._._.'.{.{._.R.] F 9 X .                         ",
"                                . X - s E O.J.E.Q.)._.{.{.@X+X+X+X+X+X+X+X+X+X+X@X@X+X+X$X@XQ.X.G 9 X .                         ",
"                                . X ; d ^ N.!.Q.(.).{.+X$X%X=X=X-X-X-X;X;X-X-X-X;X;X;X:X:X=X}.C.T 0 X .                         ",
"                                . X 9 Z ' A.Q.(.)._.{.$X-X,X3X5X4X4X4X4X4X4X4X4X4X4X4X7X7X4X%XI.E e X .                         ",
"                                . X 9 Z { L.(._._.).+X$X1X5X8X8X8X8X8X8X8X8X8X7X7X8X8X8X8X7X,XU.W e X .                         ",
"                                . X 9 A { R._._._._.+X=X2X8X9X8X5X3X>X>X>X>X>X>X>X>X>X3X2X>X+Xb.R w X .                         ",
"                                . X 9 A { R.).@X_.).+X=X4X8X8X3X&X[.].U.U.].].].[.].[.[._.W.b.` f > X .                         ",
"                                . X > F { R._.{._._.+X-X4X8X5X&XT.X.W R R W W W W ] W ] W W T f w = X .                         ",
"                                . X 9 F { R.)._._._.+X-X5X8X3X}.O.H r 0 w r r r t t r r r r w > = O X .                         ",
"                                . X > F { L.(._._._.+X-X4X7X>X|.O.H r w w r w 9 = O & = 9 w w 9 = O X X                         ",
"                                . X : Z ' G.Q.).)._.+X-X5X9X5X&X].O.W W W W T g : O O 9 g T T L e = X .                         ",
"                                . X > g ^ C.E.Q./.).+X-X4X9X9X3X&X|.].].[.].F.W a = = d ] I.F.] F > + .                         ",
"                                . X ; s E o.H.E.Q.(.+X=X2X7X9X8X5X3X>X>X3X>X@Xb.P w w T K.|.|.K.Q w X .                         ",
"                                . X = r J ( O.S.E.Q.{.$X,X5X5X8X6X6X6X6X6X6X&XT.! p b ! T.*X*XK.W t X .                         ",
"                                . X = > i K ^ } C.L.(.}.+X<X<X0X0XOXOXOXOX*XoXb.z.C C z.b.oXoXh.P 4 X .                         ",
"                                X X & = 0 u S E  .G.E.(. X}. XoXXXb..X.X.X.Xc.i.2.<.<.i.i.c.l.w.b 4 X .                         ",
"                                . . X O O - e S ^ n.B.B.P.E.V.V.k.i.r.r.x.r.r.r.5.3.3.3.x.t.9.V x , X .                         ",
"                                X X X . . X < i Y [ V.B.B.V.j.a.q.e.2.:.;.:.e.1.5.4.4.4.1.2.&.N j * X .                         ",
"                                  . . . . . & q D ~ p.a.p.p.p.q.8.8.6.e.9.9.e.t.i.u.u.i.y.8.*.N q , X .                         ",
"                                      . . . * q B 6.e.e.e.e.8.8.q.q.p.p.p.p.a.s.k.k.k.k.d.a.~ D y * X .                         ",
"                                        . X , x n 6.;.;.:.;.e.q.a.j.f.f.f.f.f.g.h.h.g.h.V.f.[ P i - X .                         ",
"                                        o o $ q n 6.;.,.,.e.e.q.j.B.D.J.J.D.S.D.D.D.D.H.K.D.M.E s ; X .                         ",
"                                      j $ # , x B 6.8.y.e.e.q.d.V.H.P.!.W.!.P.P.E.E.E.E.E.P.C./ d > X .                         ",
"                                  >.@.l 8 * , y D ~ a.a.a.a.j.V.K.Q.^.(.(.~.~.~.~.~.(.(.(.Q.G.) A > X .                         ",
"                                ,.-.$.v 7 $ ; u P [ B.V.B.V.B.H.!.Q.(.(.`.(.(.`.(.(.(.).).(.L.) Z > X .                         ",
"                                ,.-.$.c h $ ; a E | N.B.B.N.H.G.G.L.R.R.R.L.R.R.L.R.W.Q.(./.G.{ Z > X .                         ",
"                              >.>.-.$.c h $ ; a E M.N.H.H.N.N.m.M.............{ { ..M.Z.R.W.G.{ Z > X .                         ",
"                          -.-.-.>.-.$.c h 2 ; a T  .N.H.H.D.n.} / U G F F G G F A F U ) m.G.N.^ f > X .                         ",
"                        -.-.-.>.>.-.$.c 5 $ ; a E | N.H.D.N.o.^ G r 9 ; : 9 9 : : 9 u H ' o.| ^ d : X .                         ",
"                        -.-.-.>.>.-.$.c h $ ; a E | N.B.N.| ' I p 4 * @ + + o O & - w Z E ( ( K u = X .                         ",
"                        >.-.-.>.>.-.$.c 5 $ ; d Q | N.O.' ( Y b b j 7 1 % + + & 9 r d S J I K S e = + .                         ",
"                        -.-.>.>.>.-.$.c h 2 ; d Q o.n.} E Z p b v z l h 1 @ & 9 g K I K S g i e ; O X                           ",
"                        -.-.-.>.-.-.$.z 5 $ - s E } | ^ Z e 4 j n +.+.l 3 $ - u K ( ( E g w - O O +                             ",
"                        %.=.=.-.-.=.@.l 7 $ = r K ( ( I a : $ h z @.@.z 5 $ - r K ( ( Y i ; X . .                               ",
"                        +.@.@.$.$.@.m k 1 $ = w g J J S w # % 8 l M M k 8 # < w Z K I S e & . .                                 ",
"                          z v m m n k 3 $ O O - 0 u u e ; o @ 1 j l k h $ # O : e i i t > O .                                   ",
"                                    1 $ @ + X O & - = < & X         1 $ @ + o & & - - - O X                                     ",
"                                      . X + X X + X X + .             X X X X X X X X + X                                       ",
"                                        . . X . . . . .                 . . . . . . . .                                         ",
"                                          . X . . . .                     . X . . . .                                           ",
"                                                                                                                                ",
"                                                                                                                                ",
"                                                                                                                                ",
"                                                                                                                                ",
"                                                                                                                                ",
"                                                                                                                                ",
"                                                                                                                                "
};
