/* XPM */
static char *_918080b7e2e471be81601c00ae744d79KdrsffxaSdrCnRT[] = {
/* columns rows colors chars-per-pixel */
"64 64 204 2 ",
"   c None",
".  c #010203",
"X  c #070709",
"o  c #0A0709",
"O  c #0B0A0C",
"+  c #0A0608",
"@  c #140A0C",
"#  c #1C0C0E",
"$  c #130608",
"%  c #0F0E10",
"&  c #140F11",
"*  c #1B0F12",
"=  c #131315",
"-  c #161619",
";  c #181619",
":  c #1A1B1E",
">  c #191518",
",  c #0F1318",
"<  c #290C0D",
"1  c #210C0D",
"2  c #310F10",
"3  c #27191B",
"4  c #3B1213",
"5  c #3C1A1D",
"6  c #371214",
"7  c #320E0F",
"8  c #1B1D20",
"9  c #231F21",
"0  c #3C1F21",
"q  c #1F2024",
"w  c #242426",
"e  c #252528",
"r  c #2A292C",
"t  c #27272B",
"y  c #362427",
"u  c #2D2D32",
"i  c #322D32",
"p  c #3C2F33",
"a  c #2E3135",
"s  c #2F3338",
"d  c #333136",
"f  c #34353A",
"g  c #3C3A3E",
"h  c #38363A",
"j  c #421314",
"k  c #471819",
"l  c #581A1A",
"z  c #631C1C",
"x  c #6A1F1F",
"c  c #4D1F22",
"v  c #6E1F20",
"b  c #4D3030",
"n  c #6C2122",
"m  c #6A2729",
"M  c #752425",
"N  c #612D31",
"B  c #673234",
"V  c #743335",
"C  c #6D4229",
"Z  c #3C3D42",
"A  c #5C3C41",
"S  c #403D43",
"D  c #3B4146",
"F  c #3D4348",
"G  c #424145",
"H  c #4C494E",
"J  c #47464A",
"K  c #56494E",
"L  c #4D4C51",
"P  c #464B51",
"I  c #544C52",
"U  c #4D5055",
"Y  c #545256",
"T  c #53535A",
"R  c #5B5B5D",
"E  c #59585D",
"W  c #6D5251",
"Q  c #5C5C62",
"!  c #565961",
"~  c #625E65",
"^  c #5D6369",
"/  c #636164",
"(  c #66636B",
")  c #686B6D",
"_  c #78656C",
"`  c #626D74",
"'  c #6B6B73",
"]  c #736D75",
"[  c #716F78",
"{  c #6A737A",
"}  c #75717A",
"|  c #7A757E",
" . c #767778",
".. c #8D2929",
"X. c #822727",
"o. c #952B2C",
"O. c #9E2E2E",
"+. c #8A383A",
"@. c #913537",
"#. c #A22F2F",
"$. c #AB3232",
"%. c #A73D3F",
"&. c #A73A3B",
"*. c #B33434",
"=. c #B83535",
"-. c #9D5227",
";. c #BC573A",
":. c #AC513D",
">. c #C35E33",
",. c #C16029",
"<. c #C96637",
"1. c #863E41",
"2. c #A93E40",
"3. c #8B4345",
"4. c #9C494D",
"5. c #9A4648",
"6. c #825458",
"7. c #925655",
"8. c #A14A4B",
"9. c #B84F4F",
"0. c #B54A4A",
"q. c #AA584E",
"w. c #B6564B",
"e. c #B84F51",
"r. c #A35458",
"t. c #BB6C51",
"y. c #935E64",
"u. c #B45E60",
"i. c #946066",
"p. c #9A666A",
"a. c #8A747B",
"s. c #8F7A7A",
"d. c #94787B",
"f. c #926A71",
"g. c #AA7968",
"h. c #B26D6B",
"j. c #8E614D",
"k. c #C25940",
"l. c #C27353",
"z. c #C97875",
"x. c #D07E7E",
"c. c #B5867B",
"v. c #D1807F",
"b. c #7D7A84",
"n. c #7A7B84",
"m. c #837C85",
"M. c #887E87",
"N. c #7D828A",
"B. c #77848C",
"V. c #84838C",
"C. c #89858D",
"Z. c #8A8C8D",
"A. c #8A8992",
"S. c #868992",
"D. c #86959E",
"F. c #8C939C",
"G. c #8F9396",
"H. c #99989B",
"J. c #94898D",
"K. c #AB8E8D",
"L. c #8999A2",
"P. c #8797A0",
"I. c #939CA5",
"U. c #95A1AA",
"Y. c #9CA2A9",
"T. c #98A7B1",
"R. c #97AAB4",
"E. c #9AACB6",
"W. c #9CAEB8",
"Q. c #9EB1BC",
"!. c #A3A3A4",
"~. c #A9AAAA",
"^. c #A1B3BD",
"/. c #ADB4B7",
"(. c #BAB9BB",
"). c #ABA6AD",
"_. c #D38282",
"`. c #C89697",
"'. c #D6A7A4",
"]. c #CAA1A1",
"[. c #EBBBBB",
"{. c #E2B3B2",
"}. c #AAB9C2",
"|. c #A6B9C3",
" X c #D1BDC0",
".X c #B8C3CA",
"XX c #C7C9CA",
"oX c #D4C4C3",
"OX c #C2CDD3",
"+X c #C6D2D8",
"@X c #C7D3D9",
"#X c #DCDCDC",
"$X c #D3D7DB",
"%X c #EBCBCC",
"&X c #DBE2E6",
"*X c #E2E2E2",
"=X c #E3EAED",
"-X c #ECECEC",
";X c #E0E7EA",
":X c #F4E3E3",
">X c #F9E8E8",
",X c #ECF1F4",
"<X c #F2F4F5",
"1X c #F6F9FA",
/* pixels */
"                                                        . . . X                                                                 ",
"                                                        X X X X                                                                 ",
"                                                        # # # #                                                                 ",
"                                                      < 6 j 4 6 2                                                               ",
"                                          X X . X . @ 6 l z v k 6 # X                                                           ",
"                                        X X X X X X # k n X.X.n k # X .                                                         ",
"                                        X X X X o # 2 c V @.+.M k * X .                                                         ",
"                                        . X + # < 6 c m +.5.3.B 0 @ . . .                                                       ",
"                                        X X $ < 4 v m 1.7.y.6.A y & . . . . . . . . . . . . .                                   ",
"                                        . X # 4 z X.@.4.y.f._ I d ; o . X X X X X X X X X X X X                                 ",
"                                        . X * 5 m +.2.r.p.M.[ ! F u 8 : - 8 8 8 8 8 : : 8 8 8 8                                 ",
"                                        . . * 5 B 1.r.p.f.M.n.' ! P D Z D D D D D D D D D D D s r                               ",
"                                        . . = 0 A 6.p.d.M.m.m.n.n.` ` ` ` ` ` ` ` ` ` ` { ` ^ U s : X                           ",
"                                        . X > i K _ M.M.M.M.M.V.S.D.P.P.L.P.P.P.P.D.P.P.P.D.B.^ D 8 X .                         ",
"                                        & - e S Q b.M.M.J.C.A.L.I.T.E.W.W.E.E.E.E.W.W.Q.Q.E.D.` D : X .                         ",
"                                      8 e a S T ' V.F.F.F.F.F.I.R.W.Q.^.^.^.Q.^.Q.Q.Q.|.|.Q.L.` F : X .                         ",
"                                  X - t g H Q ] V.F.I.I.I.I.I.U.R.W.Q.Q.Q.Q.Q.Q.Q.Q.Q.|.|.Q.L.` F 8 X .                         ",
"                                . X - u H ( | V.F.I.E.R.R.E.T.R.E.W.W.W.W.W.W.W.W.W.W.Q.Q.Q.L.` D : X .                         ",
"                                . X - d T | A.I.I.E.E.E.W.W.E.W.E.E.W.W.W.W.W.W.W.R.W.W.^.W.L.{ D : X .                         ",
"                                . X ; h ! m.F.U.E.E.W.W.E.E.W.R.W.R.R.R.R.R.R.R.R.R.W.W.Q.R.B.` D : X .                         ",
"                                . X : Z ^ V.I.E.W.E.E.Q.W.R.W.W.R.R.R.R.R.R.R.R.R.R.R.W.Q.R.B.` D : X .                         ",
"                                . X : Z ` D.T.Q.Q.W.W.E.W.W.W.W.W.E.W.W.W.W.W.W.W.W.W.Q.Q.E.L.{ D : X .                         ",
"                                . X 8 D ` P.E.^.Q.E.Q.^.|.^.}.}.}.}.|.|..X|.|..X|..X.X.X.X^.U.{ F 8 X .                         ",
"                                . X 8 D ` L.W.^.Q.W.^.}.}..X.XOXOX+X@X@X@X@X.X@X.X@X@X.X$X+X/.N.U q X .                         ",
"                                . X : D ` P.W.Q.Q.W.|.}.OX$X&X=X=X=X=X=X=X=X=X=X=X=X=X,X,X;XXXG.T w X .                         ",
"                                . X 8 D ` D.W.W.W.W.}..X$X-X<X<X<X<X<X<X<X<X<X<X<X<X<X1X1X,X$XH.R w X .                         ",
"                                . X : D ` D.T.W.W.W.}.OX&X<X1X<X-X*X#X#X#X#X#X#X#X#X#X*X*X#X(.Z.Y w X .                         ",
"                                . X : g ( A.I.T.R.W.}.+X-X<X<X*XXX~.!.H.H.H.!.!.!.!.~.~.~.!.Z./ g : X .                         ",
"                                . X : h Q N.I.I.T.E.}.+X=X<X-XXXH. .R Y R R R R / / / / R R Y g w % X .                         ",
"                                . X ; d T } C.L.I.T.}.+X=X<X*X/. .J r w w w r r t t w r r r w : = O X X                         ",
"                                . X = r J ~ n.V.F.I.|.+X=X,X*X(. .J r w w r w 8 = O O = 9 w w 8 = O X .                         ",
"                                . X & 8 i H Q ' n.L.W.XX&X1X-XXX!. .R R R R U h 8 X O 8 h U U Z t = X .                         ",
"                                . X O = 9 u Z T ' M.T.}.&X1X1X;XXX/.!.!.~.!.c.^ s = = f ) c.Z.) F : O X                         ",
"                                X X X % O > 9 Z ! b.H. X$X>X1X<X-X#X#X*X*X#X}.B.H 9 w U B.|.(.G.R w X X                         ",
"                                X X X . . X = i A ] M.]. X%X:X:X:X:X:X>X>X:XXXH.W i b / !.oXoXG.R w X .                         ",
"                                  . . . . . & 0 A 6.h.M.].'.{.[.[.[.[.[.[.[.'.c.j.C C j.c.'.].c.K w X .                         ",
"                                      . . . & 0 N 1.r.u.z.z.z._.x.x._._.v.v.v.t.:.-.-.;.l.z.h.6.b 3 X .                         ",
"                                        X o # 5 m @.2.2.0.0.2.e.e.e.e.e.k.w.w.;.;.,.,.,.k.0.8.V c 1 X .                         ",
"                                        o o * k M 1.2.2.2.2.2.2.2.2.2.2.&.:.:.;.<.<.<.<.;.:.+.m 5 * X .                         ",
"                                      k # O * 0 B 1.4.8.4.4.4.1.4.5.4.5.5.5.q.q.t.l.l.t.w.8.3.N 0 * X .                         ",
"                                  *...l 7 & * y A W y.r.y.y.y.y.y.y.i.y.y.y.y.p.g.g.g.g.p.y.6.B y > X .                         ",
"                                =.$...v 4 # ; i I _ M.M.a.M.a.a.a.a.a.m.a.a.M.a.d.d.s.d.a.a._ K i ; X .                         ",
"                                *.$.o.v k 1 ; a U [ M.M.M.M.M.b.} [ ] ] [ ] ] ] ] [ } a.m.m.] T d ; X .                         ",
"                                *.$.o.M j # ; a U n.M.A.A.M.m.n.( ! T U T T T T T U ! ) n.m.} T d ; X .                         ",
"                                *.$.o.n j 1 ; a Y [ m.A.A.V.b.( T Z a a a s s d u u Z T ' b.} E f ; X .                         ",
"                                *.$.o.v 4 # ; a Y [ m.A.A.m.} E Z e - = = - - = = - t S ~ ] [ T f ; X .                         ",
"                                =.$.o.v k # ; a Y ] m.M.m.} ( I p 3 # $ + + o O % = e Z I ~ ~ I r - X .                         ",
"                              *.=.$.o.v j # ; f T ] m.| ' E I b b k 6 < $ + o = 8 u h S H I L Z t = X .                         ",
"                          *.*.*.*.$.o.v j 1 ; f E } | ' T S p b N v z j < $ % 8 h H I L S h i e : O X                           ",
"                        $.$.$.$.*.$.o.v j # - a T ] ] Q Z e 3 k z X.X.z 6 # - u P ~ ~ Y g w - O O +                             ",
"                        O.#.$.$.#.#...z 4 # - u L ~ ( L u - # j x ....x 4 # = u L ~ ~ I d ; X . .                               ",
"                        X.....o.o...M l < $ = w h J H g w @ $ 7 z X.M l 7 @ , w Z H L S t % . .                                 ",
"                          z M M M x l 6 # @ O - e u u e - O $ < j z l j 1 @ % - 9 u a r : O .                                   ",
"                                    < $ + X X O & = - = O X         < 1 $ X X % = - > = O X                                     ",
"                                      X X . X X X X X . X             X X . X X X X X X X                                       ",
"                                        . X X . . . . .                 . X . . . . . .                                         ",
"                                          . X . . . .                     . . . . . .                                           ",
"                                                                                                                                ",
"                                                                                                                                ",
"                                                                                                                                ",
"                                                                                                                                ",
"                                                                                                                                ",
"                                                                                                                                ",
"                                                                                                                                "
};
