/* XPM */
static char *c31afb20a6534043cf516fda036d40a8ajwrSnhgemvzTajP[] = {
/* columns rows colors chars-per-pixel */
"64 64 205 2 ",
"   c None",
".  c #010203",
"X  c #070709",
"o  c #0A0709",
"O  c #0B0A0C",
"+  c #0A0608",
"@  c #130709",
"#  c #140A0C",
"$  c #1C0C0E",
"%  c #160607",
"&  c #0E0E11",
"*  c #130F12",
"=  c #1B0F11",
"-  c #131315",
";  c #161619",
":  c #18171A",
">  c #1A1B1E",
",  c #181619",
"<  c #0F1318",
"1  c #290B0C",
"2  c #210B0C",
"3  c #340D0E",
"4  c #2A1719",
"5  c #3C1214",
"6  c #3A1618",
"7  c #2E0F10",
"8  c #1B1D20",
"9  c #231F22",
"0  c #3C1E21",
"q  c #1F2024",
"w  c #242426",
"e  c #252528",
"r  c #2A292C",
"t  c #27272A",
"y  c #372528",
"u  c #2D2D32",
"i  c #322E32",
"p  c #3C2F33",
"a  c #2E3135",
"s  c #2F3338",
"d  c #323136",
"f  c #34353A",
"g  c #3B3A3E",
"h  c #39363A",
"j  c #431415",
"k  c #461819",
"l  c #571A1A",
"z  c #631D1D",
"x  c #6A1F1F",
"c  c #4A1F21",
"v  c #6B1F20",
"b  c #4B282B",
"n  c #48363B",
"m  c #4C2F2C",
"M  c #6A2526",
"N  c #732122",
"B  c #7B2627",
"V  c #622E31",
"C  c #6D3335",
"Z  c #6D4229",
"A  c #3B3D42",
"S  c #413D43",
"D  c #5C3B40",
"F  c #3B4146",
"G  c #3D4348",
"H  c #454549",
"J  c #4C494E",
"K  c #454348",
"L  c #58484D",
"P  c #4D4C51",
"I  c #464C51",
"U  c #544D54",
"Y  c #4D5055",
"T  c #545255",
"R  c #54535A",
"E  c #5C5B5D",
"W  c #5B585D",
"Q  c #695855",
"!  c #784B50",
"~  c #5C5B61",
"^  c #575961",
"/  c #625E65",
"(  c #5D6369",
")  c #636164",
"_  c #66636B",
"`  c #686B6D",
"'  c #77646B",
"]  c #626D74",
"[  c #6C6B73",
"{  c #736E76",
"}  c #716F78",
"|  c #687279",
" . c #75727A",
".. c #7B757E",
"X. c #767778",
"o. c #822626",
"O. c #8D2929",
"+. c #832828",
"@. c #952C2C",
"#. c #9C2E2E",
"$. c #923739",
"%. c #8A3435",
"&. c #A22F2F",
"*. c #AB3232",
"=. c #A63D3E",
"-. c #A83D3E",
";. c #A43232",
":. c #B33434",
">. c #B83535",
",. c #9D5227",
"<. c #BC573A",
"1. c #AC513D",
"2. c #C35E33",
"3. c #C16029",
"4. c #C96637",
"5. c #863E41",
"6. c #AA3E40",
"7. c #9D494C",
"8. c #9C4547",
"9. c #86565A",
"0. c #8D4E4B",
"q. c #A34A4B",
"w. c #B84F4F",
"e. c #B64C4C",
"r. c #AA584E",
"t. c #B6564B",
"y. c #B84F51",
"u. c #BB6C51",
"i. c #925E64",
"p. c #956166",
"a. c #9C6968",
"s. c #8A737B",
"d. c #8F7A7A",
"f. c #947A7D",
"g. c #866D74",
"h. c #AA7968",
"j. c #AF6A69",
"k. c #8E614D",
"l. c #C25940",
"z. c #C27353",
"x. c #C97876",
"c. c #D17F7F",
"v. c #B5867B",
"b. c #7C7A83",
"n. c #7B7B84",
"m. c #827C85",
"M. c #857F88",
"N. c #7C838A",
"B. c #85838C",
"V. c #8A848C",
"C. c #8A8C8D",
"Z. c #8A8992",
"A. c #878A93",
"S. c #86959E",
"D. c #8E939C",
"F. c #8F9396",
"G. c #98989B",
"H. c #908F90",
"J. c #AC9091",
"K. c #8797A0",
"L. c #8999A2",
"P. c #929CA6",
"I. c #929AA4",
"U. c #95A1AB",
"Y. c #9CA3A8",
"T. c #98A7B1",
"R. c #9AABB5",
"E. c #9CAEB9",
"W. c #97A6B1",
"Q. c #9EB1BB",
"!. c #A3A3A4",
"~. c #A9A9AB",
"^. c #A3B4BE",
"/. c #ADB4B7",
"(. c #BEBCBE",
"). c #B5B4B5",
"_. c #D38282",
"`. c #CBA1A2",
"'. c #D7A8A6",
"]. c #EBBBBB",
"[. c #E5B5B5",
"{. c #AABAC2",
"}. c #A7B8C2",
"|. c #B6C4CB",
" X c #BCC9D0",
".X c #C7C9CA",
"XX c #D4C5C6",
"oX c #C2CED4",
"OX c #C5D1D7",
"+X c #C6D2D9",
"@X c #CCD8DE",
"#X c #DCDCDC",
"$X c #D1D6D9",
"%X c #EDCDCE",
"&X c #D3DBE0",
"*X c #DCE2E6",
"=X c #E2E2E2",
"-X c #E3EAED",
";X c #E7EAEB",
":X c #F4E3E3",
">X c #F9E8E8",
",X c #ECF1F4",
"<X c #F2F4F5",
"1X c #F6F9FA",
"2X c #E2ECF0",
/* pixels */
"                                                                                                                                ",
"                                                                                                                                ",
"                                                                                                                                ",
"                                                                                                                                ",
"                                          X X X . X . X . X .                                                                   ",
"                                        X X X X X X X X X X X X                                                                 ",
"                                        . X o o * $ $ = $ $ $ =                                                                 ",
"                                        . X O $ 7 6 j k j j 5 3 7                                                               ",
"                                        . X # 7 k v M B N N z k 5 $ X                                                           ",
"                                        . X # 5 l +.@.#.#.@.o.v 6 $ X .                                                         ",
"                                        . X = 6 v B #.;.-.;.$.M 6 = X .                                                         ",
"                                          O $ 5 l v M %.6.7.8.C 0 $ . . .                                                       ",
"                                              1 7 j c V ! 9.9.L y * . . . . . . . . . . . . .                                   ",
"                                                @ = 4 n Q ' ' L p : O . . X O . X X X X X X X X                                 ",
"                                                * ; r S ~ {  ./ H u 8 ; > 8 8 8 > 8 8 8 > 8 > 8                                 ",
"                                              8 9 u A U _  .b.[ ~ I G A A G F F F F F F F F A s r                               ",
"                                          . & w h J R _ { b.b.n.N.| | | ] N.] N.N.N.] N.| | ] G f > .                           ",
"                                        . o ; i J _  .b.b.m.B.A.N.E.N.N.N.N.N.N.N.N.N.N.W.N.N.] F 8 X .                         ",
"                                        * ; e A ~ ..V.Z.V.V.A.D.E.E.Q.Q.Q.Q.Q.Q.Q.Q.E.Q.Q.E.N.| F 8 X .                         ",
"                                      > w i S R [ B.D.D.D.A.D.P.N.E.Q.Q.Q.Q.Q.Q.Q.Q.Q.^.Q.E.L.] F 8 X .                         ",
"                                  X ; e g J ~ { B.D.P.U.P.P.P.U.Q.E.E.Q.Q.N.}.Q.E.E.E.Q.^.E.K.] F > X .                         ",
"                                . X ; i J /  .B.D.U.T.T.T.T.T.R.Q.Q.E.E.E.Q.}.Q.Q.E.Q.Q.Q.E.K.] F 8 X .                         ",
"                                . X : d R ..A.I.U.T.E.^.^.^.}.}.}.}.Q.}.}.}.}.}.}.}.Q.}.|.}.U.X.G 8 X .                         ",
"                                . X : f ~ b.I.U.T.E.^.}.|. XoXoX+X+X+X+X@X@X+X+X+X+X@X@X@X+X/.N.Y q X .                         ",
"                                . X : A ( A.U.R.R.E.^.|.+X$X*X-X2X2X-X-X-X-X-X-X-X-X-X,X,X-X.XF.R w X .                         ",
"                                . X > A ( S.W.E.R.R.^. X&X;X<X1X2X2X,X,X<X<X,X<X<X<X<X1X1X,X.XG.E w X .                         ",
"                                . X 8 F ] K.E.Q.E.E.{.oX=X<X1X1X2X*X#X#X#X#X#X#X#X#X#X=X=X#X(.C.T w X .                         ",
"                                . X 8 F ] L.E.Q.E.E.{.oX=X1X<X=X X^.!.!.G.!.!.!.~.!.!.~.~.!.C.) g > X .                         ",
"                                . X 8 F ] L.E.Q.E.E.}.+X-X<X;X.XG.X.E T T E E E E ) ) ) ) E P g w * X .                         ",
"                                . X 8 F ] K.R.Q.E.E.}.+X-X<X=X).X.H r w w r r r r r r r r r w > - O X .                         ",
"                                . X > A ] S.W.E.R.E.}.+X-X<X*X).X.H r w w r w > - O O - > w w 8 - O X X                         ",
"                                . X > g ( N.U.R.R.Q.{.+X-X1X;X.X!.X.E E E E Y f > X O > g Y Y A t - X .                         ",
"                                . X : A ~ n.I.P.W.E.{.+X2X1X1X=X.X/.!.!.~.!.v.( d - - f ` C.N.| F > X X                         ",
"                                . X ; d ^  .V.I.P.R.}.oX*X<X1X<X;X=X#X#X=X#X|.N.I w w T C.(.{.v.E w X X                         ",
"                                . X ; t J /  .M.Z.I.`.(.XX=X:X:X:X:X:X>X:X:X.Xv.Q y m ) !.XXXXH.E w X .                         ",
"                                . X & 9 d J ~ ' p.M.M.`.`.'.[.[.].].].].].].).v.k.Z Z k.v.'.`.v.L w X .                         ",
"                                X X & - 8 u n D 9.9.j.j.j.x.c.c.c.c.c._._.c.x.u.1.,.,.1.z.x.j.9.m 4 X .                         ",
"                                . X X O & < 4 b C 6.6.6.e.y.y.y.y.y.y.y.u.t.t.<.3.3.3.4.l.w.q.C b = X .                         ",
"                                X X . X X X # c M $.6.6.6.6.6.6.=.6.6.=.=.1.1.<.4.4.4.4.2.6.$.M k $ X .                         ",
"                                  X X . . X # 0 C 5.7.y.7.8.8.8.7.7.7.7.8.q.q.r.u.z.z.u.t.q.5.V 0 * X .                         ",
"                                      . . . * y D 9.i.i.i.i.i.i.i.i.p.p.i.i.p.a.h.h.h.h.j.i.! D y , X .                         ",
"                                        . X = i L ' s.m.f.s.s.s.s.s.s.s.s.s.m.s.f.d.f.f.m.s.' L i : X .                         ",
"                                        + o : d R { M.M.M.M.M.m. . .{ { { { { { { { { s.m.m.{ U d , X .                         ",
"                                      j $ # ; d R } M.Z.Z.M.m. ._ ^ R Y R R R R Y R R ] n.b. .W d : X .                         ",
"                                  :.@.l 3 # ; u R [ M.Z.Z.V.b._ Y A s u s d d s u s A R [ b. .W f , X .                         ",
"                                >.*.@.z 5 $ ; d R { M.V.V.m. ./ A t ; * - ; ; - - ; t S ~ { { R f , X .                         ",
"                                :.*.@.N j 2 : a R { m.M.m. ./ L p 9 $ @ O X O O & ; 9 S U / / P i - X .                         ",
"                              :.>.*.@.N j = : d R { m...[ W L S b c 5 1 % + X * 8 u h S J U U A e - X .                         ",
"                          :.:.:.:.*.@.N j 2 : d W  .b.[ R A p m b v z j 1 @ & 8 h J T J S h i e : O X                           ",
"                        *.*.*.*.:.*.@.x j $ ; a R { { ~ A e 4 k v o.o.z 3 $ ; r J / / T g w ; O O o                             ",
"                        #.&.;.*.*.&.O.l 5 $ - u J / / P a ; 2 j N O.O.v 5 = ; u J / _ P i : X . .                               ",
"                        o.O.@.@.@.O.B l 1 # - w f J J A w # % 3 z o.B l 3 # - e A P P S e * . .                                 ",
"                          z N N N x l 5 $ O O ; w u u e : o + 1 j x l j 2 # & ; 9 i i t > O .                                   ",
"                                    1 # @ o X O * - ; - & X         1 $ + X o O < ; ; - O X                                     ",
"                                      X . o X X X X X . X             . X X X X X X X X X                                       ",
"                                        . . X . . . . .                 . X . . . . . .                                         ",
"                                          . X . . . .                     . X . . . .                                           ",
"                                                                                                                                ",
"                                                                                                                                ",
"                                                                                                                                ",
"                                                                                                                                ",
"                                                                                                                                ",
"                                                                                                                                ",
"                                                                                                                                "
};
